<svg width="761" height="226" viewBox="0 0 761 226" fill="none" xmlns="http://www.w3.org/2000/svg">
<path d="M341.3 226C331.07 226 321.883 224.01 313.737 220.03C305.781 216.05 299.435 210.46 294.699 203.258C289.963 196.056 287.595 187.623 287.595 177.957C287.595 176.82 287.595 175.778 287.595 174.83C287.595 173.693 287.69 172.556 287.879 171.419C278.786 170.471 270.451 168.576 262.874 165.733C255.486 162.891 249.613 159.005 245.256 154.078C240.899 148.961 238.721 142.707 238.721 135.316C238.721 128.493 240.804 122.049 244.972 115.985C249.14 109.731 254.349 103.951 260.6 98.644C267.041 93.148 273.766 88.4101 280.775 84.4302C293.846 76.4704 306.633 70.5006 319.136 66.5208C316.673 63.4885 314.684 59.9824 313.169 56.0025C311.843 51.8331 311.18 47.8532 311.18 44.0629C311.18 37.2402 313.642 31.1757 318.568 25.8692C323.682 20.3732 330.218 15.73 338.174 11.9396C346.131 8.14925 354.56 5.21173 363.464 3.12704C372.367 1.04235 380.608 0 388.185 0C408.265 0 418.305 6.15933 418.305 18.478C418.305 24.1635 416.127 29.091 411.77 33.2604C407.413 37.4298 402.582 39.5145 397.278 39.5145C392.163 39.5145 389.606 38.1878 389.606 35.5346C389.606 33.6394 390.837 32.6918 393.3 32.6918C394.058 32.6918 395.005 32.8813 396.141 33.2604C396.52 33.4499 397.183 33.5446 398.131 33.5446C400.593 33.5446 402.961 32.1233 405.234 29.2805C408.265 25.6797 409.781 22.2683 409.781 19.0465C409.781 13.9296 406.845 10.234 400.972 7.95975C397.183 6.63312 392.353 5.9698 386.48 5.9698C378.903 5.9698 371.325 7.29642 363.748 9.94967C356.36 12.4134 349.54 15.9195 343.289 20.4679C337.227 24.8268 332.302 29.8491 328.513 35.5346C324.724 41.2201 322.83 47.2847 322.83 53.7283C322.83 58.2767 323.967 61.8776 326.24 64.5308C333.438 62.4461 339.784 61.4038 345.278 61.4038C356.265 61.4038 361.759 63.5832 361.759 67.9421C361.759 70.4059 360.149 72.5853 356.928 74.4805C353.708 76.1862 350.203 77.039 346.415 77.039C336.943 77.039 328.892 74.5753 322.262 69.6478C316.957 71.1639 311.369 73.5329 305.497 76.7547C299.624 79.9765 293.468 83.9564 287.027 88.6944C278.313 95.1379 270.735 102.34 264.294 110.299C257.854 118.07 254.633 126.408 254.633 135.316C254.633 152.183 266.094 161.564 289.016 163.459C291.1 150.003 295.551 137.874 302.371 127.072C309.38 116.269 318.568 107.362 329.934 100.35C336.375 96.3698 343.668 93.2428 351.814 90.9686C360.149 88.5048 368.484 86.6096 376.819 85.283C385.344 83.7669 393.111 82.4403 400.12 81.3031C409.402 79.787 416.885 78.0813 422.568 76.1862C428.251 74.291 432.513 72.3011 435.355 70.2164C437.438 68.7002 438.954 66.9946 439.901 65.0994C441.038 63.2042 441.606 61.4985 441.606 59.9824C441.606 58.8453 441.417 57.8029 441.038 56.8553C440.659 55.7182 441.132 55.1497 442.458 55.1497C443.784 55.1497 444.826 56.0025 445.584 57.7082C446.342 59.4138 446.721 61.0247 446.721 62.5409C446.721 66.3312 444.826 70.4059 441.038 74.7648C436.87 78.9342 431.85 82.0612 425.978 84.1459C420.105 86.2306 413.948 87.8415 407.508 88.9786C401.067 90.1157 394.721 91.4424 388.469 92.9585C392.069 96.3698 393.868 101.487 393.868 108.309C393.868 122.334 385.912 135.79 369.999 148.677C359.012 157.395 347.267 163.459 334.764 166.87C322.451 170.092 309.191 171.703 294.983 171.703C294.794 172.84 294.604 174.072 294.415 175.399C294.415 176.536 294.415 177.673 294.415 178.81C294.415 191.508 298.677 201.836 307.202 209.796C315.916 217.756 327.282 221.736 341.3 221.736C346.036 221.736 350.109 220.125 353.519 216.903C356.928 213.871 358.633 210.365 358.633 206.385C358.633 205.058 358.349 203.732 357.781 202.405C357.591 202.026 357.497 201.552 357.497 200.984C357.497 199.847 358.254 199.278 359.77 199.278C361.854 199.278 362.896 201.742 362.896 206.669C362.896 211.786 360.717 216.24 356.36 220.03C352.003 224.01 346.983 226 341.3 226ZM344.994 72.4906C349.73 72.4906 352.477 71.3535 353.234 69.0793C353.424 67.1841 350.677 66.2365 344.994 66.2365C340.447 66.2365 335.333 66.805 329.65 67.9421C334.386 70.9744 339.5 72.4906 344.994 72.4906ZM295.835 163.743C308.149 163.743 320.746 161.753 333.628 157.774C346.699 153.794 357.686 147.729 366.59 139.58C378.524 128.777 384.491 117.691 384.491 106.32C384.491 97.9807 380.892 93.8113 373.693 93.8113C371.61 93.8113 366.968 94.6641 359.77 96.3698C323.209 110.015 301.897 132.473 295.835 163.743Z" fill="#BEAA8E" fill-opacity="0.5"/>
<path d="M693.201 154.33C690.563 154.33 687.925 153.396 685.288 151.528C682.65 149.659 681.166 147.461 680.837 144.933C679.738 136.471 685.068 126.415 696.827 114.765C708.477 103.116 718.973 97.291 728.314 97.291C730.842 97.291 732.82 97.8955 734.249 99.1044C735.018 99.8737 735.568 100.918 735.897 102.237C736.337 103.555 736.667 104.215 736.887 104.215C737.326 104.215 737.711 104.16 738.041 104.05C738.37 103.83 738.755 103.72 739.195 103.72C740.513 103.72 741.667 104.215 742.656 105.204C743.646 106.193 744.195 107.072 744.305 107.842C744.415 108.061 740.898 113.502 733.754 124.162C726.611 134.603 723.369 141.691 724.028 145.428C724.578 147.956 725.787 149.22 727.655 149.22C733.37 149.22 743.81 139.768 758.977 120.865C759.307 120.425 759.636 120.206 759.966 120.206C760.515 120.206 760.79 120.59 760.79 121.359C760.79 122.239 760.296 123.338 759.307 124.657C745.349 143.45 734.634 152.846 727.16 152.846C726.171 152.846 725.237 152.682 724.358 152.352C719.522 150.483 717.104 146.857 717.104 141.472C717.104 139.603 717.324 137.735 717.764 135.867L707.543 145.758C704.466 148.835 701.663 151.033 699.135 152.352C696.718 153.671 694.739 154.33 693.201 154.33ZM691.717 150.703C698.091 150.703 706.773 143.725 717.764 129.767L735.238 105.699C734.359 104.16 732.93 103.391 730.952 103.391C724.248 103.391 715.181 108.776 703.751 119.546C691.882 130.536 686.552 139.603 687.76 146.747C688.31 149.384 689.629 150.703 691.717 150.703Z" fill="#404040"/>
<path d="M656.646 157.133C653.459 157.133 650.272 156.803 647.084 156.143C644.007 155.484 641.205 154.44 638.677 153.011C637.908 152.572 636.754 151.857 635.215 150.868C633.786 149.879 631.918 148.505 629.61 146.747C627.852 147.956 626.203 149.055 624.665 150.044C623.126 150.923 621.642 151.363 620.213 151.363C617.686 151.363 616.422 149.989 616.422 147.241C616.422 146.362 616.752 145.208 617.411 143.779C617.961 142.241 618.62 141.472 619.389 141.472C619.939 141.472 620.213 141.856 620.213 142.625C620.213 143.175 620.159 143.615 620.049 143.944C620.049 144.054 619.994 144.219 619.884 144.439C619.884 144.549 619.884 144.659 619.884 144.769C619.884 145.868 620.433 146.417 621.532 146.417C622.961 146.417 624.555 145.758 626.313 144.439L620.049 139.658C619.829 139.438 619.719 139.164 619.719 138.834C619.719 138.065 620.268 137.185 621.367 136.196C622.466 135.097 623.456 134.548 624.335 134.548C624.664 134.548 627.192 136.416 631.918 140.153C636.314 135.207 640.875 130.316 645.601 125.481C649.118 121.744 652.195 118.557 654.833 115.919C657.58 113.282 659.943 111.249 661.921 109.82C653.239 107.182 646.81 105.863 642.633 105.863C639.996 105.863 637.853 106.468 636.204 107.677C634.556 108.776 633.731 110.204 633.731 111.963C633.731 113.392 634.501 114.71 636.039 115.919C636.919 116.579 637.358 117.128 637.358 117.568C637.358 118.227 637.083 118.557 636.534 118.557C635.435 118.557 633.951 117.458 632.083 115.26C630.324 113.062 629.445 110.809 629.445 108.501C629.445 106.193 630.27 104.435 631.918 103.226C633.676 102.017 635.82 101.193 638.347 100.753C640.875 100.313 643.348 100.094 645.766 100.094C649.282 100.094 653.129 100.753 657.305 102.072C661.482 103.391 665.603 104.709 669.669 106.028C671.208 105.149 672.856 104.709 674.615 104.709C679.231 104.709 681.539 106.083 681.539 108.831C681.539 109.93 680.824 110.974 679.396 111.963C678.077 112.842 676.428 113.282 674.45 113.282C672.362 113.282 670.494 112.897 668.845 112.128C658.514 118.502 647.304 128.723 635.215 142.79L641.15 147.406C643.678 149.275 646.425 150.538 649.392 151.198C652.47 151.747 655.492 152.022 658.459 152.022C663.295 152.022 667.416 151.143 670.823 149.384C674.23 147.626 675.934 144.988 675.934 141.472C675.934 140.043 675.714 138.834 675.274 137.845C675.054 137.185 674.945 136.801 674.945 136.691C674.945 135.921 675.494 135.537 676.593 135.537C677.143 135.537 677.527 135.812 677.747 136.361C678.626 138.339 679.066 140.208 679.066 141.966C679.066 146.362 676.978 149.989 672.801 152.846C668.735 155.704 663.35 157.133 656.646 157.133Z" fill="#404040"/>
<path d="M594.114 153.835C591.147 153.835 589.059 153.011 587.85 151.363C586.641 149.604 586.036 147.461 586.036 144.933C586.036 138.559 588.234 131.745 592.63 124.492L603.181 107.347C595.708 112.842 588.289 119.711 580.926 127.954C578.948 130.152 576.695 132.734 574.167 135.702C571.749 138.669 569.056 142.076 566.089 145.922C562.133 151.088 559.77 153.671 559 153.671C557.462 153.671 556.198 153.011 555.209 151.692C554.22 150.264 553.725 149 553.725 147.901C553.725 147.021 554 145.428 554.549 143.12C555.099 140.702 555.758 138.614 556.528 136.856C557.297 134.987 558.066 133.174 558.836 131.415C559.715 129.547 560.539 127.734 561.308 125.975L551.417 136.361C551.197 136.581 550.538 137.24 549.439 138.339C548.34 139.438 547.461 139.988 546.801 139.988C546.252 139.988 545.977 139.603 545.977 138.834C545.977 138.614 546.087 138.339 546.307 138.01C546.417 137.57 546.746 137.075 547.296 136.526C548.944 134.877 550.648 133.119 552.406 131.251C554.165 129.382 555.978 127.239 557.846 124.821C558.836 123.612 560.319 121.799 562.297 119.381C564.276 116.853 566.419 114.161 568.727 111.303C571.145 108.446 573.398 105.808 575.486 103.39C576.035 102.621 576.64 102.127 577.299 101.907C577.958 101.577 578.398 101.412 578.618 101.412C581.585 101.412 583.069 102.566 583.069 104.874C583.069 105.534 582.904 106.193 582.574 106.852C572.683 120.48 566.748 130.866 564.77 138.01C577.519 125.261 587.74 115.699 595.433 109.325C603.236 102.841 608.786 99.5989 612.083 99.5989C613.841 99.5989 615.16 99.8736 616.039 100.423C617.029 100.973 617.523 102.017 617.523 103.555C617.523 104.105 617.468 104.544 617.358 104.874C617.029 105.643 614.776 108.721 610.599 114.106C608.072 117.183 605.819 119.986 603.84 122.513C601.972 125.041 600.433 127.239 599.224 129.107C597.246 132.185 595.763 135.097 594.773 137.845C593.784 140.482 593.29 142.735 593.29 144.604C593.29 145.373 593.4 146.307 593.619 147.406C593.839 148.505 594.499 149.055 595.598 149.055C598.125 149.055 602.082 146.857 607.467 142.461C609.995 140.263 612.358 138.064 614.556 135.866C616.754 133.559 618.842 131.306 620.82 129.107C621.26 128.668 621.974 127.844 622.963 126.635C623.952 125.316 624.557 124.656 624.777 124.656C625.216 124.656 625.436 125.096 625.436 125.975C625.436 126.415 625.161 127.184 624.612 128.283C624.172 129.272 623.678 130.042 623.128 130.591C621.919 132.02 620.106 133.998 617.688 136.526C615.38 139.054 612.742 141.636 609.775 144.274C606.918 146.912 604.115 149.165 601.368 151.033C598.62 152.901 596.202 153.835 594.114 153.835Z" fill="#404040"/>
<path d="M512.801 153.835C510.053 153.835 507.91 152.572 506.371 150.044C504.833 147.406 504.063 144.878 504.063 142.461C504.063 135.866 508.844 126.635 518.406 114.765C528.077 102.786 535.88 96.7964 541.815 96.7964C547.42 96.7964 550.222 99.7637 550.222 105.698C550.222 106.578 550.112 107.512 549.893 108.501C549.783 109.49 549.618 110.534 549.398 111.633C549.618 111.963 550.167 112.128 551.046 112.128C554.014 112.128 557.531 111.084 561.597 108.995C561.487 110.864 557.146 113.556 548.574 117.073C549.783 120.7 546.156 127.624 537.693 137.845C529.011 148.505 521.593 153.835 515.438 153.835H512.801ZM515.768 148.89C520.494 148.89 526.538 144.549 533.902 135.866C541.045 127.404 544.617 121.304 544.617 117.568C542.859 116.579 540.661 114.051 538.023 109.985C534.286 109.985 528.901 114.491 521.868 123.503C514.944 132.295 511.592 139.054 511.812 143.779C511.921 147.186 513.24 148.89 515.768 148.89Z" fill="#404040"/>
<path d="M453.103 178.893C452.224 178.893 451.785 178.179 451.785 176.75C451.785 174.772 452.554 171.914 454.093 168.178C455.741 164.551 458.049 159.99 461.016 154.495L472.556 132.899C465.522 138.944 456.84 144.384 446.509 149.22C439.915 152.407 432.937 154.989 425.573 156.968C418.21 158.946 411.121 159.935 404.307 159.935C392.438 159.935 383.206 157.187 376.612 151.692C370.018 146.197 366.721 138.944 366.721 129.932C366.721 113.117 376.887 96.0271 397.218 78.6626C402.164 74.4863 407.769 70.5299 414.033 66.7932C420.298 63.0565 426.892 59.8144 433.816 57.0669C440.74 54.2095 447.663 52.0114 454.587 50.4728C461.511 48.8243 468.05 48 474.205 48C479.37 48 484.206 48.7144 488.712 50.1431C493.328 51.5718 497.064 53.6599 499.922 56.4075C502.889 59.0451 504.373 62.3422 504.373 66.2986C504.373 69.5957 503.274 72.8378 501.076 76.0249C498.878 79.2121 496.02 82.0695 492.503 84.5973C489.096 87.125 485.36 89.1582 481.293 90.6968C477.337 92.2355 473.49 93.0048 469.754 93.0048C459.753 93.0048 454.642 87.6196 454.422 76.8492C454.202 71.3541 455.137 68.6066 457.225 68.6066C459.093 68.6066 459.807 70.9695 459.368 75.6952C458.269 84.7072 462.06 89.2132 470.743 89.2132C473.71 89.2132 476.897 88.6637 480.304 87.5646C483.711 86.4656 486.843 84.927 489.701 82.9488C492.668 80.9705 495.086 78.7725 496.954 76.3547C498.823 73.9368 499.757 71.4091 499.757 68.7714C499.757 65.4744 498.548 62.8367 496.13 60.8585C493.822 58.7704 490.8 57.2317 487.063 56.2426C483.436 55.2535 479.535 54.759 475.359 54.759C466.457 54.759 457.5 56.1877 448.488 59.0451C439.476 61.7927 430.793 65.6942 422.441 70.7497C414.088 75.6952 406.505 81.4651 399.691 88.0592C383.975 103.445 376.117 117.568 376.117 130.426C376.117 138.119 378.975 144.274 384.69 148.89C390.514 153.396 398.098 155.649 407.439 155.649C414.913 155.649 422.551 154.22 430.354 151.363C438.157 148.505 445.575 145.043 452.609 140.977C466.896 132.954 477.612 124.437 484.755 115.425L489.536 108.336C488.107 108.336 485.305 108.501 481.128 108.831C477.062 109.16 471.512 109.6 464.478 110.149C457.115 110.699 451.29 111.248 447.004 111.798C442.828 112.238 440.19 112.567 439.091 112.787C437.772 113.117 436.453 113.282 435.135 113.282C431.508 113.282 429.694 112.402 429.694 110.644C429.694 107.896 434.53 105.479 444.201 103.39C447.608 102.621 452.884 102.072 460.027 101.742C467.171 101.302 476.183 101.083 487.063 101.083C505.307 101.083 517.616 101.852 523.99 103.39C524.979 103.5 525.474 103.775 525.474 104.215C525.474 105.314 521.682 106.193 514.099 106.852L506.021 107.512C502.944 107.842 500.801 108.006 499.592 108.006C488.382 122.623 473.875 145.373 456.071 176.255C455.082 178.014 454.093 178.893 453.103 178.893Z" fill="#404040"/>
<path d="M280.808 100.554C278.94 100.554 277.291 99.9493 275.862 98.7404C274.544 97.5314 273.884 96.1577 273.884 94.619C273.884 91.5418 275.972 90.0032 280.149 90.0032C281.687 90.0032 283.226 90.5527 284.765 91.6517C286.303 92.6408 287.072 93.9047 287.072 95.4433C287.072 96.7621 286.358 97.9711 284.929 99.0701C283.501 100.059 282.127 100.554 280.808 100.554ZM250.31 159.076C247.892 159.076 245.914 158.307 244.376 156.768C242.727 155.12 241.903 152.263 241.903 148.196C241.903 145.888 242.452 143.251 243.551 140.283C244.54 137.206 245.804 134.129 247.343 131.051C248.991 127.974 250.585 125.227 252.124 122.809C258.278 112.808 263.334 107.752 267.29 107.642C268.279 107.642 269.488 108.082 270.917 108.961C272.346 109.731 273.06 110.61 273.06 111.599C273.06 111.599 268.884 116.984 260.531 127.754C252.289 138.415 248.167 145.998 248.167 150.504C248.167 154.021 249.541 155.779 252.289 155.779C254.047 155.779 256.3 155.065 259.048 153.636C261.905 152.098 264.872 150.174 267.95 147.866C271.027 145.559 273.939 143.086 276.687 140.448C279.544 137.81 281.852 135.393 283.611 133.195C284.71 131.766 285.644 130.777 286.413 130.227C287.292 129.678 287.842 129.403 288.062 129.403C288.501 129.403 288.721 129.733 288.721 130.392C288.721 130.942 288.062 132.041 286.743 133.689C285.534 135.338 283.83 137.261 281.632 139.459C278.995 142.097 276.082 144.954 272.895 148.031C269.708 151.109 266.246 153.746 262.509 155.944C258.773 158.032 254.706 159.076 250.31 159.076Z" fill="#404040"/>
<path d="M216.818 157.593C213.631 157.593 210.664 156.824 207.916 155.285C205.169 153.636 203.795 150.944 203.795 147.207C203.795 142.042 205.608 135.887 209.235 128.744C212.972 121.6 217.203 114.182 221.929 106.488C234.787 85.6072 243.909 75.1665 249.294 75.1665C250.393 75.1665 251.492 75.6061 252.591 76.4853C253.8 77.2546 254.46 78.1339 254.57 79.123L243.03 94.6191C238.524 100.664 234.458 106.269 230.831 111.434C227.204 116.49 224.072 121.05 221.434 125.117C220.115 127.205 218.632 129.568 216.983 132.206C215.335 134.843 213.851 137.591 212.532 140.448C211.323 143.196 210.719 145.998 210.719 148.856C210.719 150.174 211.103 151.383 211.873 152.482C212.642 153.471 214.016 153.966 215.994 153.966C219.511 153.966 224.127 152.098 229.842 148.361C235.557 144.515 241.216 139.239 246.821 132.535C247.371 131.876 247.975 131.271 248.635 130.722C249.294 130.172 249.844 129.898 250.283 129.898C250.833 129.898 251.108 130.227 251.108 130.887C251.108 131.216 250.723 131.876 249.954 132.865C249.294 133.744 248.745 134.458 248.305 135.008L244.349 139.459C242.151 141.877 239.513 144.515 236.436 147.372C233.468 150.229 230.281 152.647 226.874 154.625C223.577 156.604 220.225 157.593 216.818 157.593Z" fill="#404040"/>
<path d="M203.534 100.554C201.665 100.554 200.017 99.9493 198.588 98.7404C197.269 97.5314 196.61 96.1577 196.61 94.619C196.61 91.5418 198.698 90.0032 202.874 90.0032C204.413 90.0032 205.951 90.5527 207.49 91.6517C209.029 92.6408 209.798 93.9047 209.798 95.4433C209.798 96.7621 209.084 97.9711 207.655 99.0701C206.226 100.059 204.852 100.554 203.534 100.554ZM173.036 159.076C170.618 159.076 168.64 158.307 167.101 156.768C165.453 155.12 164.628 152.263 164.628 148.196C164.628 145.888 165.178 143.251 166.277 140.283C167.266 137.206 168.53 134.129 170.069 131.051C171.717 127.974 173.311 125.227 174.849 122.809C181.004 112.808 186.059 107.752 190.016 107.642C191.005 107.642 192.214 108.082 193.642 108.961C195.071 109.731 195.786 110.61 195.786 111.599C195.786 111.599 191.609 116.984 183.257 127.754C175.014 138.415 170.893 145.998 170.893 150.504C170.893 154.021 172.267 155.779 175.014 155.779C176.773 155.779 179.026 155.065 181.773 153.636C184.631 152.098 187.598 150.174 190.675 147.866C193.752 145.559 196.665 143.086 199.412 140.448C202.27 137.81 204.578 135.393 206.336 133.195C207.435 131.766 208.369 130.777 209.139 130.227C210.018 129.678 210.567 129.403 210.787 129.403C211.227 129.403 211.447 129.733 211.447 130.392C211.447 130.942 210.787 132.041 209.468 133.689C208.259 135.338 206.556 137.261 204.358 139.459C201.72 142.097 198.808 144.954 195.621 148.031C192.434 151.109 188.972 153.746 185.235 155.944C181.498 158.032 177.432 159.076 173.036 159.076Z" fill="#404040"/>
<path d="M28.0249 175.067C19.4526 175.067 12.6387 173.034 7.58322 168.968C2.52774 165.011 0 159.241 0 151.658C0 146.163 1.15397 140.998 3.46191 136.162C5.87974 131.216 9.12185 126.82 13.1882 122.974C17.2546 119.127 21.8704 116.105 27.0358 113.907C32.3111 111.709 37.8062 110.61 43.5211 110.61C49.3459 110.61 53.9068 111.929 57.2039 114.566C60.6108 117.204 62.3143 120.776 62.3143 125.282C62.3143 128.579 60.1712 132.865 55.885 138.14C51.5989 143.415 49.4558 145.174 49.4558 143.415C49.4558 142.976 49.6206 142.536 49.9503 142.097C53.4672 136.931 55.2256 132.096 55.2256 127.59C55.2256 123.523 53.9068 120.281 51.2692 117.863C48.7414 115.445 45.3894 114.237 41.2132 114.237C36.5973 114.237 32.1463 115.39 27.8601 117.698C23.6838 119.896 19.9472 122.864 16.6501 126.6C13.3531 130.337 10.7704 134.458 8.90204 138.964C7.03371 143.47 6.09955 147.921 6.09955 152.317C6.09955 158.362 8.02283 162.923 11.8694 166C15.8259 169.187 20.9912 170.781 27.3655 170.781C33.8497 170.781 40.0592 169.572 45.9939 167.154C52.0385 164.846 57.4237 161.494 62.1494 157.098C67.7544 151.823 73.4144 144.13 79.1293 134.019L93.4714 108.137C97.2081 102.202 101.11 95.0587 105.176 86.7061C109.242 78.2437 113.529 68.5723 118.034 57.6921C102.209 57.4723 86.8224 59.0109 71.8757 62.3079C55.94 65.7149 44.1256 70.4407 36.4324 76.4853C33.1354 78.9031 31.4869 81.4308 31.4869 84.0685C31.4869 86.3764 32.7507 88.2997 35.2785 89.8383C37.9161 91.267 41.2132 91.9814 45.1696 91.9814C47.4776 91.9814 50.2251 91.6517 53.4123 90.9923C56.5994 90.3329 59.6767 89.4537 62.644 88.3547C65.6113 87.1457 67.8643 85.8269 69.403 84.3982C70.502 83.519 71.2713 83.0794 71.7109 83.0794C72.5901 83.0794 72.755 83.519 72.2055 84.3982C69.8975 87.1457 66.8752 89.4537 63.1386 91.322C59.5118 93.1903 55.6652 94.6191 51.5989 95.6082C47.5325 96.4874 43.7409 96.927 40.224 96.927C34.8389 96.927 30.6076 95.8829 27.5304 93.7948C24.563 91.5967 23.0794 88.7943 23.0794 85.3873C23.0794 81.4308 25.0576 77.5843 29.0141 73.8476C36.4874 66.5941 49.8404 61.2089 69.0732 57.6921C76.5466 56.3732 84.5694 55.4391 93.1417 54.8896C101.714 54.2302 110.836 53.9554 120.507 54.0653C122.925 51.9772 125.233 50.9331 127.431 50.9331C129.629 50.9331 130.453 52.0871 129.904 54.395C136.828 54.8346 143.806 55.7138 150.84 57.0327C157.984 58.3515 164.468 60.2198 170.293 62.6376C176.227 64.9456 181.008 67.858 184.635 71.3748C188.262 74.7818 190.075 78.8481 190.075 83.5739C190.075 88.6294 188.372 93.4651 184.965 98.081C181.668 102.587 177.381 106.598 172.106 110.115C166.941 113.632 161.501 116.435 155.786 118.523C150.51 120.391 144.851 121.875 138.806 122.974C132.871 124.073 126.991 124.622 121.167 124.622C116.771 124.622 112.539 124.293 108.473 123.633C104.517 122.974 100.89 121.93 97.5928 120.501C90.8887 130.282 85.2838 138.25 80.7778 144.405C76.3817 150.559 72.9748 154.845 70.5569 157.263C58.6875 169.132 44.5102 175.067 28.0249 175.067ZM117.045 120.666C121.112 120.666 125.123 120.281 129.08 119.512C133.146 118.633 137.487 117.479 142.103 116.05C146.719 114.511 151.39 112.588 156.115 110.28C160.841 107.862 165.182 105.17 169.139 102.202C173.095 99.125 176.282 95.8829 178.7 92.476C181.118 88.9591 182.327 85.4423 182.327 81.9254C182.327 77.9689 180.678 74.562 177.381 71.7045C174.084 68.7372 169.743 66.3194 164.358 64.451C158.973 62.5827 153.148 61.154 146.884 60.1649C140.619 59.0658 134.575 58.3515 128.75 58.0218L123.475 74.507C121.606 79.2328 118.969 84.7279 115.562 90.9923C112.155 97.2567 107.978 104.29 103.033 112.093L99.4061 117.698C100.175 118.138 101 118.523 101.879 118.852C102.868 119.072 103.912 119.292 105.011 119.512C107.099 119.951 109.132 120.281 111.111 120.501C113.089 120.611 115.067 120.666 117.045 120.666Z" fill="#404040"/>
</svg>
