<svg width="430" height="469" viewBox="0 0 430 469" fill="none" xmlns="http://www.w3.org/2000/svg">
<path d="M273.19 364.633C273.19 364.633 294.281 448.067 242.72 468.409C245.842 405.773 223.723 406.846 273.19 364.633Z" fill="#95AF9E"/>
<path d="M263.139 94.9949C263.139 94.9949 312.301 201.709 451.78 106.709C401.311 117.712 379.788 24.5898 263.139 94.9949Z" fill="#95AF9E"/>
<path d="M261.565 429.939C261.438 429.939 261.311 429.925 261.197 429.885C260.499 429.67 260.093 428.892 260.309 428.154C292.504 312.235 265.525 187.352 237.225 103.005C206.553 11.5473 167.771 -53.2624 167.378 -53.893C166.985 -54.5371 167.162 -55.4093 167.784 -55.8252C168.393 -56.2278 169.205 -56.0533 169.611 -55.3959C170.005 -54.7518 208.951 10.3263 239.725 102.08C268.151 186.815 295.233 312.315 262.847 428.946C262.682 429.55 262.149 429.952 261.578 429.952L261.565 429.939Z" fill="#536959"/>
<path d="M356.159 122.421C323.925 122.421 269.852 114.505 223.862 64.5758C223.355 64.0257 222.39 62.5228 222.911 61.9861C223.431 61.4494 224.268 61.4628 224.776 62.0129C293.266 136.363 382.021 117.577 382.91 117.39C383.608 117.242 384.318 117.712 384.471 118.463C384.623 119.215 384.166 119.953 383.455 120.114C383.151 120.181 372.631 122.408 356.159 122.408V122.421Z" fill="#536959"/>
<path d="M255.372 243.856C255.372 243.856 248.799 348.853 147.15 314.489C176.337 264.963 179.637 244.03 255.372 243.856Z" fill="#95AF9E"/>
<path d="M299.306 332.174C299.306 332.174 374.433 339.138 363.367 412.012C349.268 389.684 294.7 408.859 299.306 332.174Z" fill="#95AF9E"/>
<path d="M193.863 309.149C193.304 309.149 192.784 308.773 192.606 308.182C192.39 307.444 192.771 306.666 193.469 306.425C257.796 284.768 263.545 202.93 263.596 202.098C263.646 201.334 264.357 200.757 265.004 200.797C265.728 200.851 266.286 201.508 266.235 202.286C266.184 203.132 260.334 286.848 194.269 309.081C194.142 309.122 194.002 309.149 193.875 309.149H193.863Z" fill="#536959"/>
<path d="M331.806 362.593C331.603 362.593 331.4 362.539 331.21 362.445C281.197 335.381 272.745 267.445 272.657 266.761C272.568 265.996 273.075 265.298 273.799 265.204C274.522 265.11 275.182 265.647 275.271 266.425C275.347 267.096 283.659 333.583 332.402 359.963C333.05 360.312 333.303 361.157 332.974 361.842C332.745 362.325 332.276 362.606 331.793 362.606L331.806 362.593Z" fill="#536959"/>
<path d="M112.733 260.521C112.302 260.521 111.883 260.293 111.629 259.89C111.236 259.246 111.401 258.388 112.01 257.958C179.725 210.834 192.682 143.528 191.629 95.3569C190.487 43.0664 173.088 1.45672 172.911 1.04076C172.606 0.343013 172.911 -0.488911 173.571 -0.797529C174.231 -1.11956 175.017 -0.797528 175.309 -0.0997841C175.487 0.316179 193.101 42.4492 194.256 95.3033C195.322 144.172 182.175 212.457 113.457 260.293C113.228 260.454 112.975 260.521 112.733 260.521Z" fill="#355641"/>
<path d="M343.621 276.059C343.405 276.059 343.176 276.006 342.973 275.885C288.469 243.815 279.814 138.899 279.725 137.839C279.662 137.074 280.207 136.403 280.931 136.336C281.641 136.282 282.288 136.846 282.352 137.611C282.428 138.657 290.969 242.098 344.255 273.443C344.89 273.818 345.118 274.664 344.763 275.335C344.522 275.791 344.077 276.046 343.608 276.046L343.621 276.059Z" fill="#355641"/>
<path d="M330.144 216.268C330.144 216.268 330.08 216.268 330.042 216.268C329.75 216.241 301.413 213.625 287.999 184.91C287.682 184.225 287.948 183.38 288.596 183.045C289.243 182.709 290.042 182.991 290.36 183.675C303.126 210.981 329.966 213.464 330.245 213.477C330.968 213.531 331.514 214.202 331.463 214.98C331.413 215.704 330.829 216.268 330.144 216.268Z" fill="#355641"/>
<path d="M215.728 219.368C215.36 219.368 215.005 219.207 214.738 218.898C185.424 183.93 190.779 119.939 190.83 119.295C190.893 118.53 191.591 117.98 192.264 118.034C192.987 118.101 193.52 118.785 193.457 119.55C193.406 120.181 188.165 182.991 216.705 217.046C217.187 217.623 217.137 218.509 216.591 219.019C216.337 219.247 216.033 219.368 215.715 219.368H215.728Z" fill="#355641"/>
<path d="M320.702 212.35C320.702 212.35 336.945 201.978 346.006 221.085C340.511 218.254 331.324 231.806 320.702 212.35Z" fill="#355641"/>
<path d="M330.55 264.506C330.55 264.506 354.763 263.768 355.842 282.339C345.639 281.507 336.007 282.5 330.55 264.506Z" fill="#355641"/>
<path d="M305.41 204.93C305.41 204.93 312.72 195.953 328.151 199.174C323.113 202.837 316.984 212.873 305.41 204.93Z" fill="#355641"/>
<path d="M298.799 213.316C298.799 213.316 308.786 231.35 297.618 251.008C298.113 241.494 282.822 235 298.799 213.316Z" fill="#355641"/>
<path d="M311.768 274.61C311.641 274.61 311.502 274.597 311.375 274.543C310.677 274.315 310.296 273.523 310.512 272.799C310.55 272.651 314.839 257.918 312.669 245.077C312.542 244.312 313.012 243.587 313.735 243.453C314.433 243.319 315.131 243.829 315.258 244.58C317.555 258.106 313.215 273 313.024 273.63C312.847 274.221 312.326 274.61 311.768 274.61Z" fill="#355641"/>
<path d="M206.946 205.439C206.946 205.439 228.685 211.303 221.692 229.606C215.982 221.461 207.441 224.466 206.946 205.439Z" fill="#355641"/>
<path d="M191.718 201.884C191.54 201.884 191.35 201.844 191.172 201.763C190.512 201.441 190.208 200.623 190.512 199.925C194.434 190.693 194.345 174.081 194.345 173.92C194.345 173.156 194.929 172.511 195.652 172.511C196.375 172.511 196.959 173.129 196.972 173.894C196.972 174.605 197.073 191.283 192.911 201.065C192.695 201.575 192.213 201.884 191.705 201.884H191.718Z" fill="#355641"/>
<path d="M215.487 117.417C215.411 117.417 215.334 117.417 215.258 117.39C214.446 117.242 195.258 113.337 191.274 83.2942C191.172 82.5293 191.68 81.8316 192.403 81.7242C193.114 81.6035 193.786 82.1402 193.888 82.9185C197.593 110.855 214.979 114.518 215.715 114.652C216.426 114.787 216.908 115.511 216.781 116.276C216.667 116.947 216.109 117.43 215.487 117.43V117.417Z" fill="#355641"/>
<path d="M193.494 193.082C193.494 193.082 198.279 205.654 187.479 211.209C183.545 201.669 193.494 193.082 193.494 193.082Z" fill="#355641"/>
<path d="M148.812 117.39C148.305 117.39 147.835 117.081 147.607 116.571C147.302 115.874 147.607 115.042 148.266 114.72C187.378 95.9879 186.617 49.4537 186.604 48.9841C186.578 48.2193 187.162 47.5752 187.886 47.5484C188.571 47.4544 189.218 48.1253 189.243 48.9036C189.256 49.3867 190.106 97.7591 149.358 117.269C149.18 117.35 148.99 117.39 148.812 117.39Z" fill="#355641"/>
<path d="M167.67 116.37C167.581 116.37 167.48 116.37 167.391 116.343C166.68 116.182 166.223 115.444 166.375 114.693L169.586 98.7253C169.738 97.9738 170.462 97.4908 171.147 97.6518C171.858 97.8128 172.315 98.5508 172.162 99.3022L168.952 115.27C168.825 115.927 168.266 116.37 167.657 116.37H167.67Z" fill="#355641"/>
<path d="M168.85 108.816C168.85 108.816 177.251 124.475 163.051 130.446C165.449 125.87 154.967 119.671 168.85 108.816Z" fill="#355641"/>
<path d="M158.063 110.399C158.063 110.399 140.208 108.816 136.883 126.555C148.635 127.293 158.063 110.399 158.063 110.399Z" fill="#355641"/>
<path d="M276.73 39.1754C268.177 39.1754 259.319 37.7799 250.982 33.9825C235.931 27.1393 225.246 13.587 219.218 -6.31217C219.002 -7.05017 219.383 -7.82842 220.068 -8.06995C220.753 -8.29806 221.502 -7.89551 221.731 -7.17093C227.517 11.9231 237.695 24.8985 252.01 31.4063C282.098 45.0928 320.892 25.7035 321.286 25.5157C321.946 25.1802 322.733 25.4754 323.05 26.1732C323.367 26.8709 323.088 27.7028 322.428 28.0383C321.235 28.6421 300.182 39.1754 276.73 39.1754Z" fill="#414141"/>
<path d="M311.704 51.6676C311.235 51.6676 310.778 51.3992 310.537 50.943C310.486 50.8356 304.839 40.2219 288.697 38.2092C287.974 38.1152 287.453 37.4309 287.542 36.6661C287.631 35.9012 288.265 35.3511 289.002 35.445C306.59 37.6322 312.605 49.1315 312.847 49.628C313.189 50.3123 312.948 51.1443 312.314 51.5065C312.111 51.6139 311.895 51.6676 311.692 51.6676H311.704Z" fill="#355641"/>
<path d="M308.012 32.1844C308.012 32.1844 319.687 15.841 334.509 24.4152C329.826 28.4809 323.773 42.3553 308.012 32.1844Z" fill="#414141"/>
<path d="M304.42 42.7716C304.42 42.7716 327.466 42.369 325.804 62.5097C318.583 55.3578 307.593 69.7958 304.42 42.7716Z" fill="#355641"/>
<path d="M257.263 64.6428C257.263 64.6428 257.162 64.6428 257.124 64.6428C256.4 64.5623 255.88 63.878 255.956 63.0997C258.139 41.8051 241.794 28.6687 241.629 28.5345C241.045 28.0783 240.918 27.1927 241.35 26.5755C241.794 25.9583 242.606 25.8241 243.19 26.2937C243.913 26.8573 260.918 40.4767 258.57 63.3949C258.494 64.1061 257.923 64.6428 257.263 64.6428Z" fill="#355641"/>
<path d="M256.832 51.6406C256.832 51.6406 266.921 63.9182 254.56 74.1965C255.119 66.4811 249.142 62.8045 256.832 51.6406Z" fill="#355641"/>
<path d="M350.727 164.259C252.289 164.259 229.269 46.7163 229.04 45.4953C228.901 44.7439 229.37 44.0059 230.081 43.8583C230.791 43.7107 231.489 44.2071 231.629 44.9586C231.857 46.193 255.69 167.842 358.824 161.213C359.547 161.16 360.182 161.75 360.22 162.528C360.27 163.293 359.712 163.964 358.989 164.004C356.184 164.179 353.43 164.273 350.74 164.273L350.727 164.259Z" fill="#355641"/>
<path d="M333.595 162.112C333.595 162.112 358.76 145.621 371.971 159.214C363.659 164.3 350.664 174.752 333.595 162.112Z" fill="#355641"/>
<path d="M162.581 12.822C162.581 12.822 163.127 160.301 0.284912 140.67C42.4801 138.617 -3.76327 28.2395 162.581 12.822Z" fill="#95AF9E"/>
<path d="M78.8252 85.4947C78.3811 85.4947 77.9369 85.2531 77.6958 84.8103C77.3151 84.1528 77.5181 83.2941 78.1526 82.8915C166.921 26.5487 161.82 -12.4176 161.756 -12.8068C161.629 -13.5582 162.112 -14.2827 162.822 -14.4169C163.546 -14.5645 164.218 -14.0546 164.345 -13.2898C164.624 -11.6394 170.157 27.7429 79.4978 85.28C79.2821 85.4142 79.0536 85.4812 78.8125 85.4812L78.8252 85.4947Z" fill="#536959"/>
<path d="M129.84 246.351C129.84 246.351 104.777 245.426 102.137 268.21C110.487 266.344 127.213 266.344 129.84 246.351Z" fill="#355641"/>
<path d="M148.533 226.587C148.533 226.587 130.716 215.772 118.19 228.68C124.459 227.982 140.957 237.751 148.533 226.587Z" fill="#355641"/>
<path d="M148.013 189.807C142.683 189.807 136.706 188.935 130.107 186.762C129.409 186.533 129.015 185.755 129.231 185.017C129.447 184.279 130.183 183.877 130.881 184.105C162.771 194.598 178.495 174.055 179.155 173.182C179.611 172.579 180.436 172.471 181.007 172.941C181.578 173.41 181.68 174.296 181.236 174.9C181.096 175.088 169.903 189.807 148.013 189.807Z" fill="#355641"/>
<path d="M303.558 275.254C303.837 279.199 307.098 282.178 310.842 281.883C314.585 281.588 317.39 278.139 317.111 274.194C316.832 270.249 313.57 267.27 309.827 267.566C306.083 267.861 303.278 271.309 303.558 275.254Z" fill="#BEAA8E"/>
<path d="M313.494 288.874C313.773 292.832 317.035 295.798 320.778 295.502C324.509 295.207 327.314 291.759 327.035 287.814C326.755 283.869 323.507 280.89 319.763 281.185C316.032 281.48 313.215 284.929 313.494 288.874Z" fill="#BEAA8E"/>
<path d="M302.352 286.995C302.631 290.94 305.892 293.919 309.623 293.624C313.367 293.328 316.172 289.88 315.892 285.935C315.613 281.99 312.364 279.011 308.608 279.306C304.877 279.602 302.06 283.05 302.339 286.995H302.352Z" fill="#BEAA8E"/>
<path d="M287.58 278.662C287.86 282.607 291.108 285.573 294.852 285.278C298.596 284.982 301.4 281.534 301.121 277.589C300.842 273.644 297.593 270.665 293.849 270.96C290.106 271.256 287.301 274.704 287.58 278.649V278.662Z" fill="#BEAA8E"/>
<path d="M302.212 302.681C302.492 306.626 305.753 309.605 309.484 309.31C313.227 309.014 316.032 305.566 315.753 301.621C315.474 297.676 312.225 294.697 308.469 294.992C304.738 295.288 301.933 298.736 302.2 302.681H302.212Z" fill="#BEAA8E"/>
<path d="M290.778 292.55C291.058 296.495 294.319 299.474 298.05 299.179C301.794 298.883 304.598 295.435 304.319 291.49C304.04 287.545 300.791 284.566 297.035 284.861C293.304 285.157 290.499 288.605 290.778 292.563V292.55Z" fill="#BEAA8E"/>
<path d="M206.883 113.633C207.619 118.034 211.591 120.972 215.753 120.194C219.916 119.416 222.695 115.216 221.959 110.815C221.223 106.414 217.251 103.475 213.088 104.253C208.926 105.032 206.147 109.231 206.883 113.633Z" fill="#BEAA8E"/>
<path d="M201.147 130.781C201.883 135.182 205.855 138.121 210.017 137.342C214.18 136.564 216.959 132.364 216.223 127.976C215.487 123.575 211.527 120.637 207.352 121.415C203.203 122.193 200.411 126.393 201.147 130.794V130.781Z" fill="#BEAA8E"/>
<path d="M216.312 126.554C217.048 130.955 221.02 133.894 225.182 133.116C229.345 132.338 232.124 128.138 231.388 123.75C230.652 119.349 226.692 116.41 222.517 117.188C218.367 117.967 215.576 122.167 216.312 126.568V126.554Z" fill="#BEAA8E"/>
<path d="M221.565 114.384C222.301 118.785 226.274 121.724 230.423 120.945C234.598 120.167 237.365 115.967 236.629 111.579C235.893 107.178 231.933 104.24 227.758 105.018C223.596 105.796 220.817 109.996 221.553 114.384H221.565Z" fill="#BEAA8E"/>
<path d="M227.936 132.78C228.672 137.181 232.644 140.12 236.794 139.342C240.956 138.564 243.735 134.364 242.999 129.963C242.263 125.561 238.304 122.623 234.129 123.401C229.966 124.179 227.187 128.379 227.923 132.767L227.936 132.78Z" fill="#BEAA8E"/>
<path d="M117.467 185.379C118.19 189.74 122.124 192.652 126.236 191.874C130.36 191.109 133.101 186.949 132.391 182.602C131.667 178.254 127.734 175.342 123.609 176.107C119.485 176.872 116.744 181.032 117.467 185.379Z" fill="#BEAA8E"/>
<path d="M125.64 200.837C126.363 205.185 130.297 208.11 134.409 207.331C138.533 206.567 141.274 202.407 140.551 198.059C139.827 193.699 135.893 190.787 131.769 191.565C127.645 192.33 124.904 196.49 125.627 200.85L125.64 200.837Z" fill="#BEAA8E"/>
<path d="M128.647 181.3C129.371 185.661 133.305 188.573 137.416 187.795C141.541 187.03 144.282 182.87 143.558 178.523C142.835 174.175 138.901 171.263 134.789 172.028C130.665 172.793 127.924 176.953 128.647 181.3Z" fill="#BEAA8E"/>
<path d="M106.376 198.408C107.099 202.756 111.033 205.668 115.145 204.903C119.269 204.138 122.01 199.978 121.287 195.631C120.564 191.27 116.63 188.358 112.518 189.136C108.394 189.901 105.652 194.061 106.376 198.408Z" fill="#BEAA8E"/>
</svg>
