<svg width="203" height="332" viewBox="0 0 203 332" fill="none" xmlns="http://www.w3.org/2000/svg">
<path d="M58.3323 65.8218C58.3323 65.8218 47.1917 13.0688 74.4263 0.207222C72.7774 39.8101 84.4609 39.1314 58.3323 65.8218Z" fill="#95AF9E"/>
<path d="M63.6414 236.306C63.6414 236.306 37.6736 168.834 -36 228.9C-9.34184 221.943 2.02661 280.821 63.6414 236.306Z" fill="#95AF9E"/>
<path d="M64.4725 24.5306C64.5395 24.5306 64.6065 24.5391 64.6668 24.5646C65.0355 24.7003 65.25 25.1924 65.1361 25.659C48.1303 98.9515 62.3811 177.911 77.329 231.241C93.5303 289.067 114.015 330.045 114.223 330.444C114.431 330.851 114.337 331.402 114.008 331.665C113.687 331.92 113.258 331.809 113.043 331.394C112.835 330.986 92.2635 289.84 76.0085 231.827C60.9936 178.251 46.6892 98.9006 63.7954 25.1584C63.8826 24.7767 64.1641 24.5222 64.4658 24.5222L64.4725 24.5306Z" fill="#536959"/>
<path d="M14.5076 218.965C31.5334 218.965 60.0953 223.97 84.3873 255.539C84.6554 255.887 85.1648 256.837 84.89 257.176C84.6152 257.516 84.1727 257.507 83.9046 257.16C47.7281 210.15 0.846718 222.028 0.377502 222.146C0.00883484 222.24 -0.366531 221.943 -0.446968 221.468C-0.527405 220.993 -0.286102 220.526 0.0892715 220.424C0.250145 220.382 5.80701 218.973 14.5076 218.973V218.965Z" fill="#536959"/>
<path d="M67.7436 142.186C67.7436 142.186 71.2158 75.7989 124.907 97.5262C109.49 128.84 107.748 142.075 67.7436 142.186Z" fill="#95AF9E"/>
<path d="M44.5375 86.3445C44.5375 86.3445 4.85529 81.9413 10.7004 35.8652C18.1475 49.9824 46.9707 37.8589 44.5375 86.3445Z" fill="#95AF9E"/>
<path d="M100.233 100.903C100.528 100.903 100.803 101.14 100.897 101.514C101.011 101.98 100.81 102.472 100.441 102.625C66.4631 116.318 63.4266 168.061 63.3998 168.587C63.373 169.071 62.9976 169.436 62.6557 169.41C62.2737 169.376 61.9787 168.961 62.0056 168.469C62.0324 167.934 65.1225 115.003 100.019 100.945C100.086 100.92 100.16 100.903 100.227 100.903H100.233Z" fill="#536959"/>
<path d="M27.3707 67.1114C27.478 67.1114 27.5852 67.1453 27.6858 67.2047C54.1026 84.3167 58.5669 127.271 58.6138 127.703C58.6607 128.187 58.3926 128.628 58.0105 128.688C57.6284 128.747 57.2799 128.408 57.233 127.916C57.1928 127.491 52.8022 85.4536 27.0557 68.7742C26.7138 68.5536 26.5798 68.0191 26.754 67.5865C26.8747 67.281 27.1227 67.1029 27.3774 67.1029L27.3707 67.1114Z" fill="#536959"/>
<path d="M143.086 131.649C143.314 131.649 143.535 131.793 143.669 132.047C143.877 132.454 143.79 132.997 143.468 133.269C107.701 163.064 100.857 205.62 101.413 236.077C102.016 269.139 111.206 295.447 111.3 295.71C111.461 296.152 111.3 296.678 110.952 296.873C110.603 297.076 110.187 296.873 110.033 296.432C109.939 296.169 100.636 269.529 100.026 236.111C99.4625 205.212 106.407 162.038 142.704 131.793C142.825 131.691 142.959 131.649 143.086 131.649Z" fill="#355641"/>
<path d="M21.1301 121.824C21.2441 121.824 21.3647 121.858 21.472 121.935C50.2617 142.211 54.8332 208.547 54.8802 209.217C54.9137 209.701 54.6254 210.125 54.2434 210.167C53.868 210.201 53.5261 209.845 53.4926 209.361C53.4524 208.699 48.9412 143.297 20.795 123.479C20.4598 123.241 20.3392 122.707 20.5269 122.282C20.6542 121.994 20.8888 121.833 21.1368 121.833L21.1301 121.824Z" fill="#355641"/>
<path d="M28.2488 159.628C28.2488 159.628 28.2823 159.628 28.3024 159.628C28.4565 159.645 43.4245 161.3 50.5097 179.455C50.6773 179.888 50.5365 180.422 50.1947 180.634C49.8528 180.847 49.4305 180.668 49.2629 180.236C42.5196 162.971 28.3426 161.401 28.1951 161.393C27.8131 161.359 27.5248 160.935 27.5516 160.443C27.5784 159.985 27.8868 159.628 28.2488 159.628Z" fill="#355641"/>
<path d="M88.6839 157.669C88.8782 157.669 89.066 157.77 89.2067 157.966C104.691 180.075 101.862 220.534 101.835 220.942C101.802 221.425 101.433 221.773 101.078 221.739C100.696 221.697 100.414 221.264 100.448 220.78C100.475 220.382 103.243 180.669 88.1677 159.136C87.913 158.772 87.9398 158.212 88.2281 157.889C88.3621 157.745 88.523 157.669 88.6906 157.669H88.6839Z" fill="#355641"/>
<path d="M33.2361 162.106C33.2361 162.106 24.6561 168.664 19.8701 156.583C22.7726 158.373 27.6256 149.804 33.2361 162.106Z" fill="#355641"/>
<path d="M28.0344 129.129C28.0344 129.129 15.2449 129.595 14.6752 117.854C20.0645 118.38 25.1521 117.752 28.0344 129.129Z" fill="#355641"/>
<path d="M41.3132 166.798C41.3132 166.798 37.4523 172.473 29.3013 170.437C31.9624 168.121 35.2 161.776 41.3132 166.798Z" fill="#355641"/>
<path d="M44.8055 161.495C44.8055 161.495 39.5302 150.093 45.4289 137.664C45.1675 143.679 53.2447 147.785 44.8055 161.495Z" fill="#355641"/>
<path d="M37.9549 122.74C38.022 122.74 38.0957 122.749 38.1627 122.783C38.5314 122.927 38.7325 123.428 38.6185 123.886C38.5984 123.979 36.3328 133.294 37.479 141.414C37.546 141.897 37.2981 142.355 36.916 142.44C36.5473 142.525 36.1786 142.203 36.1116 141.727C34.8983 133.176 37.1908 123.758 37.2913 123.36C37.3852 122.986 37.66 122.74 37.9549 122.74Z" fill="#355641"/>
<path d="M93.3223 166.475C93.3223 166.475 81.8399 162.767 85.5333 151.195C88.5497 156.345 93.0608 154.445 93.3223 166.475Z" fill="#355641"/>
<path d="M101.366 168.723C101.46 168.723 101.56 168.749 101.654 168.8C102.003 169.003 102.164 169.521 102.003 169.962C99.9316 175.799 99.9785 186.302 99.9785 186.404C99.9785 186.887 99.6702 187.294 99.2881 187.294C98.906 187.294 98.5977 186.904 98.591 186.421C98.591 185.971 98.5373 175.425 100.736 169.241C100.85 168.918 101.105 168.723 101.373 168.723H101.366Z" fill="#355641"/>
<path d="M88.8113 222.129C88.8516 222.129 88.8918 222.129 88.932 222.146C89.361 222.24 99.4961 224.708 101.601 243.704C101.654 244.188 101.386 244.629 101.004 244.697C100.629 244.773 100.274 244.434 100.22 243.941C98.2627 226.278 89.0795 223.962 88.6907 223.877C88.3153 223.792 88.0606 223.334 88.1276 222.85C88.1879 222.426 88.4829 222.121 88.8113 222.121V222.129Z" fill="#355641"/>
<path d="M100.428 174.289C100.428 174.289 97.9005 166.339 103.605 162.827C105.683 168.859 100.428 174.289 100.428 174.289Z" fill="#355641"/>
<path d="M124.029 222.146C124.297 222.146 124.545 222.341 124.666 222.664C124.827 223.105 124.666 223.631 124.317 223.835C103.658 235.678 104.061 265.1 104.067 265.397C104.081 265.881 103.772 266.288 103.39 266.305C103.028 266.364 102.687 265.94 102.673 265.448C102.666 265.143 102.217 234.558 123.741 222.223C123.835 222.172 123.935 222.146 124.029 222.146Z" fill="#355641"/>
<path d="M114.068 222.791C114.115 222.791 114.169 222.791 114.216 222.808C114.591 222.91 114.833 223.376 114.752 223.851L113.056 233.947C112.976 234.422 112.594 234.728 112.232 234.626C111.856 234.524 111.615 234.058 111.696 233.582L113.391 223.487C113.458 223.071 113.753 222.791 114.075 222.791H114.068Z" fill="#355641"/>
<path d="M113.445 227.567C113.445 227.567 109.008 217.667 116.508 213.891C115.242 216.784 120.778 220.704 113.445 227.567Z" fill="#355641"/>
<path d="M119.143 226.566C119.143 226.566 128.574 227.567 130.33 216.352C124.123 215.885 119.143 226.566 119.143 226.566Z" fill="#355641"/>
<path d="M56.4623 271.599C60.9802 271.599 65.6589 272.481 70.0629 274.882C78.0127 279.209 83.6567 287.778 86.8407 300.359C86.9546 300.826 86.7535 301.318 86.3916 301.471C86.0296 301.615 85.6341 301.361 85.5135 300.902C82.4569 288.83 77.081 280.626 69.5199 276.511C53.6269 267.858 33.1356 280.117 32.9278 280.236C32.5792 280.448 32.1636 280.261 31.996 279.82C31.8285 279.379 31.9759 278.853 32.3245 278.641C32.9546 278.259 44.075 271.599 56.4623 271.599Z" fill="#414141"/>
<path d="M37.9887 263.7C38.2367 263.7 38.478 263.87 38.6053 264.159C38.6322 264.226 41.615 270.937 50.1414 272.21C50.5234 272.269 50.7983 272.702 50.7514 273.185C50.7045 273.669 50.3693 274.017 49.9805 273.958C40.69 272.575 37.5128 265.304 37.3854 264.99C37.2044 264.557 37.3318 264.031 37.6669 263.802C37.7742 263.734 37.8881 263.7 37.9954 263.7H37.9887Z" fill="#355641"/>
<path d="M39.9392 276.019C39.9392 276.019 33.7724 286.353 25.9432 280.931C28.4166 278.361 31.614 269.588 39.9392 276.019Z" fill="#414141"/>
<path d="M41.8359 269.325C41.8359 269.325 29.6632 269.58 30.5413 256.845C34.3553 261.367 40.1602 252.239 41.8359 269.325Z" fill="#355641"/>
<path d="M66.7446 255.497C66.7446 255.497 66.7983 255.497 66.8184 255.497C67.2004 255.548 67.4752 255.98 67.435 256.472C66.2821 269.936 74.9157 278.242 75.0028 278.327C75.3112 278.615 75.3782 279.175 75.1503 279.565C74.9157 279.956 74.4867 280.041 74.1783 279.744C73.7963 279.387 64.8141 270.776 66.0542 256.286C66.0944 255.836 66.3961 255.497 66.7446 255.497Z" fill="#355641"/>
<path d="M66.9725 263.718C66.9725 263.718 61.6435 255.955 68.1723 249.456C67.8774 254.334 71.0345 256.659 66.9725 263.718Z" fill="#355641"/>
<path d="M17.3764 192.512C69.3722 192.512 81.5316 266.831 81.6523 267.603C81.726 268.078 81.478 268.545 81.1026 268.638C80.7273 268.731 80.3586 268.418 80.2849 267.942C80.1642 267.162 67.5758 190.247 13.0999 194.438C12.7178 194.472 12.3826 194.098 12.3625 193.606C12.3357 193.123 12.6306 192.699 13.0127 192.673C14.4941 192.563 15.9487 192.504 17.3697 192.504L17.3764 192.512Z" fill="#355641"/>
<path d="M26.4258 193.87C26.4258 193.87 13.1336 204.296 6.15566 195.702C10.5462 192.487 17.4101 185.878 26.4258 193.87Z" fill="#355641"/>
<path d="M116.756 288.261C116.756 288.261 116.468 195.015 202.482 207.427C180.194 208.725 204.62 278.513 116.756 288.261Z" fill="#95AF9E"/>
<path d="M160.997 242.312C161.231 242.312 161.466 242.465 161.593 242.745C161.794 243.161 161.687 243.704 161.352 243.958C114.464 279.582 117.159 304.22 117.192 304.466C117.259 304.941 117.004 305.399 116.629 305.484C116.247 305.577 115.892 305.255 115.825 304.771C115.677 303.727 112.755 278.827 160.641 242.448C160.755 242.363 160.876 242.321 161.003 242.321L160.997 242.312Z" fill="#536959"/>
<path d="M134.05 140.608C134.05 140.608 147.289 141.193 148.683 126.787C144.272 127.966 135.438 127.967 134.05 140.608Z" fill="#355641"/>
<path d="M124.177 153.104C124.177 153.104 133.588 159.942 140.204 151.781C136.893 152.222 128.179 146.046 124.177 153.104Z" fill="#355641"/>
<path d="M124.452 176.359C127.267 176.359 130.424 176.91 133.91 178.284C134.278 178.429 134.486 178.921 134.372 179.387C134.258 179.854 133.869 180.109 133.501 179.964C116.656 173.33 108.351 186.319 108.002 186.87C107.761 187.252 107.325 187.32 107.024 187.023C106.722 186.726 106.668 186.166 106.903 185.784C106.977 185.665 112.889 176.359 124.452 176.359Z" fill="#355641"/>
<path d="M42.2918 122.333C42.1443 119.839 40.4216 117.956 38.4442 118.142C36.4668 118.329 34.9854 120.509 35.1329 123.003C35.2803 125.498 37.003 127.381 38.9804 127.195C40.9578 127.008 42.4392 124.827 42.2918 122.333Z" fill="#BEAA8E"/>
<path d="M37.0434 113.722C36.8959 111.219 35.1732 109.344 33.1958 109.531C31.2251 109.718 29.7437 111.898 29.8912 114.392C30.0386 116.887 31.7547 118.77 33.7321 118.583C35.7028 118.397 37.1909 116.216 37.0434 113.722Z" fill="#BEAA8E"/>
<path d="M42.9285 114.91C42.7811 112.416 41.0584 110.532 39.0877 110.719C37.1103 110.905 35.6289 113.086 35.7763 115.58C35.9238 118.074 37.6398 119.958 39.6239 119.771C41.5946 119.585 43.0827 117.404 42.9352 114.91H42.9285Z" fill="#BEAA8E"/>
<path d="M50.7311 120.178C50.5836 117.684 48.8676 115.809 46.8902 115.996C44.9128 116.182 43.4314 118.363 43.5789 120.857C43.7264 123.351 45.4424 125.235 47.4198 125.048C49.3972 124.861 50.8786 122.681 50.7311 120.187V120.178Z" fill="#BEAA8E"/>
<path d="M43.0023 104.992C42.8549 102.498 41.1322 100.614 39.1615 100.801C37.1841 100.988 35.7027 103.168 35.8502 105.662C35.9976 108.157 37.7136 110.04 39.6977 109.853C41.6684 109.667 43.1498 107.486 43.0091 104.992H43.0023Z" fill="#BEAA8E"/>
<path d="M49.0419 111.397C48.8944 108.903 47.1717 107.02 45.201 107.206C43.2236 107.393 41.7422 109.573 41.8897 112.068C42.0372 114.562 43.7532 116.445 45.7373 116.259C47.708 116.072 49.1893 113.892 49.0419 111.389V111.397Z" fill="#BEAA8E"/>
<path d="M93.3559 224.522C92.9671 221.739 90.869 219.881 88.6704 220.373C86.4718 220.865 85.0038 223.521 85.3926 226.303C85.7814 229.086 87.8794 230.944 90.078 230.452C92.2767 229.96 93.7446 227.304 93.3559 224.522Z" fill="#BEAA8E"/>
<path d="M96.3858 213.679C95.997 210.897 93.899 209.039 91.7003 209.531C89.5017 210.023 88.0338 212.678 88.4225 215.453C88.8113 218.235 90.9027 220.093 93.108 219.601C95.2999 219.109 96.7746 216.454 96.3858 213.671V213.679Z" fill="#BEAA8E"/>
<path d="M88.3755 216.352C87.9868 213.569 85.8887 211.711 83.6901 212.203C81.4915 212.695 80.0235 215.351 80.4123 218.125C80.8011 220.908 82.8924 222.766 85.0978 222.274C87.2897 221.781 88.7643 219.126 88.3755 216.343V216.352Z" fill="#BEAA8E"/>
<path d="M85.6006 224.047C85.2118 221.264 83.1137 219.406 80.9218 219.898C78.7165 220.39 77.2552 223.046 77.644 225.82C78.0328 228.603 80.1241 230.461 82.3294 229.969C84.5281 229.477 85.996 226.821 85.6073 224.047H85.6006Z" fill="#BEAA8E"/>
<path d="M82.2356 212.415C81.8468 209.633 79.7487 207.775 77.5568 208.267C75.3582 208.759 73.8902 211.414 74.279 214.197C74.6678 216.98 76.7591 218.838 78.9645 218.346C81.1631 217.854 82.6311 215.198 82.2423 212.424L82.2356 212.415Z" fill="#BEAA8E"/>
<path d="M140.586 179.158C140.204 176.401 138.126 174.56 135.954 175.052C133.776 175.536 132.328 178.166 132.703 180.915C133.085 183.663 135.163 185.504 137.342 185.021C139.52 184.537 140.968 181.907 140.586 179.158Z" fill="#BEAA8E"/>
<path d="M136.269 169.385C135.887 166.636 133.809 164.787 131.637 165.279C129.459 165.762 128.011 168.392 128.393 171.141C128.775 173.898 130.853 175.739 133.031 175.247C135.21 174.764 136.658 172.134 136.276 169.376L136.269 169.385Z" fill="#BEAA8E"/>
<path d="M134.68 181.737C134.298 178.98 132.22 177.139 130.049 177.631C127.87 178.115 126.422 180.745 126.804 183.494C127.186 186.242 129.264 188.083 131.436 187.6C133.615 187.116 135.063 184.486 134.68 181.737Z" fill="#BEAA8E"/>
<path d="M146.444 170.921C146.062 168.172 143.984 166.331 141.813 166.814C139.634 167.298 138.186 169.928 138.568 172.677C138.95 175.434 141.028 177.275 143.2 176.783C145.379 176.299 146.827 173.669 146.444 170.921Z" fill="#BEAA8E"/>
</svg>
