<svg width="195" height="261" viewBox="0 0 195 261" fill="none" xmlns="http://www.w3.org/2000/svg">
<path d="M144.15 195.102C144.15 195.102 155.29 247.855 128.056 260.716C129.705 221.113 118.021 221.792 144.15 195.102Z" fill="#95AF9E"/>
<path d="M138.841 24.6173C138.841 24.6173 164.809 92.0898 238.482 32.0237C211.824 38.9805 200.456 -19.8978 138.841 24.6173Z" fill="#95AF9E"/>
<path d="M138.01 236.393C137.943 236.393 137.876 236.384 137.815 236.359C137.447 236.223 137.232 235.731 137.346 235.264C154.352 161.972 140.101 83.0121 125.153 29.6822C108.952 -28.1442 88.4672 -69.1214 88.2595 -69.5202C88.0517 -69.9274 88.1455 -70.4789 88.4739 -70.7419C88.7957 -70.9964 89.2247 -70.8861 89.4392 -70.4704C89.647 -70.0632 110.219 -28.9162 126.474 29.0968C141.489 82.6727 155.793 162.023 138.687 235.765C138.6 236.147 138.318 236.401 138.016 236.401L138.01 236.393Z" fill="#536959"/>
<path d="M187.975 41.9584C170.949 41.9584 142.387 36.9529 118.095 5.38426C117.827 5.03642 117.317 4.08622 117.592 3.74686C117.867 3.40751 118.309 3.41599 118.578 3.76383C154.754 50.7732 201.635 38.8957 202.105 38.7769C202.473 38.6836 202.849 38.9805 202.929 39.4556C203.01 39.9307 202.768 40.3974 202.393 40.4992C202.232 40.5416 196.675 41.9499 187.975 41.9499V41.9584Z" fill="#536959"/>
<path d="M134.739 118.738C134.739 118.738 131.266 185.124 77.5747 163.397C92.9918 132.083 94.7346 118.848 134.739 118.738Z" fill="#95AF9E"/>
<path d="M157.945 174.579C157.945 174.579 197.627 178.982 191.782 225.058C184.335 210.941 155.511 223.064 157.945 174.579Z" fill="#95AF9E"/>
<path d="M102.249 160.021C101.954 160.021 101.679 159.783 101.585 159.41C101.471 158.943 101.672 158.451 102.041 158.298C136.019 144.605 139.056 92.8619 139.082 92.3359C139.109 91.8523 139.485 91.4875 139.826 91.513C140.209 91.5469 140.503 91.9626 140.477 92.4547C140.45 92.9892 137.36 145.92 102.463 159.978C102.396 160.004 102.323 160.021 102.256 160.021H102.249Z" fill="#536959"/>
<path d="M175.111 193.812C175.004 193.812 174.897 193.778 174.796 193.719C148.38 176.607 143.915 133.653 143.868 133.22C143.821 132.736 144.09 132.295 144.472 132.236C144.854 132.176 145.202 132.516 145.249 133.008C145.289 133.432 149.68 175.47 175.426 192.149C175.768 192.37 175.902 192.904 175.728 193.337C175.607 193.642 175.359 193.82 175.105 193.82L175.111 193.812Z" fill="#536959"/>
<path d="M59.396 129.275C59.1681 129.275 58.9469 129.131 58.8128 128.876C58.605 128.469 58.6921 127.926 59.0139 127.654C94.7815 97.8589 101.625 55.3036 101.069 24.8464C100.466 -8.21542 91.2758 -34.524 91.182 -34.787C91.0211 -35.2282 91.182 -35.7542 91.5305 -35.9493C91.8791 -36.1529 92.2947 -35.9493 92.4489 -35.5082C92.5427 -35.2452 101.847 -8.60568 102.457 24.8125C103.02 55.7109 96.0752 98.8855 59.778 129.131C59.6574 129.232 59.5233 129.275 59.396 129.275Z" fill="#355641"/>
<path d="M181.352 139.099C181.238 139.099 181.117 139.065 181.01 138.989C152.22 118.712 147.649 52.3766 147.602 51.7063C147.569 51.2228 147.857 50.7986 148.239 50.7561C148.614 50.7222 148.956 51.0785 148.99 51.5621C149.03 52.2239 153.541 117.626 181.687 137.445C182.022 137.682 182.143 138.217 181.955 138.641C181.828 138.929 181.593 139.091 181.345 139.091L181.352 139.099Z" fill="#355641"/>
<path d="M174.233 101.295C174.233 101.295 174.2 101.295 174.18 101.295C174.026 101.278 159.058 99.6234 151.972 81.4679C151.805 81.0352 151.946 80.5007 152.288 80.2886C152.629 80.0765 153.052 80.2547 153.219 80.6874C159.963 97.9521 174.14 99.5216 174.287 99.5301C174.669 99.564 174.957 99.9883 174.931 100.48C174.904 100.938 174.595 101.295 174.233 101.295Z" fill="#355641"/>
<path d="M113.798 103.255C113.604 103.255 113.416 103.153 113.275 102.958C97.7913 80.8487 100.62 40.3889 100.647 39.9816C100.68 39.4981 101.049 39.1502 101.404 39.1842C101.786 39.2266 102.068 39.6593 102.034 40.1428C102.008 40.5416 99.2392 80.2548 114.314 101.787C114.569 102.152 114.542 102.712 114.254 103.034C114.12 103.178 113.959 103.255 113.792 103.255H113.798Z" fill="#355641"/>
<path d="M169.246 98.8175C169.246 98.8175 177.826 92.2594 182.612 104.341C179.71 102.55 174.857 111.119 169.246 98.8175Z" fill="#355641"/>
<path d="M174.448 131.795C174.448 131.795 187.237 131.328 187.807 143.07C182.418 142.544 177.33 143.171 174.448 131.795Z" fill="#355641"/>
<path d="M161.169 94.1253C161.169 94.1253 165.03 88.4505 173.181 90.4863C170.52 92.802 167.282 99.1469 161.169 94.1253Z" fill="#355641"/>
<path d="M157.677 99.4285C157.677 99.4285 162.952 110.831 157.053 123.26C157.315 117.245 149.238 113.138 157.677 99.4285Z" fill="#355641"/>
<path d="M164.527 138.183C164.46 138.183 164.386 138.174 164.319 138.141C163.951 137.996 163.75 137.496 163.864 137.038C163.884 136.944 166.149 127.629 165.003 119.51C164.936 119.026 165.184 118.568 165.566 118.483C165.935 118.398 166.304 118.721 166.371 119.196C167.584 127.748 165.291 137.165 165.191 137.564C165.097 137.937 164.822 138.183 164.527 138.183Z" fill="#355641"/>
<path d="M109.16 94.4482C109.16 94.4482 120.642 98.1557 116.949 109.728C113.932 104.578 109.421 106.478 109.16 94.4482Z" fill="#355641"/>
<path d="M101.116 92.2002C101.022 92.2002 100.922 92.1747 100.828 92.1238C100.479 91.9202 100.318 91.4027 100.479 90.9615C102.551 85.1246 102.504 74.6215 102.504 74.5197C102.504 74.0361 102.812 73.6289 103.194 73.6289C103.576 73.6289 103.884 74.0192 103.891 74.5027C103.891 74.9524 103.945 85.4979 101.746 91.6827C101.632 92.0051 101.378 92.2002 101.109 92.2002H101.116Z" fill="#355641"/>
<path d="M113.671 38.794C113.631 38.794 113.59 38.794 113.55 38.777C113.121 38.6837 102.986 36.2149 100.881 17.2194C100.828 16.7358 101.096 16.2947 101.478 16.2268C101.853 16.1504 102.209 16.4898 102.262 16.9819C104.219 34.6454 113.403 36.9615 113.791 37.0463C114.167 37.1312 114.422 37.5893 114.355 38.0729C114.294 38.4971 113.999 38.8025 113.671 38.8025V38.794Z" fill="#355641"/>
<path d="M102.055 86.6348C102.055 86.6348 104.582 94.5842 98.8773 98.0965C96.7994 92.0645 102.055 86.6348 102.055 86.6348Z" fill="#355641"/>
<path d="M78.453 38.7769C78.1849 38.7769 77.9369 38.5817 77.8163 38.2594C77.6554 37.8182 77.8163 37.2922 78.1648 37.0886C98.8237 25.245 98.4215 -4.17717 98.4148 -4.4741C98.4014 -4.95769 98.7098 -5.36491 99.0919 -5.38188C99.4538 -5.44127 99.7957 -5.01707 99.8091 -4.525C99.8158 -4.21958 100.265 26.3649 78.7413 38.7005C78.6474 38.7514 78.5469 38.7769 78.453 38.7769Z" fill="#355641"/>
<path d="M88.4138 38.132C88.3669 38.132 88.3132 38.132 88.2663 38.115C87.8909 38.0132 87.6496 37.5466 87.7301 37.0715L89.426 26.9756C89.5064 26.5005 89.8885 26.1951 90.2504 26.2969C90.6258 26.3987 90.8671 26.8653 90.7867 27.3404L89.0908 37.4363C89.0238 37.852 88.7288 38.132 88.4071 38.132H88.4138Z" fill="#355641"/>
<path d="M89.037 33.3557C89.037 33.3557 93.4744 43.2564 85.9737 47.0318C87.2406 44.1388 81.7038 40.2192 89.037 33.3557Z" fill="#355641"/>
<path d="M83.3395 34.3567C83.3395 34.3567 73.9083 33.3556 72.1521 44.5713C78.3592 45.0379 83.3395 34.3567 83.3395 34.3567Z" fill="#355641"/>
<path d="M160.646 -8.40221C160.646 -8.40221 172.819 -8.65673 171.941 4.07762C168.127 -0.444304 162.322 8.68439 160.646 -8.40221Z" fill="#355641"/>
<path d="M135.738 5.42671C135.738 5.42671 135.684 5.42671 135.664 5.42671C135.282 5.3758 135.007 4.94313 135.047 4.45106C136.2 -9.0129 127.566 -17.3186 127.479 -17.4035C127.171 -17.6919 127.104 -18.2519 127.332 -18.6421C127.566 -19.0324 127.996 -19.1172 128.304 -18.8203C128.686 -18.464 137.668 -9.85281 136.428 4.6377C136.388 5.08735 136.086 5.42671 135.738 5.42671Z" fill="#355641"/>
<path d="M135.51 -2.79419C135.51 -2.79419 140.839 4.96859 134.31 11.4673C134.605 6.58901 131.448 4.26442 135.51 -2.79419Z" fill="#355641"/>
<path d="M185.106 68.4111C133.11 68.4111 120.951 -5.90794 120.83 -6.67998C120.756 -7.15508 121.004 -7.62169 121.38 -7.71501C121.755 -7.80834 122.124 -7.49443 122.197 -7.01933C122.318 -6.23881 134.906 70.6763 189.382 66.4853C189.764 66.4513 190.1 66.8246 190.12 67.3167C190.146 67.8003 189.852 68.2245 189.469 68.2499C187.988 68.3602 186.534 68.4196 185.112 68.4196L185.106 68.4111Z" fill="#355641"/>
<path d="M176.056 67.0538C176.056 67.0538 189.349 56.627 196.327 65.2212C191.936 68.4366 185.072 75.0456 176.056 67.0538Z" fill="#355641"/>
<path d="M85.7258 -27.3381C85.7258 -27.3381 86.014 65.9085 0 53.4966C22.2878 52.1985 -2.13828 -17.5901 85.7258 -27.3381Z" fill="#95AF9E"/>
<path d="M41.4855 18.6106C41.2509 18.6106 41.0163 18.4579 40.8889 18.178C40.6878 17.7622 40.7951 17.2193 41.1303 16.9648C88.0183 -18.6592 85.3237 -43.2965 85.2902 -43.5425C85.2231 -44.0176 85.4779 -44.4757 85.8532 -44.5606C86.2353 -44.6539 86.5906 -44.3315 86.6576 -43.8479C86.8051 -42.8044 89.7276 -17.9041 41.8408 18.4749C41.7268 18.5597 41.6062 18.6022 41.4788 18.6022L41.4855 18.6106Z" fill="#536959"/>
<path d="M68.4319 120.316C68.4319 120.316 55.1933 119.73 53.7991 134.136C58.2097 132.957 67.0444 132.957 68.4319 120.316Z" fill="#355641"/>
<path d="M78.3054 107.819C78.3054 107.819 68.8943 100.981 62.2783 109.142C65.5896 108.701 74.3037 114.877 78.3054 107.819Z" fill="#355641"/>
<path d="M78.0306 84.5645C75.2153 84.5645 72.0582 84.013 68.5726 82.6386C68.2039 82.4944 67.9961 82.0023 68.1101 81.5357C68.224 81.0691 68.6128 80.8146 68.9815 80.9588C85.8263 87.5932 94.1315 74.6043 94.48 74.0529C94.7213 73.6711 95.157 73.6033 95.4587 73.9002C95.7603 74.1971 95.8139 74.7571 95.5793 75.1388C95.5056 75.2576 89.5935 84.5645 78.0306 84.5645Z" fill="#355641"/>
<path d="M160.19 138.59C160.338 141.084 162.061 142.968 164.038 142.781C166.015 142.595 167.497 140.414 167.349 137.92C167.202 135.426 165.479 133.542 163.502 133.729C161.524 133.915 160.043 136.096 160.19 138.59Z" fill="#BEAA8E"/>
<path d="M165.439 147.201C165.586 149.704 167.309 151.579 169.286 151.392C171.257 151.206 172.738 149.025 172.591 146.531C172.444 144.037 170.728 142.153 168.75 142.34C166.779 142.527 165.291 144.707 165.439 147.201Z" fill="#BEAA8E"/>
<path d="M159.554 146.013C159.701 148.508 161.424 150.391 163.395 150.205C165.372 150.018 166.853 147.837 166.706 145.343C166.558 142.849 164.842 140.966 162.858 141.152C160.888 141.339 159.399 143.519 159.547 146.013H159.554Z" fill="#BEAA8E"/>
<path d="M151.751 140.745C151.899 143.239 153.615 145.114 155.592 144.928C157.569 144.741 159.051 142.561 158.903 140.066C158.756 137.572 157.04 135.689 155.062 135.875C153.085 136.062 151.604 138.242 151.751 140.737V140.745Z" fill="#BEAA8E"/>
<path d="M159.48 155.931C159.627 158.425 161.35 160.309 163.321 160.122C165.298 159.936 166.779 157.755 166.632 155.261C166.485 152.767 164.769 150.883 162.784 151.07C160.814 151.257 159.332 153.437 159.473 155.931H159.48Z" fill="#BEAA8E"/>
<path d="M153.44 149.526C153.588 152.02 155.31 153.904 157.281 153.717C159.259 153.53 160.74 151.35 160.592 148.856C160.445 146.361 158.729 144.478 156.745 144.665C154.774 144.851 153.293 147.032 153.44 149.534V149.526Z" fill="#BEAA8E"/>
<path d="M109.126 36.4013C109.515 39.1841 111.613 41.042 113.812 40.55C116.01 40.0579 117.478 37.4024 117.09 34.6197C116.701 31.837 114.603 29.979 112.404 30.4711C110.206 30.9631 108.738 33.6186 109.126 36.4013Z" fill="#BEAA8E"/>
<path d="M106.096 47.2437C106.485 50.0264 108.583 51.8844 110.782 51.3923C112.98 50.9003 114.448 48.2448 114.06 45.4705C113.671 42.6878 111.58 40.8298 109.374 41.3219C107.182 41.814 105.708 44.4694 106.096 47.2522V47.2437Z" fill="#BEAA8E"/>
<path d="M114.107 44.5713C114.495 47.354 116.593 49.212 118.792 48.7199C120.991 48.2279 122.459 45.5724 122.07 42.7982C121.681 40.0155 119.59 38.1575 117.384 38.6495C115.193 39.1416 113.718 41.7971 114.107 44.5798V44.5713Z" fill="#BEAA8E"/>
<path d="M116.882 36.8762C117.27 39.659 119.368 41.517 121.56 41.0249C123.766 40.5328 125.227 37.8774 124.838 35.1031C124.449 32.3204 122.358 30.4624 120.153 30.9545C117.954 31.4465 116.486 34.102 116.875 36.8762H116.882Z" fill="#BEAA8E"/>
<path d="M120.247 48.5078C120.635 51.2905 122.733 53.1485 124.925 52.6564C127.124 52.1643 128.592 49.5089 128.203 46.7262C127.814 43.9434 125.723 42.0855 123.518 42.5775C121.319 43.0696 119.851 45.7251 120.24 48.4993L120.247 48.5078Z" fill="#BEAA8E"/>
<path d="M61.8963 81.7649C62.2784 84.5222 64.3564 86.3632 66.5282 85.8712C68.7067 85.3876 70.1545 82.7576 69.7792 80.0088C69.3971 77.26 67.3191 75.419 65.1406 75.9026C62.9621 76.3861 61.5143 79.0161 61.8963 81.7649Z" fill="#BEAA8E"/>
<path d="M66.2131 91.5384C66.5952 94.2872 68.6731 96.1367 70.8449 95.6446C73.0234 95.161 74.4713 92.531 74.0892 89.7822C73.7072 87.025 71.6292 85.184 69.4507 85.676C67.2722 86.1596 65.8243 88.7896 66.2064 91.5469L66.2131 91.5384Z" fill="#BEAA8E"/>
<path d="M67.8017 79.1858C68.1838 81.9431 70.2618 83.7841 72.4336 83.2921C74.6121 82.8085 76.0599 80.1785 75.6779 77.4297C75.2958 74.6809 73.2178 72.8399 71.046 73.3235C68.8675 73.807 67.4197 76.4371 67.8017 79.1858Z" fill="#BEAA8E"/>
<path d="M56.0377 90.0028C56.4198 92.7515 58.4977 94.5926 60.6695 94.109C62.848 93.6254 64.2959 90.9954 63.9138 88.2466C63.5318 85.4893 61.4538 83.6483 59.282 84.1404C57.1035 84.624 55.6556 87.254 56.0377 90.0028Z" fill="#BEAA8E"/>
</svg>
