<svg width="399" height="598" viewBox="0 0 399 598" fill="none" xmlns="http://www.w3.org/2000/svg">
<path d="M171.269 483.974C171.269 483.974 306.548 374.231 399 513.281C360.209 504.482 278.87 577.295 171.269 483.974Z" fill="#95AF9E"/>
<path d="M94.3889 125.353C94.3889 125.353 57.3445 22.4219 148.183 0.75293C128.801 18.3231 171.931 81.4274 94.3889 125.353Z" fill="#95AF9E"/>
<path d="M125.625 403.384C125.625 403.384 106.071 247.77 -25 320.709C9.49101 331.648 -21.5469 425.263 125.625 403.384Z" fill="#95AF9E"/>
<path d="M121.048 252.135C121.048 252.135 126.551 169.222 214.585 191.045C188.455 192.5 215.961 267.411 121.048 252.135Z" fill="#95AF9E"/>
<path d="M79.4917 568.748L77.0574 567.391C77.2823 566.943 99.8529 521.94 138.313 481.246C173.929 443.574 230.818 401.957 299.694 417.709L299.112 420.548C169.51 390.948 80.3781 566.957 79.4917 568.734V568.748Z" fill="#355641"/>
<path d="M152.998 470.321L150.961 468.376C191.273 421.248 187.741 299.977 187.701 298.76L190.453 298.662C190.625 303.684 194.065 422.339 153.012 470.321H152.998Z" fill="#355641"/>
<path d="M258.046 417.541L257.755 414.645C264.926 413.833 270.826 409.245 276.039 405.202C279.743 402.335 282.945 399.858 286.014 399.187L286.557 402.041C284.07 402.572 281.093 404.88 277.653 407.538C272.427 411.581 265.931 416.617 258.033 417.527L258.046 417.541Z" fill="#355641"/>
<path d="M188.257 323.465C187.913 323.171 179.962 316.204 178.48 309.993L181.139 309.28C182.184 313.672 187.886 319.394 190.003 321.212L188.257 323.465Z" fill="#355641"/>
<path d="M177.646 407.356C176.297 399.411 173.003 391.395 169.814 383.631C166.467 375.476 163.305 367.768 162.392 360.409L165.117 360.032C165.977 366.97 169.06 374.496 172.328 382.47C175.569 390.388 178.93 398.557 180.345 406.839L177.633 407.356H177.646Z" fill="#355641"/>
<path d="M289.309 417.722C289.309 417.722 296.215 430.55 306.085 429.795C315.941 429.039 323.509 429.263 323.509 429.263C323.509 429.263 310.146 405.3 289.322 417.722H289.309Z" fill="#355641"/>
<path d="M279.651 404.167C279.651 404.167 294.336 408.252 298.199 399.271C302.076 390.29 310.08 382.75 310.08 382.75C310.08 382.75 278.923 391.311 279.638 404.167H279.651Z" fill="#355641"/>
<path d="M167.234 373.182C167.234 373.182 174.299 353.289 161.678 345.805C161.691 352.59 156.663 358.423 159.203 365.208C161.744 371.993 167.247 373.196 167.247 373.196L167.234 373.182Z" fill="#355641"/>
<path d="M189.553 306.706C189.553 306.706 199.833 290.437 190.175 280.029C183.547 287.317 187.013 298.466 189.553 306.706Z" fill="#355641"/>
<path d="M182.224 314.246C182.224 314.246 184.261 301.88 173.479 297.053C172.579 305.293 176.72 311.588 182.224 314.246Z" fill="#355641"/>
<path d="M197.571 437.195L196.341 434.593C212.349 426.088 235.634 392.598 235.872 392.263L238.095 393.983C237.129 395.382 214.175 428.368 197.571 437.195Z" fill="#414141"/>
<path d="M230.805 402.586C230.805 402.586 245.914 395.032 244.287 382.68C232.379 384.652 230.805 402.586 230.805 402.586Z" fill="#355641"/>
<path d="M11.4492 597.089C10.9597 597.089 10.4834 596.81 10.232 596.32C9.87479 595.607 10.1262 594.739 10.7877 594.347C132.677 525.102 168.57 418.38 109.273 301.544C59.9641 204.377 91.0418 110.035 125.811 47.9936C126.194 47.3082 127.041 47.0704 127.689 47.4901C128.351 47.8957 128.562 48.791 128.179 49.4765C93.7804 110.86 62.9939 204.181 111.694 300.159C140.814 357.528 147.27 414.841 130.349 465.887C113.308 517.324 72.4137 562.62 12.0842 596.893C11.8725 597.005 11.6476 597.061 11.4359 597.061L11.4492 597.089Z" fill="#536959"/>
<path d="M105.912 513.575C105.515 513.575 105.132 513.393 104.854 513.057C104.364 512.442 104.444 511.519 105.026 511.015C105.568 510.539 159.508 463.886 246.496 482.701C247.237 482.869 247.713 483.639 247.568 484.422C247.409 485.205 246.668 485.709 245.94 485.555C160.222 466.992 107.315 512.778 106.786 513.239C106.534 513.463 106.217 513.575 105.899 513.575H105.912Z" fill="#536959"/>
<path d="M134.119 447.757H134.066C133.312 447.729 132.717 447.057 132.743 446.246C132.77 445.477 134.476 369.097 55.2277 337.845C54.5133 337.566 54.1561 336.726 54.4207 335.971C54.6853 335.216 55.4791 334.838 56.1935 335.118C137.347 367.11 135.522 445.561 135.495 446.344C135.469 447.127 134.86 447.743 134.119 447.743V447.757Z" fill="#536959"/>
<path d="M119.672 322.681C119.05 322.681 118.494 322.248 118.335 321.576C118.137 320.723 98.7813 235.726 156.915 207.188C157.603 206.839 158.423 207.16 158.74 207.888C159.058 208.615 158.767 209.482 158.079 209.818C102.009 237.349 120.809 320.037 121.008 320.877C121.193 321.66 120.743 322.444 120.002 322.639C119.897 322.667 119.778 322.681 119.672 322.681Z" fill="#536959"/>
<path d="M8.69714 574.791C8.69714 574.791 86.1862 524.361 56.3919 446.302L8.69714 574.791Z" fill="white"/>
<path d="M8.71042 576.246C8.24736 576.246 7.79754 576.008 7.53294 575.546C7.13603 574.861 7.33448 573.965 7.98276 573.546C8.75011 573.042 84.1355 522.85 55.1086 446.848C54.8307 446.106 55.1615 445.253 55.8759 444.959C56.5771 444.665 57.3842 445.015 57.662 445.756C87.5621 524.053 10.2054 575.518 9.42485 576.022C9.19994 576.176 8.94856 576.232 8.71042 576.232V576.246Z" fill="#355641"/>
<path d="M87.1125 474.434C87.1125 474.434 73.3531 472.979 59.1439 509.336L87.1125 474.434Z" fill="white"/>
<path d="M59.1438 510.791C58.9718 510.791 58.7866 510.763 58.6146 510.679C57.9134 510.371 57.5827 509.518 57.8737 508.777C72.3078 471.832 86.6625 472.895 87.2447 472.979C87.9988 473.063 88.5544 473.776 88.4751 474.574C88.3957 475.371 87.721 475.945 86.9933 475.875C86.7816 475.889 73.8954 475.413 60.4139 509.896C60.2022 510.455 59.6863 510.791 59.1438 510.791Z" fill="#355641"/>
<path d="M61.4326 465.705C61.4326 465.705 67.8492 429.823 34.84 424.983C44.0085 441.462 43.0956 462.319 61.4326 465.705Z" fill="#355641"/>
<path d="M214.929 350.31C214.929 350.31 209.769 396.123 175.04 424.493L214.929 350.31Z" fill="white"/>
<path d="M175.04 425.948C174.63 425.948 174.22 425.752 173.955 425.389C173.492 424.745 173.598 423.836 174.206 423.346C208.062 395.704 213.526 350.603 213.579 350.142C213.672 349.344 214.373 348.771 215.114 348.869C215.868 348.967 216.411 349.68 216.318 350.478C216.265 350.939 210.695 397.229 175.9 425.64C175.648 425.85 175.357 425.948 175.053 425.948H175.04Z" fill="#355641"/>
<path d="M76.7927 479.274C76.7927 479.274 92.1529 458.179 114.393 469.818C100.409 480.729 76.7927 479.274 76.7927 479.274Z" fill="#355641"/>
<path d="M116.364 340.769C115.888 339.748 68.3652 238.873 -5.64429 231.767L-5.39291 228.871C70.1645 236.131 118.349 338.461 118.838 339.496L116.364 340.769Z" fill="#355641"/>
<path d="M57.2123 261.493C35.2502 213.595 44.6304 167.907 44.723 167.446L47.4087 168.089C47.3161 168.537 38.1608 213.273 59.6863 260.221L57.2123 261.493Z" fill="#355641"/>
<path d="M44.4717 189.828C44.4717 189.828 60.07 167.04 50.4385 150.071C36.2161 160.731 36.6791 177.7 44.4717 189.828Z" fill="#355641"/>
<path d="M48.1363 236.425C48.1098 235.796 47.7923 221.037 60.1096 210.518L61.8427 212.784C50.6235 222.366 50.8882 236.187 50.8882 236.327L48.1363 236.425Z" fill="#355641"/>
<path d="M61.4325 464.74C61.4325 464.74 65.9837 442.763 84.8234 446.876C80.2722 452.709 78.3274 463.355 61.4325 464.74Z" fill="#355641"/>
<path d="M74.279 275.65C74.279 275.65 58.2308 262.081 41.2698 272.741C54.5661 276.616 58.2308 287.779 74.279 275.65Z" fill="#355641"/>
<path d="M238.651 420.129C238.651 420.129 252.754 417.219 261.009 429.949C245.874 432.131 242.09 427.403 238.651 420.129Z" fill="#355641"/>
<path d="M149.731 470.531C149.731 470.531 163.503 454.36 183.309 461.41C167.763 477.693 159.587 475.721 149.731 470.531Z" fill="#355641"/>
<path d="M202.201 390.304C202.201 390.304 205.985 372.118 199.106 363.753C195.666 370.663 190.162 387.394 202.201 390.304Z" fill="#355641"/>
<path d="M198.021 595.159C197.571 594.851 153.316 564.229 163.027 514.372L165.713 514.96C156.385 562.886 199.066 592.417 199.502 592.711L198.021 595.159Z" fill="#355641"/>
<path d="M183.256 582.499C163.172 556.423 184.764 528.208 184.976 527.928L187.093 529.774C186.246 530.851 166.731 556.437 185.373 580.652L183.243 582.485L183.256 582.499Z" fill="#414141"/>
<path d="M164.985 576.623C141.25 542.7 120.638 542.588 120.373 542.672L120.333 539.762C121.246 539.818 142.653 539.79 167.194 574.903L164.985 576.623Z" fill="#414141"/>
<path d="M179.049 543.274C179.049 543.274 176.072 525.088 193.258 523.885C193.033 528.977 190.281 537.216 179.049 543.274Z" fill="#355641"/>
<path d="M153.369 559.655C153.369 559.655 137.4 552.227 145.96 536.405C149.837 539.427 154.811 546.407 153.369 559.655Z" fill="#414141"/>
<path d="M140.536 549.569C140.536 549.569 128.377 527.746 109.815 540.602C116.007 543.749 116.92 555.388 140.536 549.569Z" fill="#414141"/>
<path d="M211.185 329.928C211.185 333.691 208.301 336.74 204.742 336.74C201.183 336.74 198.299 333.691 198.299 329.928C198.299 326.165 201.196 323.115 204.742 323.115C208.287 323.115 211.185 326.165 211.185 329.928Z" fill="#BEAA8E"/>
<path d="M222.391 321.758C222.391 325.521 219.506 328.571 215.948 328.571C212.389 328.571 209.504 325.521 209.504 321.758C209.504 317.995 212.389 314.946 215.948 314.946C219.506 314.946 222.391 317.995 222.391 321.758Z" fill="#BEAA8E"/>
<path d="M233.319 335.537C233.319 339.3 230.435 342.35 226.876 342.35C223.317 342.35 220.433 339.3 220.433 335.537C220.433 331.774 223.317 328.725 226.876 328.725C230.435 328.725 233.319 331.788 233.319 335.537Z" fill="#BEAA8E"/>
<path d="M222.391 344.183C222.391 347.946 219.507 350.995 215.948 350.995C212.389 350.995 209.505 347.932 209.505 344.183C209.505 340.433 212.389 337.37 215.948 337.37C219.507 337.37 222.391 340.419 222.391 344.183Z" fill="#BEAA8E"/>
<path d="M227.511 357.346C227.511 361.109 224.627 364.159 221.068 364.159C217.509 364.159 214.625 361.109 214.625 357.346C214.625 353.583 217.509 350.533 221.068 350.533C224.627 350.533 227.511 353.583 227.511 357.346Z" fill="#BEAA8E"/>
<path d="M211.463 349.792C211.463 353.555 208.578 356.605 205.019 356.605C201.461 356.605 198.576 353.555 198.576 349.792C198.576 346.029 201.461 342.979 205.019 342.979C208.578 342.979 211.463 346.043 211.463 349.792Z" fill="#BEAA8E"/>
<path d="M67.267 212.714C67.267 216.491 64.3564 219.582 60.771 219.582C57.1856 219.582 54.2882 216.505 54.2882 212.714C54.2882 208.923 57.1856 205.845 60.771 205.845C64.3564 205.845 67.267 208.923 67.267 212.714Z" fill="#BEAA8E"/>
<path d="M64.8855 228.102C64.8855 231.879 61.9749 234.97 58.3895 234.97C54.8041 234.97 51.9067 231.893 51.9067 228.102C51.9067 224.311 54.8041 221.233 58.3895 221.233C61.9749 221.233 64.8855 224.311 64.8855 228.102Z" fill="#BEAA8E"/>
<path d="M56.0478 203.565C56.0478 207.356 53.1372 210.434 49.5518 210.434C45.9664 210.434 43.0558 207.356 43.0558 203.565C43.0558 199.774 45.9532 196.697 49.5518 196.697C53.1504 196.697 56.0478 199.774 56.0478 203.565Z" fill="#BEAA8E"/>
<path d="M70.4026 195.983C70.4026 199.774 67.4919 202.838 63.9065 202.838C60.3212 202.838 57.4238 199.76 57.4238 195.983C57.4238 192.206 60.3212 189.115 63.9065 189.115C67.4919 189.115 70.4026 192.192 70.4026 195.983Z" fill="#BEAA8E"/>
<path d="M159.018 521.675C159.018 524.976 156.478 527.662 153.356 527.662C150.233 527.662 147.693 524.976 147.693 521.675C147.693 518.373 150.22 515.688 153.356 515.688C156.491 515.688 159.018 518.373 159.018 521.675Z" fill="#BEAA8E"/>
<path d="M181.681 505.881C181.681 509.183 179.141 511.868 176.019 511.868C172.897 511.868 170.356 509.183 170.356 505.881C170.356 502.58 172.883 499.894 176.019 499.894C179.154 499.894 181.681 502.58 181.681 505.881Z" fill="#BEAA8E"/>
<path d="M158.052 507.406C158.052 510.707 155.512 513.393 152.39 513.393C149.268 513.393 146.727 510.707 146.727 507.406C146.727 504.105 149.254 501.419 152.39 501.419C155.525 501.419 158.052 504.105 158.052 507.406Z" fill="#BEAA8E"/>
<path d="M169.139 495.683C169.139 498.985 166.599 501.67 163.477 501.67C160.355 501.67 157.814 498.985 157.814 495.683C157.814 492.382 160.341 489.696 163.477 489.696C166.612 489.696 169.139 492.382 169.139 495.683Z" fill="#BEAA8E"/>
<path d="M170.105 513.533C170.105 516.835 167.565 519.52 164.443 519.52C161.32 519.52 158.78 516.835 158.78 513.533C158.78 510.232 161.307 507.546 164.443 507.546C167.578 507.546 170.105 510.232 170.105 513.533Z" fill="#BEAA8E"/>
</svg>
