<svg width="261" height="217" viewBox="0 0 261 217" fill="none" xmlns="http://www.w3.org/2000/svg">
<path d="M81.5054 21.6035H79.9058L80.3892 12.8145H81.022L81.5054 21.6035ZM81.3823 9V10.3535H80.0288V9H81.3823ZM87.0864 6.47754V18H85.9526V6.47754H82.9468V5.39648H90.0923V6.47754H87.0864ZM96.8335 15.5303C96.8335 15.8936 96.7632 16.2363 96.6226 16.5586C96.4878 16.8809 96.3003 17.1621 96.0601 17.4023C95.8198 17.6426 95.5386 17.833 95.2163 17.9736C94.894 18.1084 94.5513 18.1758 94.188 18.1758H93.4673C93.104 18.1758 92.7612 18.1084 92.439 17.9736C92.1167 17.833 91.8354 17.6426 91.5952 17.4023C91.355 17.1621 91.1646 16.8809 91.0239 16.5586C90.8892 16.2363 90.8218 15.8936 90.8218 15.5303V11.4697C90.8218 11.1064 90.8892 10.7637 91.0239 10.4414C91.1646 10.1191 91.355 9.83789 91.5952 9.59766C91.8354 9.35742 92.1167 9.16992 92.439 9.03516C92.7612 8.89453 93.104 8.82422 93.4673 8.82422H94.188C94.5513 8.82422 94.894 8.89453 95.2163 9.03516C95.5386 9.16992 95.8198 9.35742 96.0601 9.59766C96.3003 9.83789 96.4878 10.1191 96.6226 10.4414C96.7632 10.7637 96.8335 11.1064 96.8335 11.4697V13.5879H91.9028V15.5918C91.9028 15.8086 91.9438 16.0137 92.0259 16.207C92.1079 16.3945 92.2192 16.5586 92.3599 16.6992C92.5005 16.8398 92.6646 16.9512 92.8521 17.0332C93.0454 17.1152 93.2505 17.1562 93.4673 17.1562H94.188C94.4048 17.1562 94.6069 17.1152 94.7944 17.0332C94.9878 16.9512 95.1548 16.8398 95.2954 16.6992C95.436 16.5586 95.5474 16.3945 95.6294 16.207C95.7114 16.0137 95.7524 15.8086 95.7524 15.5918V14.9941L96.8335 15.1699V15.5303ZM95.7524 11.4082C95.7524 11.1914 95.7114 10.9893 95.6294 10.8018C95.5474 10.6084 95.436 10.4414 95.2954 10.3008C95.1548 10.1602 94.9878 10.0488 94.7944 9.9668C94.6069 9.88477 94.4048 9.84375 94.188 9.84375H93.4673C93.2505 9.84375 93.0454 9.88477 92.8521 9.9668C92.6646 10.0488 92.5005 10.1602 92.3599 10.3008C92.2192 10.4414 92.1079 10.6084 92.0259 10.8018C91.9438 10.9893 91.9028 11.1914 91.9028 11.4082V12.7441H95.7524V11.4082ZM109.156 15.5303C109.156 15.8936 109.085 16.2363 108.945 16.5586C108.81 16.8809 108.623 17.1621 108.382 17.4023C108.142 17.6426 107.861 17.833 107.539 17.9736C107.216 18.1084 106.874 18.1758 106.51 18.1758H105.79C105.426 18.1758 105.083 18.1084 104.761 17.9736C104.439 17.833 104.158 17.6426 103.917 17.4023C103.677 17.1621 103.487 16.8809 103.346 16.5586C103.211 16.2363 103.144 15.8936 103.144 15.5303V11.4697C103.144 11.1064 103.211 10.7637 103.346 10.4414C103.487 10.1191 103.677 9.83789 103.917 9.59766C104.158 9.35742 104.439 9.16992 104.761 9.03516C105.083 8.89453 105.426 8.82422 105.79 8.82422H106.51C106.874 8.82422 107.216 8.89453 107.539 9.03516C107.861 9.16992 108.142 9.35742 108.382 9.59766C108.623 9.83789 108.81 10.1191 108.945 10.4414C109.085 10.7637 109.156 11.1064 109.156 11.4697V13.5879H104.225V15.5918C104.225 15.8086 104.266 16.0137 104.348 16.207C104.43 16.3945 104.542 16.5586 104.682 16.6992C104.823 16.8398 104.987 16.9512 105.174 17.0332C105.368 17.1152 105.573 17.1562 105.79 17.1562H106.51C106.727 17.1562 106.929 17.1152 107.117 17.0332C107.31 16.9512 107.477 16.8398 107.618 16.6992C107.758 16.5586 107.87 16.3945 107.952 16.207C108.034 16.0137 108.075 15.8086 108.075 15.5918V14.9941L109.156 15.1699V15.5303ZM108.075 11.4082C108.075 11.1914 108.034 10.9893 107.952 10.8018C107.87 10.6084 107.758 10.4414 107.618 10.3008C107.477 10.1602 107.31 10.0488 107.117 9.9668C106.929 9.88477 106.727 9.84375 106.51 9.84375H105.79C105.573 9.84375 105.368 9.88477 105.174 9.9668C104.987 10.0488 104.823 10.1602 104.682 10.3008C104.542 10.4414 104.43 10.6084 104.348 10.8018C104.266 10.9893 104.225 11.1914 104.225 11.4082V12.7441H108.075V11.4082ZM117.505 15.7148C117.505 16.0781 117.432 16.4121 117.286 16.7168C117.139 17.0156 116.94 17.2734 116.688 17.4902C116.436 17.707 116.143 17.877 115.809 18C115.481 18.1172 115.135 18.1758 114.772 18.1758H114.051C113.688 18.1758 113.339 18.1084 113.005 17.9736C112.677 17.833 112.387 17.6426 112.135 17.4023C111.889 17.1621 111.69 16.8809 111.538 16.5586C111.391 16.2363 111.318 15.8936 111.318 15.5303V15.1699L112.399 14.9941V15.5918C112.399 15.8086 112.443 16.0137 112.531 16.207C112.625 16.3945 112.748 16.5586 112.9 16.6992C113.052 16.8398 113.228 16.9512 113.427 17.0332C113.626 17.1152 113.834 17.1562 114.051 17.1562H114.772C114.989 17.1562 115.197 17.124 115.396 17.0596C115.595 16.9951 115.771 16.9043 115.923 16.7871C116.082 16.6641 116.205 16.5176 116.292 16.3477C116.386 16.1777 116.433 15.9844 116.433 15.7676C116.433 15.4453 116.363 15.1816 116.222 14.9766C116.082 14.7715 115.894 14.6016 115.66 14.4668C115.431 14.3262 115.167 14.2119 114.869 14.124C114.576 14.0303 114.274 13.9395 113.963 13.8516C113.653 13.7578 113.348 13.6523 113.049 13.5352C112.756 13.418 112.493 13.2656 112.258 13.0781C112.03 12.8848 111.845 12.6445 111.705 12.3574C111.564 12.0703 111.494 11.7129 111.494 11.2852C111.494 10.9219 111.564 10.5908 111.705 10.292C111.845 9.9873 112.036 9.72656 112.276 9.50977C112.516 9.29297 112.794 9.12598 113.111 9.00879C113.433 8.88574 113.776 8.82422 114.139 8.82422H114.772C115.135 8.82422 115.478 8.89453 115.8 9.03516C116.123 9.16992 116.404 9.35742 116.644 9.59766C116.884 9.83789 117.072 10.1191 117.207 10.4414C117.347 10.7637 117.417 11.1064 117.417 11.4697V11.5049L116.336 11.6807V11.4082C116.336 11.1914 116.295 10.9893 116.213 10.8018C116.131 10.6084 116.02 10.4414 115.879 10.3008C115.739 10.1602 115.572 10.0488 115.378 9.9668C115.191 9.88477 114.989 9.84375 114.772 9.84375H114.139C113.922 9.84375 113.717 9.87598 113.524 9.94043C113.336 10.0049 113.172 10.0986 113.032 10.2217C112.891 10.3389 112.78 10.4824 112.698 10.6523C112.616 10.8223 112.575 11.0156 112.575 11.2324C112.575 11.543 112.645 11.7979 112.786 11.9971C112.926 12.1904 113.111 12.3545 113.339 12.4893C113.574 12.624 113.837 12.7383 114.13 12.832C114.429 12.9199 114.731 13.0137 115.036 13.1133C115.346 13.207 115.648 13.3154 115.941 13.4385C116.24 13.5615 116.503 13.7197 116.732 13.9131C116.966 14.1064 117.154 14.3496 117.294 14.6426C117.435 14.9297 117.505 15.2871 117.505 15.7148ZM125.591 15.5303C125.591 15.8936 125.521 16.2363 125.38 16.5586C125.246 16.8809 125.058 17.1621 124.818 17.4023C124.578 17.6426 124.296 17.833 123.974 17.9736C123.652 18.1084 123.309 18.1758 122.946 18.1758H122.673C122.269 18.1758 121.894 18.0938 121.548 17.9297C121.203 17.7656 120.907 17.5371 120.661 17.2441V21.6035H119.58V9H119.94L120.529 9.91406C120.775 9.58008 121.083 9.31641 121.452 9.12305C121.827 8.92383 122.234 8.82422 122.673 8.82422H122.946C123.309 8.82422 123.652 8.89453 123.974 9.03516C124.296 9.16992 124.578 9.35742 124.818 9.59766C125.058 9.83789 125.246 10.1191 125.38 10.4414C125.521 10.7637 125.591 11.1064 125.591 11.4697V15.5303ZM124.51 11.4082C124.51 11.1914 124.469 10.9893 124.387 10.8018C124.305 10.6084 124.194 10.4414 124.053 10.3008C123.913 10.1602 123.746 10.0488 123.552 9.9668C123.365 9.88477 123.163 9.84375 122.946 9.84375H122.225C122.008 9.84375 121.803 9.88477 121.61 9.9668C121.422 10.0488 121.258 10.1602 121.118 10.3008C120.977 10.4414 120.866 10.6084 120.784 10.8018C120.702 10.9893 120.661 11.1914 120.661 11.4082V15.5918C120.661 15.8086 120.702 16.0137 120.784 16.207C120.866 16.3945 120.977 16.5586 121.118 16.6992C121.258 16.8398 121.422 16.9512 121.61 17.0332C121.803 17.1152 122.008 17.1562 122.225 17.1562H122.946C123.163 17.1562 123.365 17.1152 123.552 17.0332C123.746 16.9512 123.913 16.8398 124.053 16.6992C124.194 16.5586 124.305 16.3945 124.387 16.207C124.469 16.0137 124.51 15.8086 124.51 15.5918V11.4082ZM133.765 15.5303C133.765 15.8936 133.695 16.2363 133.554 16.5586C133.419 16.8809 133.232 17.1621 132.992 17.4023C132.751 17.6426 132.47 17.833 132.148 17.9736C131.826 18.1084 131.483 18.1758 131.12 18.1758H130.399C130.036 18.1758 129.693 18.1084 129.371 17.9736C129.048 17.833 128.767 17.6426 128.527 17.4023C128.287 17.1621 128.096 16.8809 127.956 16.5586C127.821 16.2363 127.753 15.8936 127.753 15.5303V11.4697C127.753 11.1064 127.821 10.7637 127.956 10.4414C128.096 10.1191 128.287 9.83789 128.527 9.59766C128.767 9.35742 129.048 9.16992 129.371 9.03516C129.693 8.89453 130.036 8.82422 130.399 8.82422H131.12C131.483 8.82422 131.826 8.89453 132.148 9.03516C132.47 9.16992 132.751 9.35742 132.992 9.59766C133.232 9.83789 133.419 10.1191 133.554 10.4414C133.695 10.7637 133.765 11.1064 133.765 11.4697V13.5879H128.834V15.5918C128.834 15.8086 128.875 16.0137 128.958 16.207C129.04 16.3945 129.151 16.5586 129.292 16.6992C129.432 16.8398 129.596 16.9512 129.784 17.0332C129.977 17.1152 130.182 17.1562 130.399 17.1562H131.12C131.336 17.1562 131.539 17.1152 131.726 17.0332C131.919 16.9512 132.086 16.8398 132.227 16.6992C132.368 16.5586 132.479 16.3945 132.561 16.207C132.643 16.0137 132.684 15.8086 132.684 15.5918V14.9941L133.765 15.1699V15.5303ZM132.684 11.4082C132.684 11.1914 132.643 10.9893 132.561 10.8018C132.479 10.6084 132.368 10.4414 132.227 10.3008C132.086 10.1602 131.919 10.0488 131.726 9.9668C131.539 9.88477 131.336 9.84375 131.12 9.84375H130.399C130.182 9.84375 129.977 9.88477 129.784 9.9668C129.596 10.0488 129.432 10.1602 129.292 10.3008C129.151 10.4414 129.04 10.6084 128.958 10.8018C128.875 10.9893 128.834 11.1914 128.834 11.4082V12.7441H132.684V11.4082ZM138.573 10.0283C138.356 10.0283 138.151 10.0693 137.958 10.1514C137.77 10.2334 137.606 10.3447 137.465 10.4854C137.325 10.626 137.213 10.793 137.131 10.9863C137.049 11.1738 137.008 11.376 137.008 11.5928V18H135.927V9H136.288L136.876 9.91406C137.123 9.58008 137.43 9.31641 137.799 9.12305C138.174 8.92383 138.582 8.82422 139.021 8.82422H139.654V10.0283H138.573ZM146.747 18L146.149 17.1035C145.903 17.4258 145.595 17.6865 145.226 17.8857C144.857 18.0791 144.453 18.1758 144.013 18.1758H143.741C143.377 18.1758 143.035 18.1084 142.712 17.9736C142.39 17.833 142.109 17.6426 141.869 17.4023C141.628 17.1621 141.438 16.8809 141.297 16.5586C141.163 16.2363 141.095 15.8936 141.095 15.5303V15.4424C141.095 15.0791 141.163 14.7363 141.297 14.4141C141.438 14.0918 141.628 13.8105 141.869 13.5703C142.109 13.3301 142.39 13.1426 142.712 13.0078C143.035 12.8672 143.377 12.7969 143.741 12.7969H146.026V11.4082C146.026 11.1914 145.985 10.9893 145.903 10.8018C145.821 10.6084 145.709 10.4414 145.569 10.3008C145.428 10.1602 145.261 10.0488 145.068 9.9668C144.88 9.88477 144.678 9.84375 144.461 9.84375H143.829C143.612 9.84375 143.407 9.88477 143.213 9.9668C143.026 10.0488 142.862 10.1602 142.721 10.3008C142.581 10.4414 142.469 10.6084 142.387 10.8018C142.305 10.9893 142.264 11.1914 142.264 11.4082V11.7334L141.183 11.5576V11.4697C141.183 11.1064 141.25 10.7637 141.385 10.4414C141.526 10.1191 141.716 9.83789 141.957 9.59766C142.197 9.35742 142.478 9.16992 142.8 9.03516C143.123 8.89453 143.465 8.82422 143.829 8.82422H144.461C144.825 8.82422 145.167 8.89453 145.49 9.03516C145.812 9.16992 146.093 9.35742 146.333 9.59766C146.574 9.83789 146.761 10.1191 146.896 10.4414C147.037 10.7637 147.107 11.1064 147.107 11.4697V18H146.747ZM146.026 13.6406H143.741C143.524 13.6406 143.319 13.6816 143.125 13.7637C142.938 13.8457 142.774 13.96 142.633 14.1064C142.493 14.2471 142.381 14.4141 142.299 14.6074C142.217 14.7949 142.176 14.9971 142.176 15.2139V15.5918C142.176 15.8086 142.217 16.0137 142.299 16.207C142.381 16.3945 142.493 16.5586 142.633 16.6992C142.774 16.8398 142.938 16.9512 143.125 17.0332C143.319 17.1152 143.524 17.1562 143.741 17.1562H144.461C144.678 17.1562 144.88 17.1152 145.068 17.0332C145.261 16.9512 145.428 16.8398 145.569 16.6992C145.709 16.5586 145.821 16.3945 145.903 16.207C145.985 16.0137 146.026 15.8086 146.026 15.5918V13.6406ZM158.77 18V11.4082C158.77 11.1914 158.729 10.9893 158.647 10.8018C158.565 10.6084 158.454 10.4414 158.313 10.3008C158.172 10.1602 158.005 10.0488 157.812 9.9668C157.625 9.88477 157.422 9.84375 157.206 9.84375H156.669C156.453 9.84375 156.248 9.88477 156.054 9.9668C155.867 10.0488 155.7 10.1602 155.553 10.3008C155.413 10.4414 155.301 10.6084 155.219 10.8018C155.137 10.9893 155.096 11.1914 155.096 11.4082V18H154.024V11.4082C154.024 11.1914 153.983 10.9893 153.901 10.8018C153.819 10.6084 153.705 10.4414 153.558 10.3008C153.417 10.1602 153.25 10.0488 153.057 9.9668C152.87 9.88477 152.667 9.84375 152.451 9.84375H151.915C151.698 9.84375 151.493 9.88477 151.299 9.9668C151.112 10.0488 150.948 10.1602 150.807 10.3008C150.667 10.4414 150.555 10.6084 150.473 10.8018C150.391 10.9893 150.35 11.1914 150.35 11.4082V18H149.269V9H149.629L150.218 9.91406C150.464 9.58008 150.772 9.31641 151.141 9.12305C151.516 8.92383 151.923 8.82422 152.363 8.82422H152.451C152.96 8.82422 153.42 8.9502 153.831 9.20215C154.241 9.4541 154.557 9.78809 154.78 10.2041C154.891 9.99902 155.029 9.81152 155.193 9.6416C155.357 9.47168 155.539 9.32812 155.738 9.21094C155.937 9.08789 156.154 8.99414 156.388 8.92969C156.623 8.85938 156.866 8.82422 157.118 8.82422H157.206C157.569 8.82422 157.912 8.89453 158.234 9.03516C158.556 9.16992 158.837 9.35742 159.078 9.59766C159.318 9.83789 159.505 10.1191 159.64 10.4414C159.781 10.7637 159.851 11.1064 159.851 11.4697V18H158.77ZM168.025 15.5303C168.025 15.8936 167.955 16.2363 167.814 16.5586C167.679 16.8809 167.492 17.1621 167.251 17.4023C167.011 17.6426 166.73 17.833 166.408 17.9736C166.085 18.1084 165.743 18.1758 165.379 18.1758H164.659C164.295 18.1758 163.953 18.1084 163.63 17.9736C163.308 17.833 163.027 17.6426 162.787 17.4023C162.546 17.1621 162.356 16.8809 162.215 16.5586C162.081 16.2363 162.013 15.8936 162.013 15.5303V11.4697C162.013 11.1064 162.081 10.7637 162.215 10.4414C162.356 10.1191 162.546 9.83789 162.787 9.59766C163.027 9.35742 163.308 9.16992 163.63 9.03516C163.953 8.89453 164.295 8.82422 164.659 8.82422H165.379C165.743 8.82422 166.085 8.89453 166.408 9.03516C166.73 9.16992 167.011 9.35742 167.251 9.59766C167.492 9.83789 167.679 10.1191 167.814 10.4414C167.955 10.7637 168.025 11.1064 168.025 11.4697V15.5303ZM166.944 11.4082C166.944 11.1914 166.903 10.9893 166.821 10.8018C166.739 10.6084 166.627 10.4414 166.487 10.3008C166.346 10.1602 166.179 10.0488 165.986 9.9668C165.798 9.88477 165.596 9.84375 165.379 9.84375H164.659C164.442 9.84375 164.237 9.88477 164.043 9.9668C163.856 10.0488 163.692 10.1602 163.551 10.3008C163.411 10.4414 163.299 10.6084 163.217 10.8018C163.135 10.9893 163.094 11.1914 163.094 11.4082V15.5918C163.094 15.8086 163.135 16.0137 163.217 16.207C163.299 16.3945 163.411 16.5586 163.551 16.6992C163.692 16.8398 163.856 16.9512 164.043 17.0332C164.237 17.1152 164.442 17.1562 164.659 17.1562H165.379C165.596 17.1562 165.798 17.1152 165.986 17.0332C166.179 16.9512 166.346 16.8398 166.487 16.6992C166.627 16.5586 166.739 16.3945 166.821 16.207C166.903 16.0137 166.944 15.8086 166.944 15.5918V11.4082ZM176.375 15.7148C176.375 16.0781 176.301 16.4121 176.155 16.7168C176.008 17.0156 175.809 17.2734 175.557 17.4902C175.305 17.707 175.012 17.877 174.678 18C174.35 18.1172 174.004 18.1758 173.641 18.1758H172.92C172.557 18.1758 172.208 18.1084 171.875 17.9736C171.546 17.833 171.256 17.6426 171.004 17.4023C170.758 17.1621 170.559 16.8809 170.407 16.5586C170.26 16.2363 170.187 15.8936 170.187 15.5303V15.1699L171.268 14.9941V15.5918C171.268 15.8086 171.312 16.0137 171.4 16.207C171.494 16.3945 171.617 16.5586 171.769 16.6992C171.921 16.8398 172.097 16.9512 172.296 17.0332C172.496 17.1152 172.704 17.1562 172.92 17.1562H173.641C173.858 17.1562 174.066 17.124 174.265 17.0596C174.464 16.9951 174.64 16.9043 174.792 16.7871C174.951 16.6641 175.074 16.5176 175.162 16.3477C175.255 16.1777 175.302 15.9844 175.302 15.7676C175.302 15.4453 175.232 15.1816 175.091 14.9766C174.951 14.7715 174.763 14.6016 174.529 14.4668C174.3 14.3262 174.037 14.2119 173.738 14.124C173.445 14.0303 173.143 13.9395 172.833 13.8516C172.522 13.7578 172.217 13.6523 171.918 13.5352C171.625 13.418 171.362 13.2656 171.127 13.0781C170.899 12.8848 170.714 12.6445 170.574 12.3574C170.433 12.0703 170.363 11.7129 170.363 11.2852C170.363 10.9219 170.433 10.5908 170.574 10.292C170.714 9.9873 170.905 9.72656 171.145 9.50977C171.385 9.29297 171.664 9.12598 171.98 9.00879C172.302 8.88574 172.645 8.82422 173.008 8.82422H173.641C174.004 8.82422 174.347 8.89453 174.669 9.03516C174.992 9.16992 175.273 9.35742 175.513 9.59766C175.753 9.83789 175.941 10.1191 176.076 10.4414C176.216 10.7637 176.287 11.1064 176.287 11.4697V11.5049L175.206 11.6807V11.4082C175.206 11.1914 175.165 10.9893 175.083 10.8018C175 10.6084 174.889 10.4414 174.749 10.3008C174.608 10.1602 174.441 10.0488 174.248 9.9668C174.06 9.88477 173.858 9.84375 173.641 9.84375H173.008C172.792 9.84375 172.586 9.87598 172.393 9.94043C172.206 10.0049 172.042 10.0986 171.901 10.2217C171.76 10.3389 171.649 10.4824 171.567 10.6523C171.485 10.8223 171.444 11.0156 171.444 11.2324C171.444 11.543 171.514 11.7979 171.655 11.9971C171.795 12.1904 171.98 12.3545 172.208 12.4893C172.443 12.624 172.707 12.7383 173 12.832C173.298 12.9199 173.6 13.0137 173.905 13.1133C174.215 13.207 174.517 13.3154 174.81 13.4385C175.109 13.5615 175.373 13.7197 175.601 13.9131C175.835 14.1064 176.023 14.3496 176.164 14.6426C176.304 14.9297 176.375 15.2871 176.375 15.7148ZM179.565 14.1855H178.932L178.449 5.39648H180.048L179.565 14.1855ZM178.572 18V16.6465H179.925V18H178.572Z" fill="#404040"/>
<line x1="4.12056e-08" y1="38.5287" x2="260.65" y2="38.5287" stroke="#DABE8E" stroke-width="0.942675"/>
<path d="M139.31 161.522C134.488 161.522 130.158 160.584 126.318 158.708C122.568 156.832 119.577 154.197 117.345 150.803C115.113 147.409 113.997 143.433 113.997 138.878C113.997 138.342 113.997 137.851 113.997 137.404C113.997 136.868 114.041 136.332 114.131 135.796C109.845 135.349 105.916 134.456 102.345 133.116C98.8624 131.776 96.0945 129.945 94.0409 127.623C91.9873 125.211 90.9604 122.263 90.9604 118.779C90.9604 115.563 91.9426 112.526 93.907 109.668C95.8713 106.72 98.3267 103.996 101.273 101.495C104.309 98.904 107.479 96.6709 110.782 94.795C116.943 91.0433 122.97 88.2295 128.863 86.3536C127.702 84.9244 126.765 83.2718 126.051 81.396C125.426 79.4308 125.113 77.5549 125.113 75.7684C125.113 72.5526 126.274 69.6941 128.595 67.193C131.006 64.6025 134.087 62.414 137.837 60.6275C141.587 58.8409 145.56 57.4564 149.757 56.4738C153.953 55.4912 157.837 54.9999 161.409 54.9999C170.873 54.9999 175.605 57.903 175.605 63.7092C175.605 66.389 174.579 68.7115 172.525 70.6767C170.471 72.6419 168.195 73.6245 165.694 73.6245C163.284 73.6245 162.078 72.9992 162.078 71.7487C162.078 70.8554 162.659 70.4088 163.819 70.4088C164.177 70.4088 164.623 70.4981 165.159 70.6767C165.337 70.7661 165.65 70.8107 166.096 70.8107C167.257 70.8107 168.373 70.1408 169.445 68.8009C170.873 67.1037 171.587 65.4958 171.587 63.9772C171.587 61.5654 170.204 59.8235 167.436 58.7516C165.65 58.1263 163.373 57.8137 160.605 57.8137C157.034 57.8137 153.462 58.439 149.891 59.6895C146.408 60.8508 143.194 62.5033 140.247 64.6472C137.39 66.7017 135.069 69.0689 133.283 71.7487C131.497 74.4285 130.604 77.2869 130.604 80.324C130.604 82.4679 131.14 84.1651 132.211 85.4157C135.604 84.4331 138.596 83.9418 141.185 83.9418C146.364 83.9418 148.953 84.969 148.953 87.0236C148.953 88.1848 148.194 89.2121 146.676 90.1053C145.158 90.9093 143.506 91.3112 141.721 91.3112C137.256 91.3112 133.462 90.15 130.336 87.8275C127.836 88.5421 125.202 89.6587 122.434 91.1773C119.667 92.6958 116.765 94.5717 113.729 96.8049C109.622 99.842 106.05 103.236 103.014 106.988C99.9785 110.651 98.4606 114.581 98.4606 118.779C98.4606 126.729 103.863 131.151 114.666 132.044C115.649 125.702 117.747 119.985 120.961 114.894C124.265 109.802 128.595 105.604 133.953 102.298C136.988 100.423 140.426 98.9487 144.265 97.8768C148.194 96.7155 152.123 95.8223 156.051 95.197C160.069 94.4823 163.73 93.8571 167.034 93.3211C171.409 92.6065 174.936 91.8025 177.614 90.9093C180.293 90.016 182.302 89.0781 183.641 88.0955C184.624 87.3809 185.338 86.5769 185.784 85.6837C186.32 84.7904 186.588 83.9864 186.588 83.2718C186.588 82.7359 186.499 82.2446 186.32 81.7979C186.141 81.262 186.365 80.994 186.99 80.994C187.615 80.994 188.106 81.396 188.463 82.1999C188.82 83.0038 188.999 83.7631 188.999 84.4777C188.999 86.2643 188.106 88.1848 186.32 90.2393C184.356 92.2045 181.99 93.6784 179.222 94.661C176.454 95.6436 173.552 96.4029 170.516 96.9388C167.48 97.4748 164.489 98.1001 161.543 98.8147C163.239 100.423 164.087 102.834 164.087 106.05C164.087 112.66 160.337 119.003 152.837 125.077C147.658 129.186 142.122 132.044 136.229 133.652C130.426 135.171 124.176 135.93 117.479 135.93C117.39 136.466 117.3 137.047 117.211 137.672C117.211 138.208 117.211 138.744 117.211 139.28C117.211 145.265 119.22 150.133 123.238 153.885C127.345 157.636 132.703 159.512 139.31 159.512C141.542 159.512 143.462 158.753 145.069 157.234C146.676 155.805 147.48 154.153 147.48 152.277C147.48 151.652 147.346 151.026 147.078 150.401C146.989 150.222 146.944 149.999 146.944 149.731C146.944 149.195 147.301 148.927 148.015 148.927C148.998 148.927 149.489 150.088 149.489 152.411C149.489 154.823 148.462 156.922 146.408 158.708C144.355 160.584 141.989 161.522 139.31 161.522ZM141.051 89.1674C143.283 89.1674 144.578 88.6314 144.935 87.5595C145.024 86.6663 143.73 86.2196 141.051 86.2196C138.908 86.2196 136.497 86.4876 133.819 87.0236C136.051 88.4528 138.462 89.1674 141.051 89.1674ZM117.881 132.178C123.684 132.178 129.622 131.24 135.694 129.364C141.855 127.489 147.033 124.63 151.23 120.789C156.855 115.697 159.668 110.472 159.668 105.112C159.668 101.182 157.971 99.2167 154.578 99.2167C153.596 99.2167 151.408 99.6186 148.015 100.423C130.783 106.854 120.738 117.439 117.881 132.178Z" fill="#DABE8E" fill-opacity="0.5"/>
<path d="M192.007 139.319C191.593 139.319 191.386 138.982 191.386 138.309C191.386 137.376 191.748 136.03 192.474 134.268C193.251 132.559 194.338 130.409 195.737 127.819L201.176 117.64C197.861 120.489 193.769 123.053 188.899 125.333C185.791 126.835 182.502 128.052 179.031 128.985C175.561 129.917 172.22 130.383 169.008 130.383C163.413 130.383 159.062 129.088 155.954 126.498C152.846 123.908 151.292 120.489 151.292 116.242C151.292 108.316 156.084 100.261 165.667 92.0766C167.998 90.1081 170.64 88.2433 173.592 86.4821C176.545 84.7209 179.653 83.1927 182.916 81.8977C186.18 80.5509 189.443 79.5149 192.707 78.7897C195.97 78.0127 199.052 77.6241 201.953 77.6241C204.388 77.6241 206.667 77.9609 208.791 78.6343C210.967 79.3077 212.728 80.2919 214.075 81.5869C215.473 82.8301 216.173 84.3842 216.173 86.249C216.173 87.803 215.655 89.3311 214.618 90.8334C213.582 92.3356 212.236 93.6824 210.578 94.8738C208.972 96.0652 207.211 97.0236 205.294 97.7488C203.43 98.474 201.616 98.8366 199.855 98.8366C195.141 98.8366 192.733 96.2983 192.629 91.2219C192.525 88.6318 192.966 87.3368 193.95 87.3368C194.831 87.3368 195.167 88.4505 194.96 90.678C194.442 94.9256 196.229 97.0495 200.321 97.0495C201.72 97.0495 203.222 96.7904 204.828 96.2724C206.434 95.7544 207.91 95.0292 209.257 94.0968C210.656 93.1644 211.795 92.1284 212.676 90.9888C213.557 89.8491 213.997 88.6577 213.997 87.4145C213.997 85.8605 213.427 84.6173 212.287 83.6848C211.2 82.7006 209.775 81.9754 208.014 81.5092C206.304 81.043 204.466 80.8099 202.497 80.8099C198.301 80.8099 194.079 81.4833 189.832 82.8301C185.584 84.1251 181.492 85.9641 177.555 88.3469C173.618 90.678 170.044 93.3975 166.832 96.5055C159.425 103.758 155.721 110.414 155.721 116.475C155.721 120.101 157.068 123.002 159.761 125.177C162.507 127.301 166.081 128.363 170.484 128.363C174.007 128.363 177.607 127.69 181.285 126.343C184.963 124.996 188.459 123.364 191.774 121.448C198.508 117.666 203.559 113.652 206.926 109.404L209.179 106.063C208.506 106.063 207.185 106.14 205.217 106.296C203.3 106.451 200.684 106.659 197.369 106.918C193.898 107.177 191.153 107.436 189.132 107.695C187.164 107.902 185.921 108.057 185.403 108.161C184.781 108.316 184.16 108.394 183.538 108.394C181.829 108.394 180.974 107.979 180.974 107.151C180.974 105.856 183.253 104.716 187.812 103.732C189.417 103.369 191.904 103.11 195.271 102.955C198.638 102.748 202.886 102.644 208.014 102.644C216.613 102.644 222.415 103.007 225.419 103.732C225.885 103.784 226.118 103.913 226.118 104.12C226.118 104.638 224.331 105.053 220.757 105.363L216.95 105.674C215.499 105.83 214.489 105.907 213.919 105.907C208.635 112.797 201.798 123.52 193.406 138.076C192.94 138.905 192.474 139.319 192.007 139.319Z" fill="#404040"/>
<path d="M47.7409 137.515C43.7005 137.515 40.4888 136.557 38.106 134.641C35.7232 132.776 34.5317 130.056 34.5317 126.482C34.5317 123.892 35.0756 121.457 36.1635 119.178C37.3031 116.847 38.8312 114.775 40.7478 112.962C42.6645 111.149 44.8401 109.724 47.2747 108.688C49.7612 107.652 52.3512 107.134 55.0449 107.134C57.7903 107.134 59.94 107.756 61.4941 108.999C63.0999 110.242 63.9028 111.926 63.9028 114.05C63.9028 115.604 62.8927 117.624 60.8725 120.11C58.8522 122.597 57.8421 123.426 57.8421 122.597C57.8421 122.39 57.9198 122.182 58.0752 121.975C59.7328 119.541 60.5616 117.261 60.5616 115.138C60.5616 113.221 59.94 111.693 58.6968 110.553C57.5054 109.414 55.9255 108.844 53.957 108.844C51.7814 108.844 49.6835 109.388 47.6632 110.475C45.6948 111.511 43.9336 112.91 42.3796 114.671C40.8255 116.433 39.6082 118.375 38.7276 120.499C37.847 122.623 37.4067 124.721 37.4067 126.793C37.4067 129.642 38.3132 131.791 40.1262 133.242C41.9911 134.744 44.4257 135.495 47.4301 135.495C50.4864 135.495 53.4131 134.925 56.2104 133.786C59.0594 132.698 61.5977 131.118 63.8251 129.046C66.4669 126.56 69.1347 122.934 71.8283 118.168L78.5883 105.969C80.3496 103.172 82.1885 99.8045 84.1051 95.8676C86.0218 91.879 88.042 87.3205 90.1658 82.1922C82.7065 82.0886 75.4544 82.8138 68.4095 84.3679C60.8984 85.9737 55.3298 88.2011 51.7037 91.0502C50.1497 92.1898 49.3727 93.3812 49.3727 94.6244C49.3727 95.7122 49.9684 96.6187 51.1598 97.344C52.403 98.0174 53.957 98.3541 55.8219 98.3541C56.9097 98.3541 58.2047 98.1987 59.7069 97.8879C61.2092 97.5771 62.6596 97.1627 64.0582 96.6446C65.4568 96.0748 66.5187 95.4532 67.244 94.7798C67.762 94.3654 68.1246 94.1582 68.3318 94.1582C68.7462 94.1582 68.8239 94.3654 68.5649 94.7798C67.4771 96.0748 66.0525 97.1627 64.2913 98.0433C62.5819 98.9239 60.7689 99.5973 58.8522 100.064C56.9356 100.478 55.1485 100.685 53.4908 100.685C50.9526 100.685 48.9583 100.193 47.5078 99.2088C46.1092 98.1728 45.4099 96.8519 45.4099 95.246C45.4099 93.3812 46.3423 91.5682 48.2072 89.8069C51.7296 86.3881 58.0234 83.8498 67.0886 82.1922C70.611 81.5706 74.3925 81.1303 78.4329 80.8713C82.4734 80.5605 86.7729 80.431 91.3313 80.4828C92.471 79.4986 93.5588 79.0065 94.5948 79.0065C95.6308 79.0065 96.0193 79.5504 95.7603 80.6382C99.0238 80.8454 102.313 81.2598 105.628 81.8814C108.995 82.503 112.052 83.3836 114.797 84.5233C117.594 85.6111 119.848 86.9838 121.557 88.6414C123.267 90.2472 124.121 92.1639 124.121 94.3913C124.121 96.7741 123.318 99.0534 121.713 101.229C120.158 103.353 118.138 105.244 115.652 106.901C113.217 108.559 110.653 109.88 107.959 110.864C105.473 111.745 102.805 112.444 99.9562 112.962C97.1589 113.48 94.3876 113.739 91.6421 113.739C89.5701 113.739 87.5758 113.584 85.6591 113.273C83.7943 112.962 82.0849 112.47 80.5309 111.796C77.371 116.407 74.7292 120.162 72.6053 123.063C70.5333 125.964 68.9275 127.984 67.7879 129.124C62.1934 134.718 55.5111 137.515 47.7409 137.515ZM89.6996 111.874C91.6162 111.874 93.507 111.693 95.3718 111.33C97.2884 110.916 99.3346 110.372 101.51 109.698C103.686 108.973 105.887 108.067 108.115 106.979C110.342 105.839 112.388 104.57 114.253 103.172C116.118 101.721 117.62 100.193 118.76 98.5872C119.899 96.9296 120.469 95.2719 120.469 93.6143C120.469 91.7495 119.692 90.1436 118.138 88.7968C116.584 87.3982 114.538 86.2586 112 85.378C109.462 84.4974 106.716 83.8239 103.764 83.3577C100.811 82.8397 97.9618 82.503 95.2164 82.3476L92.73 90.1177C91.8493 92.3452 90.6061 94.9352 89.0003 97.8879C87.3945 100.841 85.426 104.156 83.095 107.834L81.3856 110.475C81.7482 110.683 82.1367 110.864 82.5511 111.019C83.0173 111.123 83.5094 111.227 84.0274 111.33C85.0116 111.537 85.9699 111.693 86.9024 111.796C87.8348 111.848 88.7672 111.874 89.6996 111.874Z" fill="#404040"/>
<line x1="4.12056e-08" y1="177.051" x2="260.65" y2="177.051" stroke="#DABE8E" stroke-width="0.942675"/>
<path d="M33.3589 203.586C33.3589 204.014 33.2769 204.415 33.1128 204.79C32.9546 205.165 32.7349 205.493 32.4536 205.774C32.1724 206.056 31.8413 206.278 31.4604 206.442C31.0854 206.6 30.6841 206.68 30.2563 206.68H27.3999V211.522H26.2661V198.919H30.2563C30.6841 198.919 31.0854 199.001 31.4604 199.165C31.8413 199.323 32.1724 199.543 32.4536 199.824C32.7349 200.105 32.9546 200.436 33.1128 200.817C33.2769 201.192 33.3589 201.594 33.3589 202.021V203.586ZM32.2251 202.021C32.2251 201.74 32.1724 201.479 32.0669 201.239C31.9614 200.993 31.8149 200.779 31.6274 200.598C31.4458 200.41 31.2319 200.264 30.9858 200.158C30.7456 200.053 30.4849 200 30.2036 200H27.3999V205.599H30.2036C30.4849 205.599 30.7456 205.546 30.9858 205.44C31.2319 205.335 31.4458 205.191 31.6274 205.01C31.8149 204.828 31.9614 204.617 32.0669 204.377C32.1724 204.131 32.2251 203.867 32.2251 203.586V202.021ZM35.4419 200.36V198.919H36.6987V200.36H35.4419ZM35.5298 211.522V202.522H36.6108V211.522H35.5298ZM39.5024 211.522V198.919H40.5835V211.522H39.5024ZM48.7661 211.522L48.1685 210.626C47.9224 210.948 47.6147 211.209 47.2456 211.408C46.8765 211.601 46.4722 211.698 46.0327 211.698H45.7603C45.397 211.698 45.0542 211.631 44.7319 211.496C44.4097 211.355 44.1284 211.165 43.8882 210.925C43.6479 210.684 43.4575 210.403 43.3169 210.081C43.1821 209.759 43.1147 209.416 43.1147 209.053V208.965C43.1147 208.601 43.1821 208.259 43.3169 207.936C43.4575 207.614 43.6479 207.333 43.8882 207.093C44.1284 206.852 44.4097 206.665 44.7319 206.53C45.0542 206.39 45.397 206.319 45.7603 206.319H48.0454V204.931C48.0454 204.714 48.0044 204.512 47.9224 204.324C47.8403 204.131 47.729 203.964 47.5884 203.823C47.4478 203.682 47.2808 203.571 47.0874 203.489C46.8999 203.407 46.6978 203.366 46.481 203.366H45.8481C45.6313 203.366 45.4263 203.407 45.2329 203.489C45.0454 203.571 44.8813 203.682 44.7407 203.823C44.6001 203.964 44.4888 204.131 44.4067 204.324C44.3247 204.512 44.2837 204.714 44.2837 204.931V205.256L43.2026 205.08V204.992C43.2026 204.629 43.27 204.286 43.4048 203.964C43.5454 203.641 43.7358 203.36 43.9761 203.12C44.2163 202.88 44.4976 202.692 44.8198 202.557C45.1421 202.417 45.4849 202.347 45.8481 202.347H46.481C46.8442 202.347 47.187 202.417 47.5093 202.557C47.8315 202.692 48.1128 202.88 48.353 203.12C48.5933 203.36 48.7808 203.641 48.9155 203.964C49.0562 204.286 49.1265 204.629 49.1265 204.992V211.522H48.7661ZM48.0454 207.163H45.7603C45.5435 207.163 45.3384 207.204 45.145 207.286C44.9575 207.368 44.7935 207.482 44.6528 207.629C44.5122 207.769 44.4009 207.936 44.3188 208.13C44.2368 208.317 44.1958 208.519 44.1958 208.736V209.114C44.1958 209.331 44.2368 209.536 44.3188 209.729C44.4009 209.917 44.5122 210.081 44.6528 210.222C44.7935 210.362 44.9575 210.474 45.145 210.556C45.3384 210.638 45.5435 210.679 45.7603 210.679H46.481C46.6978 210.679 46.8999 210.638 47.0874 210.556C47.2808 210.474 47.4478 210.362 47.5884 210.222C47.729 210.081 47.8403 209.917 47.9224 209.729C48.0044 209.536 48.0454 209.331 48.0454 209.114V207.163ZM53.9341 203.551C53.7173 203.551 53.5122 203.592 53.3188 203.674C53.1313 203.756 52.9673 203.867 52.8267 204.008C52.686 204.148 52.5747 204.315 52.4927 204.509C52.4106 204.696 52.3696 204.898 52.3696 205.115V211.522H51.2886V202.522H51.6489L52.2378 203.436C52.4839 203.102 52.7915 202.839 53.1606 202.645C53.5356 202.446 53.9429 202.347 54.3823 202.347H55.0151V203.551H53.9341ZM68.7261 211.522V202.883L68.647 203.419L65.7202 211.522H65.1226L62.1694 203.419L62.0991 202.883V211.522H60.9653V198.919H61.5542L65.3774 209.255L65.4126 209.721L65.4478 209.255L69.2622 198.919H69.8599V211.522H68.7261ZM77.8579 211.522L77.2603 210.626C77.0142 210.948 76.7065 211.209 76.3374 211.408C75.9683 211.601 75.564 211.698 75.1245 211.698H74.8521C74.4888 211.698 74.146 211.631 73.8237 211.496C73.5015 211.355 73.2202 211.165 72.98 210.925C72.7397 210.684 72.5493 210.403 72.4087 210.081C72.2739 209.759 72.2065 209.416 72.2065 209.053V208.965C72.2065 208.601 72.2739 208.259 72.4087 207.936C72.5493 207.614 72.7397 207.333 72.98 207.093C73.2202 206.852 73.5015 206.665 73.8237 206.53C74.146 206.39 74.4888 206.319 74.8521 206.319H77.1372V204.931C77.1372 204.714 77.0962 204.512 77.0142 204.324C76.9321 204.131 76.8208 203.964 76.6802 203.823C76.5396 203.682 76.3726 203.571 76.1792 203.489C75.9917 203.407 75.7896 203.366 75.5728 203.366H74.9399C74.7231 203.366 74.5181 203.407 74.3247 203.489C74.1372 203.571 73.9731 203.682 73.8325 203.823C73.6919 203.964 73.5806 204.131 73.4985 204.324C73.4165 204.512 73.3755 204.714 73.3755 204.931V205.256L72.2944 205.08V204.992C72.2944 204.629 72.3618 204.286 72.4966 203.964C72.6372 203.641 72.8276 203.36 73.0679 203.12C73.3081 202.88 73.5894 202.692 73.9116 202.557C74.2339 202.417 74.5767 202.347 74.9399 202.347H75.5728C75.936 202.347 76.2788 202.417 76.6011 202.557C76.9233 202.692 77.2046 202.88 77.4448 203.12C77.6851 203.36 77.8726 203.641 78.0073 203.964C78.1479 204.286 78.2183 204.629 78.2183 204.992V211.522H77.8579ZM77.1372 207.163H74.8521C74.6353 207.163 74.4302 207.204 74.2368 207.286C74.0493 207.368 73.8853 207.482 73.7446 207.629C73.604 207.769 73.4927 207.936 73.4106 208.13C73.3286 208.317 73.2876 208.519 73.2876 208.736V209.114C73.2876 209.331 73.3286 209.536 73.4106 209.729C73.4927 209.917 73.604 210.081 73.7446 210.222C73.8853 210.362 74.0493 210.474 74.2368 210.556C74.4302 210.638 74.6353 210.679 74.8521 210.679H75.5728C75.7896 210.679 75.9917 210.638 76.1792 210.556C76.3726 210.474 76.5396 210.362 76.6802 210.222C76.8208 210.081 76.9321 209.917 77.0142 209.729C77.0962 209.536 77.1372 209.331 77.1372 209.114V207.163ZM85.311 215.126V210.766C85.0649 211.059 84.769 211.288 84.4233 211.452C84.0776 211.616 83.7026 211.698 83.2983 211.698H83.0259C82.6626 211.698 82.3198 211.631 81.9976 211.496C81.6753 211.355 81.394 211.165 81.1538 210.925C80.9136 210.684 80.7231 210.403 80.5825 210.081C80.4478 209.759 80.3804 209.416 80.3804 209.053V204.992C80.3804 204.629 80.4478 204.286 80.5825 203.964C80.7231 203.641 80.9136 203.36 81.1538 203.12C81.394 202.88 81.6753 202.692 81.9976 202.557C82.3198 202.417 82.6626 202.347 83.0259 202.347H83.2983C83.7378 202.347 84.1421 202.446 84.5112 202.645C84.8804 202.839 85.188 203.102 85.4341 203.436L86.0317 202.522H86.3921V215.126H85.311ZM85.311 204.931C85.311 204.714 85.27 204.512 85.188 204.324C85.106 204.131 84.9946 203.964 84.854 203.823C84.7134 203.682 84.5464 203.571 84.353 203.489C84.1655 203.407 83.9634 203.366 83.7466 203.366H83.0259C82.8091 203.366 82.604 203.407 82.4106 203.489C82.2231 203.571 82.0591 203.682 81.9185 203.823C81.7778 203.964 81.6665 204.131 81.5845 204.324C81.5024 204.512 81.4614 204.714 81.4614 204.931V209.114C81.4614 209.331 81.5024 209.536 81.5845 209.729C81.6665 209.917 81.7778 210.081 81.9185 210.222C82.0591 210.362 82.2231 210.474 82.4106 210.556C82.604 210.638 82.8091 210.679 83.0259 210.679H83.7466C83.9634 210.679 84.1655 210.638 84.353 210.556C84.5464 210.474 84.7134 210.362 84.854 210.222C84.9946 210.081 85.106 209.917 85.188 209.729C85.27 209.536 85.311 209.331 85.311 209.114V204.931ZM94.2056 211.522L93.6079 210.608C93.3618 210.942 93.0542 211.209 92.6851 211.408C92.3159 211.601 91.9116 211.698 91.4722 211.698H91.1997C90.8364 211.698 90.4937 211.631 90.1714 211.496C89.8491 211.355 89.5679 211.165 89.3276 210.925C89.0874 210.684 88.897 210.403 88.7563 210.081C88.6216 209.759 88.5542 209.416 88.5542 209.053V202.522H89.6353V209.114C89.6353 209.331 89.6763 209.536 89.7583 209.729C89.8403 209.917 89.9517 210.081 90.0923 210.222C90.2329 210.362 90.397 210.474 90.5845 210.556C90.7778 210.638 90.9829 210.679 91.1997 210.679H91.9204C92.1372 210.679 92.3394 210.638 92.5269 210.556C92.7202 210.474 92.8872 210.362 93.0278 210.222C93.1685 210.081 93.2798 209.917 93.3618 209.729C93.4438 209.536 93.4849 209.331 93.4849 209.114V202.522H94.5659V211.522H94.2056ZM102.74 209.053C102.74 209.416 102.669 209.759 102.529 210.081C102.394 210.403 102.207 210.684 101.966 210.925C101.726 211.165 101.445 211.355 101.123 211.496C100.8 211.631 100.458 211.698 100.094 211.698H99.3735C99.0103 211.698 98.6675 211.631 98.3452 211.496C98.0229 211.355 97.7417 211.165 97.5015 210.925C97.2612 210.684 97.0708 210.403 96.9302 210.081C96.7954 209.759 96.728 209.416 96.728 209.053V204.992C96.728 204.629 96.7954 204.286 96.9302 203.964C97.0708 203.641 97.2612 203.36 97.5015 203.12C97.7417 202.88 98.0229 202.692 98.3452 202.557C98.6675 202.417 99.0103 202.347 99.3735 202.347H100.094C100.458 202.347 100.8 202.417 101.123 202.557C101.445 202.692 101.726 202.88 101.966 203.12C102.207 203.36 102.394 203.641 102.529 203.964C102.669 204.286 102.74 204.629 102.74 204.992V207.11H97.8091V209.114C97.8091 209.331 97.8501 209.536 97.9321 209.729C98.0142 209.917 98.1255 210.081 98.2661 210.222C98.4067 210.362 98.5708 210.474 98.7583 210.556C98.9517 210.638 99.1567 210.679 99.3735 210.679H100.094C100.311 210.679 100.513 210.638 100.701 210.556C100.894 210.474 101.061 210.362 101.202 210.222C101.342 210.081 101.454 209.917 101.536 209.729C101.618 209.536 101.659 209.331 101.659 209.114V208.516L102.74 208.692V209.053ZM101.659 204.931C101.659 204.714 101.618 204.512 101.536 204.324C101.454 204.131 101.342 203.964 101.202 203.823C101.061 203.682 100.894 203.571 100.701 203.489C100.513 203.407 100.311 203.366 100.094 203.366H99.3735C99.1567 203.366 98.9517 203.407 98.7583 203.489C98.5708 203.571 98.4067 203.682 98.2661 203.823C98.1255 203.964 98.0142 204.131 97.9321 204.324C97.8501 204.512 97.8091 204.714 97.8091 204.931V206.266H101.659V204.931ZM110.553 211.522L109.956 210.608C109.709 210.942 109.402 211.209 109.033 211.408C108.664 211.601 108.259 211.698 107.82 211.698H107.547C107.184 211.698 106.841 211.631 106.519 211.496C106.197 211.355 105.916 211.165 105.675 210.925C105.435 210.684 105.245 210.403 105.104 210.081C104.969 209.759 104.902 209.416 104.902 209.053V204.992C104.902 204.629 104.969 204.286 105.104 203.964C105.245 203.641 105.435 203.36 105.675 203.12C105.916 202.88 106.197 202.692 106.519 202.557C106.841 202.417 107.184 202.347 107.547 202.347H107.82C108.224 202.347 108.599 202.429 108.945 202.593C109.291 202.757 109.586 202.985 109.833 203.278V198.919H110.914V211.522H110.553ZM109.833 204.931C109.833 204.714 109.792 204.512 109.709 204.324C109.627 204.131 109.516 203.964 109.375 203.823C109.235 203.682 109.068 203.571 108.875 203.489C108.687 203.407 108.485 203.366 108.268 203.366H107.547C107.331 203.366 107.125 203.407 106.932 203.489C106.745 203.571 106.581 203.682 106.44 203.823C106.299 203.964 106.188 204.131 106.106 204.324C106.024 204.512 105.983 204.714 105.983 204.931V209.114C105.983 209.331 106.024 209.536 106.106 209.729C106.188 209.917 106.299 210.081 106.44 210.222C106.581 210.362 106.745 210.474 106.932 210.556C107.125 210.638 107.331 210.679 107.547 210.679H108.268C108.485 210.679 108.687 210.638 108.875 210.556C109.068 210.474 109.235 210.362 109.375 210.222C109.516 210.081 109.627 209.917 109.709 209.729C109.792 209.536 109.833 209.331 109.833 209.114V204.931ZM118.727 211.522L118.129 210.626C117.883 210.948 117.576 211.209 117.207 211.408C116.837 211.601 116.433 211.698 115.994 211.698H115.721C115.358 211.698 115.015 211.631 114.693 211.496C114.371 211.355 114.089 211.165 113.849 210.925C113.609 210.684 113.418 210.403 113.278 210.081C113.143 209.759 113.076 209.416 113.076 209.053V208.965C113.076 208.601 113.143 208.259 113.278 207.936C113.418 207.614 113.609 207.333 113.849 207.093C114.089 206.852 114.371 206.665 114.693 206.53C115.015 206.39 115.358 206.319 115.721 206.319H118.006V204.931C118.006 204.714 117.965 204.512 117.883 204.324C117.801 204.131 117.69 203.964 117.549 203.823C117.409 203.682 117.242 203.571 117.048 203.489C116.861 203.407 116.659 203.366 116.442 203.366H115.809C115.592 203.366 115.387 203.407 115.194 203.489C115.006 203.571 114.842 203.682 114.702 203.823C114.561 203.964 114.45 204.131 114.368 204.324C114.286 204.512 114.245 204.714 114.245 204.931V205.256L113.164 205.08V204.992C113.164 204.629 113.231 204.286 113.366 203.964C113.506 203.641 113.697 203.36 113.937 203.12C114.177 202.88 114.458 202.692 114.781 202.557C115.103 202.417 115.446 202.347 115.809 202.347H116.442C116.805 202.347 117.148 202.417 117.47 202.557C117.792 202.692 118.074 202.88 118.314 203.12C118.554 203.36 118.742 203.641 118.876 203.964C119.017 204.286 119.087 204.629 119.087 204.992V211.522H118.727ZM118.006 207.163H115.721C115.504 207.163 115.299 207.204 115.106 207.286C114.918 207.368 114.754 207.482 114.614 207.629C114.473 207.769 114.362 207.936 114.28 208.13C114.198 208.317 114.157 208.519 114.157 208.736V209.114C114.157 209.331 114.198 209.536 114.28 209.729C114.362 209.917 114.473 210.081 114.614 210.222C114.754 210.362 114.918 210.474 115.106 210.556C115.299 210.638 115.504 210.679 115.721 210.679H116.442C116.659 210.679 116.861 210.638 117.048 210.556C117.242 210.474 117.409 210.362 117.549 210.222C117.69 210.081 117.801 209.917 117.883 209.729C117.965 209.536 118.006 209.331 118.006 209.114V207.163ZM133.915 211.698C133.405 211.698 132.959 211.59 132.579 211.373C132.204 211.156 131.905 210.863 131.682 210.494C131.389 210.863 131.029 211.156 130.601 211.373C130.173 211.59 129.71 211.698 129.212 211.698H128.676C128.249 211.698 127.844 211.619 127.463 211.461C127.088 211.297 126.76 211.074 126.479 210.793C126.198 210.512 125.975 210.183 125.811 209.808C125.653 209.433 125.574 209.032 125.574 208.604V207.919C125.574 207.62 125.612 207.336 125.688 207.066C125.77 206.791 125.884 206.536 126.031 206.302C126.177 206.067 126.35 205.856 126.549 205.669C126.749 205.475 126.971 205.314 127.217 205.185C126.971 205.057 126.749 204.898 126.549 204.711C126.35 204.517 126.177 204.304 126.031 204.069C125.884 203.835 125.77 203.583 125.688 203.313C125.612 203.038 125.574 202.751 125.574 202.452V201.837C125.574 201.409 125.653 201.008 125.811 200.633C125.975 200.258 126.198 199.93 126.479 199.648C126.76 199.367 127.088 199.147 127.463 198.989C127.844 198.825 128.249 198.743 128.676 198.743H129.212C129.64 198.743 130.042 198.825 130.417 198.989C130.792 199.147 131.12 199.367 131.401 199.648C131.682 199.93 131.902 200.258 132.06 200.633C132.224 201.008 132.306 201.409 132.306 201.837V201.925L131.172 202.109V201.837C131.172 201.556 131.12 201.295 131.014 201.055C130.909 200.808 130.765 200.595 130.583 200.413C130.402 200.231 130.188 200.088 129.942 199.982C129.702 199.877 129.441 199.824 129.16 199.824H128.729C128.448 199.824 128.184 199.877 127.938 199.982C127.698 200.088 127.484 200.231 127.296 200.413C127.115 200.595 126.971 200.808 126.866 201.055C126.76 201.295 126.708 201.556 126.708 201.837V202.628C126.708 202.909 126.76 203.173 126.866 203.419C126.971 203.659 127.115 203.873 127.296 204.06C127.484 204.242 127.698 204.386 127.938 204.491C128.184 204.597 128.448 204.649 128.729 204.649H131.172V203.498L132.306 203.313V204.632H134.055V205.704H132.306V208.736C132.318 209 132.359 209.246 132.429 209.474C132.5 209.703 132.602 209.905 132.737 210.081C132.877 210.251 133.05 210.386 133.255 210.485C133.46 210.579 133.698 210.626 133.967 210.626H134.231L134.073 211.698H133.915ZM129.16 210.626C129.429 210.626 129.684 210.576 129.924 210.476C130.165 210.377 130.373 210.239 130.548 210.063C130.73 209.888 130.876 209.682 130.988 209.448C131.099 209.214 131.161 208.962 131.172 208.692V205.73H128.729C128.448 205.73 128.184 205.783 127.938 205.889C127.698 205.994 127.484 206.138 127.296 206.319C127.115 206.501 126.971 206.715 126.866 206.961C126.76 207.201 126.708 207.462 126.708 207.743V208.604C126.708 208.886 126.76 209.149 126.866 209.395C126.971 209.636 127.115 209.849 127.296 210.037C127.484 210.219 127.698 210.362 127.938 210.468C128.184 210.573 128.448 210.626 128.729 210.626H129.16ZM147.995 211.522H147.634L146.975 210.512C146.7 210.875 146.366 211.165 145.973 211.382C145.581 211.593 145.144 211.698 144.664 211.698H144.004C143.577 211.698 143.172 211.619 142.792 211.461C142.417 211.297 142.088 211.074 141.807 210.793C141.526 210.512 141.303 210.183 141.139 209.808C140.981 209.433 140.902 209.032 140.902 208.604V201.837C140.902 201.409 140.981 201.008 141.139 200.633C141.303 200.258 141.526 199.93 141.807 199.648C142.088 199.367 142.417 199.147 142.792 198.989C143.172 198.825 143.577 198.743 144.004 198.743H144.901C145.329 198.743 145.73 198.825 146.105 198.989C146.48 199.147 146.808 199.367 147.089 199.648C147.371 199.93 147.59 200.258 147.749 200.633C147.913 201.008 147.995 201.409 147.995 201.837V202.347L146.861 202.522V201.837C146.861 201.556 146.808 201.295 146.703 201.055C146.597 200.808 146.454 200.595 146.272 200.413C146.09 200.231 145.876 200.088 145.63 199.982C145.39 199.877 145.129 199.824 144.848 199.824H144.057C143.776 199.824 143.512 199.877 143.266 199.982C143.026 200.088 142.812 200.231 142.625 200.413C142.443 200.595 142.299 200.808 142.194 201.055C142.088 201.295 142.036 201.556 142.036 201.837V208.604C142.036 208.886 142.088 209.149 142.194 209.395C142.299 209.636 142.443 209.849 142.625 210.037C142.812 210.219 143.026 210.362 143.266 210.468C143.512 210.573 143.776 210.626 144.057 210.626H144.848C145.129 210.626 145.39 210.573 145.63 210.468C145.876 210.362 146.09 210.219 146.272 210.037C146.454 209.849 146.597 209.636 146.703 209.395C146.808 209.149 146.861 208.886 146.861 208.604V205.976H144.848V204.895H147.995V211.522ZM156.353 209.053C156.353 209.416 156.283 209.759 156.142 210.081C156.007 210.403 155.82 210.684 155.58 210.925C155.339 211.165 155.058 211.355 154.736 211.496C154.414 211.631 154.071 211.698 153.708 211.698H152.987C152.624 211.698 152.281 211.631 151.958 211.496C151.636 211.355 151.355 211.165 151.115 210.925C150.875 210.684 150.684 210.403 150.543 210.081C150.409 209.759 150.341 209.416 150.341 209.053V204.992C150.341 204.629 150.409 204.286 150.543 203.964C150.684 203.641 150.875 203.36 151.115 203.12C151.355 202.88 151.636 202.692 151.958 202.557C152.281 202.417 152.624 202.347 152.987 202.347H153.708C154.071 202.347 154.414 202.417 154.736 202.557C155.058 202.692 155.339 202.88 155.58 203.12C155.82 203.36 156.007 203.641 156.142 203.964C156.283 204.286 156.353 204.629 156.353 204.992V209.053ZM155.272 204.931C155.272 204.714 155.231 204.512 155.149 204.324C155.067 204.131 154.956 203.964 154.815 203.823C154.674 203.682 154.507 203.571 154.314 203.489C154.126 203.407 153.924 203.366 153.708 203.366H152.987C152.77 203.366 152.565 203.407 152.372 203.489C152.184 203.571 152.02 203.682 151.879 203.823C151.739 203.964 151.627 204.131 151.545 204.324C151.463 204.512 151.422 204.714 151.422 204.931V209.114C151.422 209.331 151.463 209.536 151.545 209.729C151.627 209.917 151.739 210.081 151.879 210.222C152.02 210.362 152.184 210.474 152.372 210.556C152.565 210.638 152.77 210.679 152.987 210.679H153.708C153.924 210.679 154.126 210.638 154.314 210.556C154.507 210.474 154.674 210.362 154.815 210.222C154.956 210.081 155.067 209.917 155.149 209.729C155.231 209.536 155.272 209.331 155.272 209.114V204.931ZM163.446 211.522V204.931C163.446 204.714 163.405 204.512 163.323 204.324C163.241 204.131 163.129 203.964 162.989 203.823C162.848 203.682 162.681 203.571 162.488 203.489C162.3 203.407 162.098 203.366 161.881 203.366H161.161C160.944 203.366 160.739 203.407 160.545 203.489C160.358 203.571 160.194 203.682 160.053 203.823C159.913 203.964 159.801 204.131 159.719 204.324C159.637 204.512 159.596 204.714 159.596 204.931V211.522H158.515V202.522H158.875L159.464 203.436C159.71 203.102 160.018 202.839 160.387 202.645C160.762 202.446 161.169 202.347 161.609 202.347H161.881C162.245 202.347 162.587 202.417 162.91 202.557C163.232 202.692 163.513 202.88 163.753 203.12C163.994 203.36 164.181 203.641 164.316 203.964C164.457 204.286 164.527 204.629 164.527 204.992V211.522H163.446ZM166.329 211.522V211.039L170.864 203.551H166.504V202.522H172.34V203.006L167.805 210.494H172.34V211.522H166.329ZM179.793 211.522L179.196 210.626C178.95 210.948 178.642 211.209 178.273 211.408C177.904 211.601 177.5 211.698 177.06 211.698H176.788C176.424 211.698 176.082 211.631 175.759 211.496C175.437 211.355 175.156 211.165 174.916 210.925C174.675 210.684 174.485 210.403 174.344 210.081C174.209 209.759 174.142 209.416 174.142 209.053V208.965C174.142 208.601 174.209 208.259 174.344 207.936C174.485 207.614 174.675 207.333 174.916 207.093C175.156 206.852 175.437 206.665 175.759 206.53C176.082 206.39 176.424 206.319 176.788 206.319H179.073V204.931C179.073 204.714 179.032 204.512 178.95 204.324C178.868 204.131 178.756 203.964 178.616 203.823C178.475 203.682 178.308 203.571 178.115 203.489C177.927 203.407 177.725 203.366 177.508 203.366H176.875C176.659 203.366 176.454 203.407 176.26 203.489C176.073 203.571 175.909 203.682 175.768 203.823C175.627 203.964 175.516 204.131 175.434 204.324C175.352 204.512 175.311 204.714 175.311 204.931V205.256L174.23 205.08V204.992C174.23 204.629 174.297 204.286 174.432 203.964C174.573 203.641 174.763 203.36 175.003 203.12C175.244 202.88 175.525 202.692 175.847 202.557C176.169 202.417 176.512 202.347 176.875 202.347H177.508C177.872 202.347 178.214 202.417 178.537 202.557C178.859 202.692 179.14 202.88 179.38 203.12C179.621 203.36 179.808 203.641 179.943 203.964C180.083 204.286 180.154 204.629 180.154 204.992V211.522H179.793ZM179.073 207.163H176.788C176.571 207.163 176.366 207.204 176.172 207.286C175.985 207.368 175.821 207.482 175.68 207.629C175.54 207.769 175.428 207.936 175.346 208.13C175.264 208.317 175.223 208.519 175.223 208.736V209.114C175.223 209.331 175.264 209.536 175.346 209.729C175.428 209.917 175.54 210.081 175.68 210.222C175.821 210.362 175.985 210.474 176.172 210.556C176.366 210.638 176.571 210.679 176.788 210.679H177.508C177.725 210.679 177.927 210.638 178.115 210.556C178.308 210.474 178.475 210.362 178.616 210.222C178.756 210.081 178.868 209.917 178.95 209.729C179.032 209.536 179.073 209.331 179.073 209.114V207.163ZM182.676 211.522V198.919H183.757V211.522H182.676ZM192.125 209.053C192.125 209.416 192.054 209.759 191.914 210.081C191.779 210.403 191.591 210.684 191.351 210.925C191.111 211.165 190.83 211.355 190.507 211.496C190.185 211.631 189.842 211.698 189.479 211.698H188.758C188.395 211.698 188.052 211.631 187.73 211.496C187.408 211.355 187.126 211.165 186.886 210.925C186.646 210.684 186.456 210.403 186.315 210.081C186.18 209.759 186.113 209.416 186.113 209.053V204.992C186.113 204.629 186.18 204.286 186.315 203.964C186.456 203.641 186.646 203.36 186.886 203.12C187.126 202.88 187.408 202.692 187.73 202.557C188.052 202.417 188.395 202.347 188.758 202.347H189.479C189.842 202.347 190.185 202.417 190.507 202.557C190.83 202.692 191.111 202.88 191.351 203.12C191.591 203.36 191.779 203.641 191.914 203.964C192.054 204.286 192.125 204.629 192.125 204.992V209.053ZM191.043 204.931C191.043 204.714 191.002 204.512 190.92 204.324C190.838 204.131 190.727 203.964 190.586 203.823C190.446 203.682 190.279 203.571 190.085 203.489C189.898 203.407 189.696 203.366 189.479 203.366H188.758C188.542 203.366 188.336 203.407 188.143 203.489C187.956 203.571 187.792 203.682 187.651 203.823C187.51 203.964 187.399 204.131 187.317 204.324C187.235 204.512 187.194 204.714 187.194 204.931V209.114C187.194 209.331 187.235 209.536 187.317 209.729C187.399 209.917 187.51 210.081 187.651 210.222C187.792 210.362 187.956 210.474 188.143 210.556C188.336 210.638 188.542 210.679 188.758 210.679H189.479C189.696 210.679 189.898 210.638 190.085 210.556C190.279 210.474 190.446 210.362 190.586 210.222C190.727 210.081 190.838 209.917 190.92 209.729C191.002 209.536 191.043 209.331 191.043 209.114V204.931ZM205.888 208.429C205.888 208.856 205.806 209.258 205.642 209.633C205.484 210.008 205.264 210.336 204.983 210.617C204.702 210.898 204.371 211.121 203.99 211.285C203.615 211.443 203.213 211.522 202.786 211.522H198.795V198.919H202.786C203.213 198.919 203.615 199.001 203.99 199.165C204.371 199.323 204.702 199.543 204.983 199.824C205.264 200.105 205.484 200.436 205.642 200.817C205.806 201.192 205.888 201.594 205.888 202.021V202.144C205.888 202.443 205.847 202.73 205.765 203.006C205.689 203.275 205.578 203.527 205.431 203.762C205.285 203.996 205.112 204.21 204.913 204.403C204.713 204.591 204.491 204.749 204.245 204.878C204.491 205.007 204.713 205.168 204.913 205.361C205.112 205.549 205.285 205.763 205.431 206.003C205.578 206.237 205.689 206.492 205.765 206.767C205.847 207.037 205.888 207.321 205.888 207.62V208.429ZM204.754 207.435C204.754 207.154 204.702 206.893 204.596 206.653C204.491 206.407 204.344 206.193 204.157 206.012C203.975 205.83 203.761 205.686 203.515 205.581C203.275 205.475 203.014 205.423 202.733 205.423H199.929V210.441H202.733C203.014 210.441 203.275 210.389 203.515 210.283C203.761 210.178 203.975 210.034 204.157 209.852C204.344 209.671 204.491 209.46 204.596 209.22C204.702 208.974 204.754 208.71 204.754 208.429V207.435ZM204.754 202.021C204.754 201.74 204.702 201.479 204.596 201.239C204.491 200.993 204.344 200.779 204.157 200.598C203.975 200.41 203.761 200.264 203.515 200.158C203.275 200.053 203.014 200 202.733 200H199.929V204.342H202.733C203.014 204.342 203.275 204.289 203.515 204.183C203.761 204.078 203.975 203.934 204.157 203.753C204.344 203.565 204.491 203.351 204.596 203.111C204.702 202.865 204.754 202.601 204.754 202.32V202.021ZM213.35 211.522L212.752 210.626C212.506 210.948 212.199 211.209 211.83 211.408C211.46 211.601 211.056 211.698 210.617 211.698H210.344C209.981 211.698 209.638 211.631 209.316 211.496C208.994 211.355 208.712 211.165 208.472 210.925C208.232 210.684 208.042 210.403 207.901 210.081C207.766 209.759 207.699 209.416 207.699 209.053V208.965C207.699 208.601 207.766 208.259 207.901 207.936C208.042 207.614 208.232 207.333 208.472 207.093C208.712 206.852 208.994 206.665 209.316 206.53C209.638 206.39 209.981 206.319 210.344 206.319H212.629V204.931C212.629 204.714 212.588 204.512 212.506 204.324C212.424 204.131 212.313 203.964 212.172 203.823C212.032 203.682 211.865 203.571 211.671 203.489C211.484 203.407 211.282 203.366 211.065 203.366H210.432C210.215 203.366 210.01 203.407 209.817 203.489C209.629 203.571 209.465 203.682 209.325 203.823C209.184 203.964 209.073 204.131 208.991 204.324C208.909 204.512 208.868 204.714 208.868 204.931V205.256L207.787 205.08V204.992C207.787 204.629 207.854 204.286 207.989 203.964C208.129 203.641 208.32 203.36 208.56 203.12C208.8 202.88 209.082 202.692 209.404 202.557C209.726 202.417 210.069 202.347 210.432 202.347H211.065C211.428 202.347 211.771 202.417 212.093 202.557C212.416 202.692 212.697 202.88 212.937 203.12C213.177 203.36 213.365 203.641 213.5 203.964C213.64 204.286 213.71 204.629 213.71 204.992V211.522H213.35ZM212.629 207.163H210.344C210.127 207.163 209.922 207.204 209.729 207.286C209.542 207.368 209.377 207.482 209.237 207.629C209.096 207.769 208.985 207.936 208.903 208.13C208.821 208.317 208.78 208.519 208.78 208.736V209.114C208.78 209.331 208.821 209.536 208.903 209.729C208.985 209.917 209.096 210.081 209.237 210.222C209.377 210.362 209.542 210.474 209.729 210.556C209.922 210.638 210.127 210.679 210.344 210.679H211.065C211.282 210.679 211.484 210.638 211.671 210.556C211.865 210.474 212.032 210.362 212.172 210.222C212.313 210.081 212.424 209.917 212.506 209.729C212.588 209.536 212.629 209.331 212.629 209.114V207.163ZM216.233 211.522V198.919H217.314V211.522H216.233ZM225.857 209.053C225.857 209.416 225.787 209.759 225.646 210.081C225.511 210.403 225.324 210.684 225.083 210.925C224.843 211.165 224.562 211.355 224.24 211.496C223.917 211.631 223.575 211.698 223.211 211.698H222.491C222.127 211.698 221.785 211.631 221.462 211.496C221.14 211.355 220.859 211.165 220.619 210.925C220.378 210.684 220.188 210.403 220.047 210.081C219.913 209.759 219.845 209.416 219.845 209.053V198.919H220.926V203.278C221.172 202.985 221.468 202.757 221.814 202.593C222.16 202.429 222.535 202.347 222.939 202.347H223.211C223.575 202.347 223.917 202.417 224.24 202.557C224.562 202.692 224.843 202.88 225.083 203.12C225.324 203.36 225.511 203.641 225.646 203.964C225.787 204.286 225.857 204.629 225.857 204.992V209.053ZM224.776 204.931C224.776 204.714 224.735 204.512 224.653 204.324C224.571 204.131 224.459 203.964 224.319 203.823C224.178 203.682 224.011 203.571 223.818 203.489C223.63 203.407 223.428 203.366 223.211 203.366H222.491C222.274 203.366 222.069 203.407 221.875 203.489C221.688 203.571 221.524 203.682 221.383 203.823C221.243 203.964 221.131 204.131 221.049 204.324C220.967 204.512 220.926 204.714 220.926 204.931V209.114C220.926 209.331 220.967 209.536 221.049 209.729C221.131 209.917 221.243 210.081 221.383 210.222C221.524 210.362 221.688 210.474 221.875 210.556C222.069 210.638 222.274 210.679 222.491 210.679H223.211C223.428 210.679 223.63 210.638 223.818 210.556C224.011 210.474 224.178 210.362 224.319 210.222C224.459 210.081 224.571 209.917 224.653 209.729C224.735 209.536 224.776 209.331 224.776 209.114V204.931ZM234.031 209.053C234.031 209.416 233.96 209.759 233.82 210.081C233.685 210.403 233.498 210.684 233.257 210.925C233.017 211.165 232.736 211.355 232.414 211.496C232.091 211.631 231.749 211.698 231.385 211.698H230.665C230.301 211.698 229.958 211.631 229.636 211.496C229.314 211.355 229.033 211.165 228.792 210.925C228.552 210.684 228.362 210.403 228.221 210.081C228.086 209.759 228.019 209.416 228.019 209.053V204.992C228.019 204.629 228.086 204.286 228.221 203.964C228.362 203.641 228.552 203.36 228.792 203.12C229.033 202.88 229.314 202.692 229.636 202.557C229.958 202.417 230.301 202.347 230.665 202.347H231.385C231.749 202.347 232.091 202.417 232.414 202.557C232.736 202.692 233.017 202.88 233.257 203.12C233.498 203.36 233.685 203.641 233.82 203.964C233.96 204.286 234.031 204.629 234.031 204.992V209.053ZM232.95 204.931C232.95 204.714 232.909 204.512 232.827 204.324C232.745 204.131 232.633 203.964 232.493 203.823C232.352 203.682 232.185 203.571 231.992 203.489C231.804 203.407 231.602 203.366 231.385 203.366H230.665C230.448 203.366 230.243 203.407 230.049 203.489C229.862 203.571 229.698 203.682 229.557 203.823C229.417 203.964 229.305 204.131 229.223 204.324C229.141 204.512 229.1 204.714 229.1 204.931V209.114C229.1 209.331 229.141 209.536 229.223 209.729C229.305 209.917 229.417 210.081 229.557 210.222C229.698 210.362 229.862 210.474 230.049 210.556C230.243 210.638 230.448 210.679 230.665 210.679H231.385C231.602 210.679 231.804 210.638 231.992 210.556C232.185 210.474 232.352 210.362 232.493 210.222C232.633 210.081 232.745 209.917 232.827 209.729C232.909 209.536 232.95 209.331 232.95 209.114V204.931Z" fill="#404040"/>
</svg>
