<svg width="238" height="198" viewBox="0 0 238 198" fill="none" xmlns="http://www.w3.org/2000/svg">
<path d="M75.3789 186.692C75.3789 187.263 75.2695 187.798 75.0508 188.298C74.8398 188.798 74.5469 189.235 74.1719 189.61C73.7969 189.985 73.3555 190.282 72.8477 190.501C72.3477 190.712 71.8125 190.817 71.2422 190.817H65.9219V174.013H71.2422C71.8125 174.013 72.3477 174.122 72.8477 174.341C73.3555 174.552 73.7969 174.845 74.1719 175.22C74.5469 175.595 74.8398 176.036 75.0508 176.544C75.2695 177.044 75.3789 177.579 75.3789 178.149V178.313C75.3789 178.712 75.3242 179.095 75.2148 179.462C75.1133 179.821 74.9648 180.157 74.7695 180.47C74.5742 180.782 74.3438 181.067 74.0781 181.325C73.8125 181.575 73.5156 181.786 73.1875 181.958C73.5156 182.13 73.8125 182.345 74.0781 182.603C74.3438 182.853 74.5742 183.138 74.7695 183.458C74.9648 183.771 75.1133 184.11 75.2148 184.478C75.3242 184.837 75.3789 185.216 75.3789 185.614V186.692ZM73.8672 185.368C73.8672 184.993 73.7969 184.646 73.6562 184.325C73.5156 183.997 73.3203 183.712 73.0703 183.47C72.8281 183.228 72.543 183.036 72.2148 182.896C71.8945 182.755 71.5469 182.685 71.1719 182.685H67.4336V189.376H71.1719C71.5469 189.376 71.8945 189.306 72.2148 189.165C72.543 189.024 72.8281 188.833 73.0703 188.591C73.3203 188.349 73.5156 188.067 73.6562 187.747C73.7969 187.419 73.8672 187.067 73.8672 186.692V185.368ZM73.8672 178.149C73.8672 177.774 73.7969 177.427 73.6562 177.106C73.5156 176.778 73.3203 176.493 73.0703 176.251C72.8281 176.001 72.543 175.806 72.2148 175.665C71.8945 175.524 71.5469 175.454 71.1719 175.454H67.4336V181.243H71.1719C71.5469 181.243 71.8945 181.173 72.2148 181.032C72.543 180.892 72.8281 180.7 73.0703 180.458C73.3203 180.208 73.5156 179.923 73.6562 179.603C73.7969 179.274 73.8672 178.923 73.8672 178.548V178.149ZM85.8086 187.524C85.8086 188.009 85.7148 188.466 85.5273 188.896C85.3477 189.325 85.0977 189.7 84.7773 190.021C84.457 190.341 84.082 190.595 83.6523 190.782C83.2227 190.962 82.7656 191.052 82.2812 191.052H81.3203C80.8359 191.052 80.3789 190.962 79.9492 190.782C79.5195 190.595 79.1445 190.341 78.8242 190.021C78.5039 189.7 78.25 189.325 78.0625 188.896C77.8828 188.466 77.793 188.009 77.793 187.524V182.11C77.793 181.626 77.8828 181.169 78.0625 180.739C78.25 180.31 78.5039 179.935 78.8242 179.614C79.1445 179.294 79.5195 179.044 79.9492 178.864C80.3789 178.677 80.8359 178.583 81.3203 178.583H82.2812C82.7656 178.583 83.2227 178.677 83.6523 178.864C84.082 179.044 84.457 179.294 84.7773 179.614C85.0977 179.935 85.3477 180.31 85.5273 180.739C85.7148 181.169 85.8086 181.626 85.8086 182.11V184.935H79.2344V187.606C79.2344 187.896 79.2891 188.169 79.3984 188.427C79.5078 188.677 79.6562 188.896 79.8438 189.083C80.0312 189.271 80.25 189.419 80.5 189.528C80.7578 189.638 81.0312 189.692 81.3203 189.692H82.2812C82.5703 189.692 82.8398 189.638 83.0898 189.528C83.3477 189.419 83.5703 189.271 83.7578 189.083C83.9453 188.896 84.0938 188.677 84.2031 188.427C84.3125 188.169 84.3672 187.896 84.3672 187.606V186.81L85.8086 187.044V187.524ZM84.3672 182.028C84.3672 181.739 84.3125 181.47 84.2031 181.22C84.0938 180.962 83.9453 180.739 83.7578 180.552C83.5703 180.364 83.3477 180.216 83.0898 180.106C82.8398 179.997 82.5703 179.942 82.2812 179.942H81.3203C81.0312 179.942 80.7578 179.997 80.5 180.106C80.25 180.216 80.0312 180.364 79.8438 180.552C79.6562 180.739 79.5078 180.962 79.3984 181.22C79.2891 181.47 79.2344 181.739 79.2344 182.028V183.81H84.3672V182.028ZM89.1719 190.817V174.013H90.6133V190.817H89.1719ZM101.523 190.817L100.727 189.599C100.398 190.044 99.9883 190.399 99.4961 190.665C99.0039 190.923 98.4648 191.052 97.8789 191.052H97.5156C97.0312 191.052 96.5742 190.962 96.1445 190.782C95.7148 190.595 95.3398 190.341 95.0195 190.021C94.6992 189.7 94.4453 189.325 94.2578 188.896C94.0781 188.466 93.9883 188.009 93.9883 187.524V178.817H95.4297V187.606C95.4297 187.896 95.4844 188.169 95.5938 188.427C95.7031 188.677 95.8516 188.896 96.0391 189.083C96.2266 189.271 96.4453 189.419 96.6953 189.528C96.9531 189.638 97.2266 189.692 97.5156 189.692H98.4766C98.7656 189.692 99.0352 189.638 99.2852 189.528C99.543 189.419 99.7656 189.271 99.9531 189.083C100.141 188.896 100.289 188.677 100.398 188.427C100.508 188.169 100.562 187.896 100.562 187.606V178.817H102.004V190.817H101.523ZM121.773 191.052C121.094 191.052 120.5 190.907 119.992 190.618C119.492 190.329 119.094 189.938 118.797 189.446C118.406 189.938 117.926 190.329 117.355 190.618C116.785 190.907 116.168 191.052 115.504 191.052H114.789C114.219 191.052 113.68 190.946 113.172 190.735C112.672 190.517 112.234 190.22 111.859 189.845C111.484 189.47 111.188 189.032 110.969 188.532C110.758 188.032 110.652 187.497 110.652 186.927V186.013C110.652 185.614 110.703 185.235 110.805 184.876C110.914 184.509 111.066 184.169 111.262 183.856C111.457 183.544 111.688 183.263 111.953 183.013C112.219 182.755 112.516 182.54 112.844 182.368C112.516 182.196 112.219 181.985 111.953 181.735C111.688 181.478 111.457 181.192 111.262 180.88C111.066 180.567 110.914 180.231 110.805 179.872C110.703 179.505 110.652 179.122 110.652 178.724V177.903C110.652 177.333 110.758 176.798 110.969 176.298C111.188 175.798 111.484 175.36 111.859 174.985C112.234 174.61 112.672 174.317 113.172 174.106C113.68 173.888 114.219 173.778 114.789 173.778H115.504C116.074 173.778 116.609 173.888 117.109 174.106C117.609 174.317 118.047 174.61 118.422 174.985C118.797 175.36 119.09 175.798 119.301 176.298C119.52 176.798 119.629 177.333 119.629 177.903V178.021L118.117 178.267V177.903C118.117 177.528 118.047 177.181 117.906 176.86C117.766 176.532 117.574 176.247 117.332 176.005C117.09 175.763 116.805 175.571 116.477 175.431C116.156 175.29 115.809 175.22 115.434 175.22H114.859C114.484 175.22 114.133 175.29 113.805 175.431C113.484 175.571 113.199 175.763 112.949 176.005C112.707 176.247 112.516 176.532 112.375 176.86C112.234 177.181 112.164 177.528 112.164 177.903V178.958C112.164 179.333 112.234 179.685 112.375 180.013C112.516 180.333 112.707 180.618 112.949 180.868C113.199 181.11 113.484 181.302 113.805 181.442C114.133 181.583 114.484 181.653 114.859 181.653H118.117V180.118L119.629 179.872V181.63H121.961V183.06H119.629V187.103C119.645 187.454 119.699 187.782 119.793 188.087C119.887 188.392 120.023 188.661 120.203 188.896C120.391 189.122 120.621 189.302 120.895 189.435C121.168 189.56 121.484 189.622 121.844 189.622H122.195L121.984 191.052H121.773ZM115.434 189.622C115.793 189.622 116.133 189.556 116.453 189.423C116.773 189.29 117.051 189.106 117.285 188.872C117.527 188.638 117.723 188.364 117.871 188.052C118.02 187.739 118.102 187.403 118.117 187.044V183.095H114.859C114.484 183.095 114.133 183.165 113.805 183.306C113.484 183.446 113.199 183.638 112.949 183.88C112.707 184.122 112.516 184.407 112.375 184.735C112.234 185.056 112.164 185.403 112.164 185.778V186.927C112.164 187.302 112.234 187.653 112.375 187.981C112.516 188.302 112.707 188.587 112.949 188.837C113.199 189.079 113.484 189.271 113.805 189.411C114.133 189.552 114.484 189.622 114.859 189.622H115.434ZM138.871 186.927C138.871 187.497 138.762 188.032 138.543 188.532C138.332 189.032 138.039 189.47 137.664 189.845C137.289 190.22 136.852 190.517 136.352 190.735C135.852 190.946 135.316 191.052 134.746 191.052H134.266C133.695 191.052 133.156 190.946 132.648 190.735C132.148 190.517 131.711 190.22 131.336 189.845C130.961 189.47 130.664 189.032 130.445 188.532C130.234 188.032 130.129 187.497 130.129 186.927V186.259L131.641 186.013V186.927C131.641 187.302 131.711 187.653 131.852 187.981C131.992 188.302 132.184 188.587 132.426 188.837C132.676 189.079 132.961 189.271 133.281 189.411C133.609 189.552 133.961 189.622 134.336 189.622H134.676C135.043 189.622 135.391 189.552 135.719 189.411C136.047 189.271 136.332 189.079 136.574 188.837C136.816 188.587 137.008 188.302 137.148 187.981C137.289 187.653 137.359 187.302 137.359 186.927V174.013H138.871V186.927ZM149.289 190.817L148.492 189.599C148.164 190.044 147.754 190.399 147.262 190.665C146.77 190.923 146.23 191.052 145.645 191.052H145.281C144.797 191.052 144.34 190.962 143.91 190.782C143.48 190.595 143.105 190.341 142.785 190.021C142.465 189.7 142.211 189.325 142.023 188.896C141.844 188.466 141.754 188.009 141.754 187.524V178.817H143.195V187.606C143.195 187.896 143.25 188.169 143.359 188.427C143.469 188.677 143.617 188.896 143.805 189.083C143.992 189.271 144.211 189.419 144.461 189.528C144.719 189.638 144.992 189.692 145.281 189.692H146.242C146.531 189.692 146.801 189.638 147.051 189.528C147.309 189.419 147.531 189.271 147.719 189.083C147.906 188.896 148.055 188.677 148.164 188.427C148.273 188.169 148.328 187.896 148.328 187.606V178.817H149.77V190.817H149.289ZM160.188 190.817L159.391 189.622C159.062 190.052 158.652 190.399 158.16 190.665C157.668 190.923 157.129 191.052 156.543 191.052H156.18C155.695 191.052 155.238 190.962 154.809 190.782C154.379 190.595 154.004 190.341 153.684 190.021C153.363 189.7 153.109 189.325 152.922 188.896C152.742 188.466 152.652 188.009 152.652 187.524V187.407C152.652 186.923 152.742 186.466 152.922 186.036C153.109 185.606 153.363 185.231 153.684 184.911C154.004 184.591 154.379 184.341 154.809 184.161C155.238 183.974 155.695 183.88 156.18 183.88H159.227V182.028C159.227 181.739 159.172 181.47 159.062 181.22C158.953 180.962 158.805 180.739 158.617 180.552C158.43 180.364 158.207 180.216 157.949 180.106C157.699 179.997 157.43 179.942 157.141 179.942H156.297C156.008 179.942 155.734 179.997 155.477 180.106C155.227 180.216 155.008 180.364 154.82 180.552C154.633 180.739 154.484 180.962 154.375 181.22C154.266 181.47 154.211 181.739 154.211 182.028V182.462L152.77 182.228V182.11C152.77 181.626 152.859 181.169 153.039 180.739C153.227 180.31 153.48 179.935 153.801 179.614C154.121 179.294 154.496 179.044 154.926 178.864C155.355 178.677 155.812 178.583 156.297 178.583H157.141C157.625 178.583 158.082 178.677 158.512 178.864C158.941 179.044 159.316 179.294 159.637 179.614C159.957 179.935 160.207 180.31 160.387 180.739C160.574 181.169 160.668 181.626 160.668 182.11V190.817H160.188ZM159.227 185.005H156.18C155.891 185.005 155.617 185.06 155.359 185.169C155.109 185.278 154.891 185.431 154.703 185.626C154.516 185.813 154.367 186.036 154.258 186.294C154.148 186.544 154.094 186.813 154.094 187.103V187.606C154.094 187.896 154.148 188.169 154.258 188.427C154.367 188.677 154.516 188.896 154.703 189.083C154.891 189.271 155.109 189.419 155.359 189.528C155.617 189.638 155.891 189.692 156.18 189.692H157.141C157.43 189.692 157.699 189.638 157.949 189.528C158.207 189.419 158.43 189.271 158.617 189.083C158.805 188.896 158.953 188.677 159.062 188.427C159.172 188.169 159.227 187.896 159.227 187.606V185.005ZM170.125 190.817V182.028C170.125 181.739 170.07 181.47 169.961 181.22C169.852 180.962 169.703 180.739 169.516 180.552C169.328 180.364 169.105 180.216 168.848 180.106C168.598 179.997 168.328 179.942 168.039 179.942H167.078C166.789 179.942 166.516 179.997 166.258 180.106C166.008 180.216 165.789 180.364 165.602 180.552C165.414 180.739 165.266 180.962 165.156 181.22C165.047 181.47 164.992 181.739 164.992 182.028V190.817H163.551V178.817H164.031L164.816 180.036C165.145 179.591 165.555 179.239 166.047 178.981C166.547 178.716 167.09 178.583 167.676 178.583H168.039C168.523 178.583 168.98 178.677 169.41 178.864C169.84 179.044 170.215 179.294 170.535 179.614C170.855 179.935 171.105 180.31 171.285 180.739C171.473 181.169 171.566 181.626 171.566 182.11V190.817H170.125Z" fill="#404040"/>
<line x1="8.74228e-08" y1="1" x2="238" y2="1.00002" stroke="#BEAA8E" stroke-width="2"/>
<path d="M121.949 141.817C116.251 141.817 111.134 140.71 106.597 138.494C102.166 136.278 98.6317 133.166 95.994 129.157C93.3563 125.147 92.0375 120.452 92.0375 115.071C92.0375 114.438 92.0375 113.858 92.0375 113.331C92.0375 112.697 92.0902 112.064 92.1957 111.431C87.1314 110.904 82.4891 109.849 78.2688 108.266C74.154 106.684 70.8833 104.521 68.4566 101.777C66.0299 98.9288 64.8166 95.447 64.8166 91.3322C64.8166 87.534 65.9772 83.9467 68.2983 80.5705C70.6195 77.0887 73.5209 73.8708 77.0027 70.9166C80.5899 67.8569 84.3354 65.2192 88.2392 63.0035C95.5192 58.5722 102.641 55.2487 109.604 53.0331C108.233 51.345 107.125 49.3931 106.281 47.1774C105.542 44.8563 105.173 42.6406 105.173 40.5304C105.173 36.7322 106.545 33.3559 109.288 30.4017C112.137 27.342 115.777 24.7571 120.208 22.647C124.639 20.5368 129.334 18.9014 134.293 17.7409C139.252 16.5803 143.842 16 148.062 16C159.246 16 164.838 19.429 164.838 26.287C164.838 29.4522 163.624 32.1954 161.198 34.5165C158.771 36.8377 156.08 37.9983 153.126 37.9983C150.278 37.9983 148.853 37.2597 148.853 35.7826C148.853 34.7276 149.539 34.2 150.911 34.2C151.333 34.2 151.86 34.3055 152.493 34.5165C152.704 34.622 153.073 34.6748 153.601 34.6748C154.973 34.6748 156.291 33.8835 157.558 32.3009C159.246 30.2962 160.09 28.3971 160.09 26.6035C160.09 23.7548 158.454 21.6974 155.184 20.4313C153.073 19.6928 150.383 19.3235 147.112 19.3235C142.892 19.3235 138.672 20.062 134.451 21.5391C130.337 22.9107 126.538 24.8626 123.057 27.3948C119.68 29.8215 116.937 32.6174 114.827 35.7826C112.717 38.9478 111.662 42.3241 111.662 45.9113C111.662 48.4435 112.295 50.4481 113.561 51.9252C117.57 50.7647 121.105 50.1844 124.164 50.1844C130.284 50.1844 133.344 51.3977 133.344 53.8244C133.344 55.196 132.447 56.4093 130.653 57.4644C128.86 58.4139 126.908 58.8887 124.798 58.8887C119.522 58.8887 115.038 57.5171 111.345 54.7739C108.391 55.618 105.279 56.9368 102.008 58.7305C98.7372 60.5241 95.3082 62.7397 91.721 65.3774C86.8676 68.9647 82.6473 72.974 79.0601 77.4053C75.4728 81.7311 73.6792 86.3734 73.6792 91.3322C73.6792 100.722 80.0624 105.945 92.8288 107C93.9894 99.5091 96.4688 92.7566 100.267 86.7427C104.171 80.7287 109.288 75.7699 115.618 71.8661C119.206 69.6505 123.268 67.9096 127.804 66.6435C132.447 65.2719 137.089 64.2169 141.731 63.4783C146.479 62.6342 150.805 61.8957 154.709 61.2626C159.879 60.4186 164.046 59.469 167.211 58.414C170.377 57.3589 172.751 56.251 174.333 55.0905C175.494 54.2464 176.338 53.2968 176.865 52.2418C177.498 51.1867 177.815 50.2371 177.815 49.3931C177.815 48.76 177.709 48.1797 177.498 47.6522C177.287 47.0192 177.551 46.7026 178.29 46.7026C179.028 46.7026 179.609 47.1774 180.031 48.127C180.453 49.0765 180.664 49.9734 180.664 50.8174C180.664 52.9276 179.609 55.196 177.498 57.6226C175.177 59.9438 172.381 61.6847 169.111 62.8453C165.84 64.0058 162.411 64.9027 158.824 65.5357C155.236 66.1687 151.702 66.9073 148.22 67.7513C150.225 69.6505 151.227 72.4992 151.227 76.2974C151.227 84.105 146.796 91.596 137.933 98.7705C131.814 103.624 125.272 107 118.309 108.899C111.451 110.693 104.065 111.59 96.1523 111.59C96.0468 112.223 95.9413 112.908 95.8357 113.647C95.8357 114.28 95.8357 114.913 95.8357 115.546C95.8357 122.615 98.2097 128.365 102.957 132.797C107.811 137.228 114.141 139.444 121.949 139.444C124.586 139.444 126.855 138.547 128.754 136.753C130.653 135.065 131.603 133.113 131.603 130.897C131.603 130.159 131.444 129.42 131.128 128.682C131.022 128.471 130.97 128.207 130.97 127.891C130.97 127.257 131.392 126.941 132.236 126.941C133.396 126.941 133.977 128.313 133.977 131.056C133.977 133.904 132.763 136.384 130.337 138.494C127.91 140.71 125.114 141.817 121.949 141.817ZM124.006 56.3566C126.644 56.3566 128.174 55.7235 128.596 54.4574C128.701 53.4023 127.171 52.8748 124.006 52.8748C121.474 52.8748 118.625 53.1913 115.46 53.8244C118.098 55.5125 120.946 56.3566 124.006 56.3566ZM96.6271 107.158C103.485 107.158 110.501 106.051 117.676 103.835C124.956 101.619 131.075 98.243 136.034 93.7061C142.681 87.6922 146.004 81.5201 146.004 75.1896C146.004 70.5473 144 68.2261 139.991 68.2261C138.83 68.2261 136.245 68.7009 132.236 69.6505C111.873 77.247 100.003 89.7496 96.6271 107.158Z" fill="#BEAA8E" fill-opacity="0.6"/>
<path d="M142.654 118.25C137.699 118.25 133.73 116.967 130.745 114.4C127.76 111.893 126.268 108.431 126.268 104.014C126.268 101.029 126.925 98.3131 128.238 95.8657C129.909 92.5826 132.178 89.598 135.043 86.9118C137.908 84.166 141.012 81.9573 144.355 80.2859C147.757 78.6146 151.041 77.7789 154.204 77.7789C158.263 77.7789 161.427 78.7339 163.695 80.6441C166.023 82.5543 167.187 85.0614 167.187 88.1654C167.187 89.8368 166.829 91.4485 166.113 93.0005C165.456 94.5525 164.621 95.8657 163.606 96.9402C162.114 98.6116 160.92 99.4473 160.024 99.4473C159.786 99.4473 159.666 99.3279 159.666 99.0891C159.666 98.9101 159.756 98.6414 159.935 98.2833C162.084 95.1196 163.158 92.0753 163.158 89.1503C163.158 86.5238 162.322 84.3451 160.651 82.614C158.98 80.8829 156.741 80.0173 153.936 80.0173C151.249 80.0173 148.563 80.8232 145.877 82.4349C143.191 83.9869 140.714 86.0463 138.445 88.6131C136.237 91.1202 134.416 93.8362 132.984 96.7611C131.491 99.6861 130.745 102.521 130.745 105.267C130.745 108.909 131.909 111.654 134.237 113.505C136.625 115.415 139.729 116.37 143.549 116.37C158.771 116.37 174.649 103.059 191.184 76.4358C201.093 60.5575 206.167 50.8276 206.405 47.2461L201.123 46.9774C199.69 46.9177 197.989 47.0968 196.019 47.5147C194.049 47.8728 192.079 48.4399 190.109 49.2159C188.14 49.9322 186.349 50.7978 184.737 51.8125C183.185 52.7676 182.081 53.8421 181.424 55.0359C180.887 55.9313 180.618 56.7969 180.618 57.6326C180.618 58.9458 181.185 60.2591 182.319 61.5723C183.454 62.8855 184.021 63.6615 184.021 63.9003C184.021 64.1988 183.663 64.4077 182.946 64.5271C182.767 64.5868 182.528 64.6166 182.23 64.6166C180.976 64.6166 179.783 64.0495 178.648 62.9154C177.335 61.6021 176.679 60.0203 176.679 58.1698C176.679 56.4984 177.216 54.9464 178.29 53.5138C179.783 51.4842 181.842 49.8725 184.468 48.6787C187.155 47.4848 190.02 46.6491 193.064 46.1716C196.168 45.6344 199.093 45.3956 201.839 45.4553C202.376 45.4553 203.839 45.5448 206.226 45.7239C206.107 44.9479 206.405 44.2316 207.122 43.575C207.898 42.8586 208.763 42.5005 209.718 42.5005C211.509 42.5005 212.375 43.7839 212.315 46.3507C218.762 47.4848 222.164 49.2159 222.523 51.5439C222.582 51.7827 222.612 52.0215 222.612 52.2602C222.612 52.499 222.612 52.7079 222.612 52.887C222.612 54.0809 222.284 54.6778 221.627 54.6778C221.09 54.6778 220.821 54.2898 220.821 53.5138C220.821 53.3944 220.821 53.2452 220.821 53.0661C220.821 52.887 220.851 52.7079 220.911 52.5289C219.418 50.3202 216.464 48.7682 212.046 47.8728C210.972 52.7079 205.361 63.2138 195.213 79.3906C192.109 84.345 188.528 89.1503 184.468 93.8063C180.409 98.4027 176.082 102.551 171.485 106.252C166.889 109.953 162.143 112.878 157.249 115.027C152.354 117.176 147.489 118.25 142.654 118.25Z" fill="#404040"/>
<path d="M51.7447 110.819C42.3123 110.819 35.8946 107.596 32.4918 101.148C26.3427 106.282 21.9549 108.849 19.3281 108.849C18.0744 108.849 17.0894 108.252 16.373 107.058C15.7163 105.864 15.3879 104.521 15.3879 103.029C15.3879 99.4466 16.761 95.2676 19.5072 90.4917C20.7012 88.4022 22.0145 86.4918 23.4473 84.7606C24.8801 83.0293 26.492 82.1637 28.283 82.1637C30.0142 82.1637 31.3276 83.5964 32.2231 86.462L34.9096 95.0587C35.8648 94.0438 36.9095 92.82 38.0438 91.3872C39.2378 89.8947 40.5511 88.1634 41.9839 86.1934L49.9538 75.4475C59.7444 62.7316 66.1621 55.7766 69.2068 54.5826C70.2813 54.1647 71.3559 53.9558 72.4305 53.9558C73.6245 53.9558 74.5797 54.2244 75.2961 54.7617C76.0722 55.2393 76.4602 55.8065 76.4602 56.4632C76.4602 57.5377 75.5946 58.1646 73.8633 58.3437C72.0723 59.3586 68.5799 62.3734 63.3861 67.3881C60.9981 69.7164 59.0579 71.6566 57.5654 73.2088C56.1326 74.7013 55.1476 75.8355 54.6103 76.6116C47.924 85.9247 41.7451 93.0886 36.0737 98.1033C39.7154 105.327 45.1778 108.939 52.4611 108.939C55.2073 108.939 57.9833 108.342 60.7892 107.148C63.6547 106.013 66.2815 104.491 68.6695 102.581C71.1171 100.67 73.0872 98.5511 74.5797 96.2228C76.0722 93.8349 76.8184 91.4767 76.8184 89.1485C76.8184 86.7008 75.9528 84.4919 74.2215 82.5219C72.4902 80.5518 70.3709 79.1488 67.8635 78.3131C67.8635 78.3131 67.4158 78.2534 66.5203 78.134C65.6248 78.0146 64.2517 77.8355 62.4011 77.5967C59.5952 77.2385 58.1923 76.6713 58.1923 75.8952C58.1923 75.3579 58.5206 74.8804 59.1773 74.4625C59.8937 74.0446 60.6101 73.8356 61.3265 73.8356C61.8638 73.8356 62.4906 73.955 63.207 74.1938C63.9234 74.4326 64.5502 74.6714 65.0875 74.9102C65.6845 75.0893 65.983 75.1789 65.983 75.1789C66.4606 75.2386 66.9979 75.2983 67.5949 75.358C68.1919 75.358 68.7889 75.358 69.3859 75.358C73.326 75.358 76.9079 74.7311 80.1317 73.4774C83.2361 72.2237 85.5046 70.4925 86.9374 68.2836C88.3702 66.0747 89.0866 63.5077 89.0866 60.5824C89.0866 57.5974 88.1314 55.2393 86.221 53.508C84.3704 51.7768 81.8928 50.5529 78.7885 49.8365C75.7438 49.0605 72.4305 48.6724 68.8486 48.6724C61.8638 48.6724 55.2073 49.6873 48.8792 51.7171C42.6108 53.7468 37.1781 57.1198 32.5813 61.8361C29.0591 65.4777 27.2979 68.5224 27.2979 70.9701C27.2979 72.7013 27.7457 74.164 28.6412 75.358C28.88 75.6564 29.1486 75.9549 29.4471 76.2534C29.7456 76.5519 30.1038 76.8504 30.5217 77.1489C30.8202 77.328 30.6411 77.4176 29.9844 77.4176C26.283 76.5818 24.4324 74.1043 24.4324 69.985C24.4324 65.8658 26.5218 61.9853 30.7008 58.3437C33.9245 55.5378 37.596 53.2693 41.7153 51.538C45.8942 49.8067 50.2821 48.553 54.879 47.7769C59.5355 47.0008 64.1323 46.6128 68.6695 46.6128C71.8932 46.6128 74.9976 46.8516 77.9825 47.3292C80.9675 47.8068 83.654 48.6127 86.0419 49.747C88.4299 50.8216 90.3104 52.2544 91.6835 54.0453C93.1163 55.8363 93.8327 58.0452 93.8327 60.672C93.8327 64.3733 92.8476 67.3284 90.8776 69.5373C88.9075 71.7461 86.2509 73.4476 82.9077 74.6416C78.9676 76.0146 74.7289 76.731 70.1918 76.7907C72.6992 76.9101 74.8782 77.5668 76.7289 78.7608C78.6392 79.9548 80.1019 81.507 81.1167 83.4173C82.1913 85.3277 82.7286 87.4172 82.7286 89.6858C82.7286 92.7304 81.8033 95.5661 79.9526 98.1929C78.1616 100.76 75.7438 102.999 72.6992 104.909C69.6545 106.76 66.3113 108.193 62.6697 109.207C59.028 110.282 55.3864 110.819 51.7447 110.819ZM20.4922 106.79C22.4026 106.79 26.0741 104.073 31.5067 98.6406L31.2381 98.2824C28.8501 90.3424 26.9397 86.3724 25.507 86.3724C25.4473 86.3724 25.298 86.4321 25.0592 86.5515C20.6415 92.9394 18.4326 98.0735 18.4326 101.954C18.4326 102.79 18.5818 103.805 18.8803 104.999C19.2385 106.193 19.7758 106.79 20.4922 106.79Z" fill="#404040"/>
<line x1="8.74228e-08" y1="154.817" x2="238" y2="154.817" stroke="#BEAA8E" stroke-width="2"/>
</svg>
