<svg width="731" height="188" viewBox="0 0 731 188" fill="none" xmlns="http://www.w3.org/2000/svg">
<path d="M375.811 187.731C367.31 187.731 359.675 186.079 352.906 182.773C346.294 179.467 341.02 174.822 337.084 168.84C333.149 162.858 331.181 155.853 331.181 147.824C331.181 146.879 331.181 146.013 331.181 145.226C331.181 144.282 331.26 143.337 331.417 142.393C323.86 141.605 316.934 140.031 310.637 137.67C304.497 135.308 299.617 132.081 295.996 127.988C292.375 123.737 290.565 118.542 290.565 112.403C290.565 106.735 292.296 101.383 295.76 96.3452C299.223 91.1501 303.552 86.3486 308.747 81.9407C314.1 77.3753 319.689 73.4396 325.513 70.1337C336.376 63.5217 347.002 58.5628 357.392 55.2568C355.346 52.738 353.693 49.8256 352.433 46.5196C351.331 43.0562 350.78 39.7503 350.78 36.6017C350.78 30.9344 352.827 25.8967 356.92 21.4888C361.171 16.9234 366.602 13.0664 373.214 9.91789C379.826 6.76935 386.831 4.32923 394.23 2.59754C401.629 0.865847 408.477 0 414.774 0C431.462 0 439.805 5.11637 439.805 15.3491C439.805 20.0719 437.995 24.165 434.374 27.6284C430.753 31.0918 426.739 32.8235 422.331 32.8235C418.08 32.8235 415.955 31.7215 415.955 29.5175C415.955 27.9433 416.978 27.1561 419.025 27.1561C419.655 27.1561 420.442 27.3136 421.386 27.6284C421.701 27.7858 422.252 27.8645 423.039 27.8645C425.086 27.8645 427.054 26.6838 428.943 24.3224C431.462 21.3313 432.721 18.4976 432.721 15.8214C432.721 11.5709 430.281 8.50104 425.401 6.61193C422.252 5.50993 418.238 4.95894 413.358 4.95894C407.061 4.95894 400.763 6.06093 394.466 8.2649C388.327 10.3115 382.659 13.2238 377.464 17.0021C372.427 20.6229 368.334 24.7947 365.185 29.5175C362.036 34.2403 360.462 39.278 360.462 44.6305C360.462 48.4087 361.407 51.3999 363.296 53.6038C369.278 51.8721 374.552 51.0063 379.117 51.0063C388.248 51.0063 392.813 52.8167 392.813 56.4375C392.813 58.4841 391.475 60.2945 388.799 61.8687C386.123 63.2856 383.21 63.994 380.062 63.994C372.19 63.994 365.5 61.9475 359.99 57.8544C355.582 59.1138 350.938 61.0816 346.058 63.7579C341.177 66.4341 336.061 69.7401 330.709 73.6758C323.467 79.0283 317.17 85.0105 311.817 91.6224C306.465 98.0769 303.789 105.004 303.789 112.403C303.789 126.414 313.313 134.206 332.362 135.781C334.093 124.603 337.793 114.528 343.46 105.555C349.285 96.5814 356.92 89.1823 366.366 83.3575C371.718 80.0515 377.779 77.454 384.549 75.5649C391.475 73.5183 398.402 71.9441 405.329 70.8421C412.413 69.5827 418.868 68.4807 424.692 67.5361C432.406 66.2767 438.625 64.8599 443.347 63.2856C448.07 61.7113 451.612 60.0583 453.974 58.3266C455.705 57.0672 456.965 55.6504 457.752 54.0761C458.697 52.5018 459.169 51.085 459.169 49.8256C459.169 48.881 459.011 48.0152 458.697 47.228C458.382 46.2835 458.775 45.8112 459.877 45.8112C460.979 45.8112 461.845 46.5196 462.475 47.9365C463.105 49.3533 463.419 50.6914 463.419 51.9508C463.419 55.0994 461.845 58.4841 458.697 62.1049C455.233 65.5683 451.061 68.1658 446.181 69.8975C441.301 71.6292 436.185 72.9673 430.832 73.9119C425.479 74.8565 420.206 75.9584 415.011 77.2178C418.002 80.0515 419.497 84.3021 419.497 89.9694C419.497 101.619 412.885 112.796 399.661 123.501C390.531 130.743 380.77 135.781 370.38 138.614C360.147 141.291 349.127 142.629 337.32 142.629C337.163 143.573 337.006 144.597 336.848 145.699C336.848 146.643 336.848 147.588 336.848 148.532C336.848 159.08 340.39 167.66 347.474 174.271C354.716 180.883 364.162 184.189 375.811 184.189C379.747 184.189 383.132 182.851 385.965 180.175C388.799 177.656 390.216 174.744 390.216 171.438C390.216 170.336 389.98 169.234 389.507 168.132C389.35 167.817 389.271 167.423 389.271 166.951C389.271 166.007 389.901 165.534 391.16 165.534C392.892 165.534 393.758 167.581 393.758 171.674C393.758 175.924 391.948 179.624 388.327 182.773C384.706 186.079 380.534 187.731 375.811 187.731ZM378.881 60.2158C382.817 60.2158 385.1 59.2712 385.729 57.3821C385.887 55.8078 383.604 55.0207 378.881 55.0207C375.103 55.0207 370.852 55.493 366.13 56.4375C370.065 58.9563 374.316 60.2158 378.881 60.2158ZM338.029 136.017C348.262 136.017 358.731 134.364 369.436 131.058C380.298 127.752 389.429 122.714 396.828 115.945C406.746 106.972 411.705 97.7621 411.705 88.3165C411.705 81.3897 408.714 77.9263 402.731 77.9263C401 77.9263 397.143 78.6347 391.16 80.0515C360.777 91.3863 343.067 110.041 338.029 136.017Z" fill="#BEAA8E"/>
<path d="M298.906 142.17C295.939 142.17 293.851 141.346 292.642 139.697C291.433 137.939 290.828 135.796 290.828 133.268C290.828 126.894 293.026 120.08 297.422 112.826L307.973 95.6814C300.5 101.177 293.081 108.045 285.718 116.288C283.74 118.486 281.487 121.069 278.959 124.036C276.541 127.003 273.849 130.41 270.881 134.257C266.925 139.422 264.562 142.005 263.793 142.005C262.254 142.005 260.99 141.346 260.001 140.027C259.012 138.598 258.517 137.334 258.517 136.235C258.517 135.356 258.792 133.762 259.341 131.454C259.891 129.037 260.55 126.948 261.32 125.19C262.089 123.322 262.858 121.508 263.628 119.75C264.507 117.882 265.331 116.068 266.1 114.31L256.209 124.695C255.989 124.915 255.33 125.575 254.231 126.674C253.132 127.773 252.253 128.322 251.593 128.322C251.044 128.322 250.769 127.938 250.769 127.168C250.769 126.948 250.879 126.674 251.099 126.344C251.209 125.904 251.538 125.41 252.088 124.86C253.737 123.212 255.44 121.453 257.198 119.585C258.957 117.717 260.77 115.574 262.639 113.156C263.628 111.947 265.111 110.133 267.09 107.716C269.068 105.188 271.211 102.495 273.519 99.6379C275.937 96.7804 278.19 94.1428 280.278 91.725C280.827 90.9556 281.432 90.4611 282.091 90.2413C282.751 89.9116 283.19 89.7467 283.41 89.7467C286.377 89.7467 287.861 90.9007 287.861 93.2086C287.861 93.868 287.696 94.5275 287.366 95.1869C277.475 108.815 271.541 119.2 269.562 126.344C282.311 113.595 292.532 104.034 300.225 97.6597C308.028 91.1754 313.578 87.9333 316.875 87.9333C318.633 87.9333 319.952 88.2081 320.832 88.7576C321.821 89.3071 322.315 90.3512 322.315 91.8898C322.315 92.4393 322.26 92.8789 322.15 93.2086C321.821 93.9779 319.568 97.0552 315.391 102.44C312.864 105.518 310.611 108.32 308.632 110.848C306.764 113.376 305.225 115.574 304.017 117.442C302.038 120.519 300.555 123.432 299.566 126.179C298.576 128.817 298.082 131.07 298.082 132.938C298.082 133.707 298.192 134.642 298.412 135.741C298.631 136.84 299.291 137.389 300.39 137.389C302.918 137.389 306.874 135.191 312.259 130.795C314.787 128.597 317.15 126.399 319.348 124.201C321.546 121.893 323.634 119.64 325.612 117.442C326.052 117.002 326.766 116.178 327.755 114.969C328.744 113.65 329.349 112.991 329.569 112.991C330.008 112.991 330.228 113.431 330.228 114.31C330.228 114.749 329.953 115.519 329.404 116.618C328.964 117.607 328.47 118.376 327.92 118.926C326.711 120.354 324.898 122.333 322.48 124.86C320.172 127.388 317.534 129.971 314.567 132.608C311.71 135.246 308.907 137.499 306.16 139.367C303.412 141.236 300.994 142.17 298.906 142.17Z" fill="#404040"/>
<path d="M222.936 143.983C219.419 143.983 216.232 142.884 213.375 140.686C210.517 138.378 209.089 135.356 209.089 131.619C209.089 123.816 213.869 114.914 223.431 104.913C233.212 94.8023 241.949 89.7468 249.642 89.7468C252.17 89.7468 254.203 90.4612 255.742 91.8899C257.39 93.2087 258.215 94.8573 258.215 96.8355C258.215 102.99 253.324 109.035 243.543 114.969C234.86 120.245 227.552 122.882 221.617 122.882C220.738 122.882 219.969 122.772 219.309 122.552C217.661 125.52 216.837 128.652 216.837 131.949C216.837 137.664 219.529 140.521 224.914 140.521C230.409 140.521 237.498 136.84 246.18 129.476C252.884 124.091 258.599 118.376 263.325 112.332C264.314 111.013 265.193 110.353 265.963 110.353C266.622 110.353 266.952 110.683 266.952 111.343C266.952 112.002 266.512 112.936 265.633 114.145C262.556 118.211 259.259 121.948 255.742 125.355C252.225 128.762 248.433 131.894 244.367 134.752C235.905 140.906 228.761 143.983 222.936 143.983ZM223.925 119.255C228.102 119.255 233.542 117.167 240.246 112.991C242.444 111.452 244.587 109.749 246.675 107.881C248.873 105.902 250.631 103.924 251.95 101.946C253.379 99.9677 254.093 98.2093 254.093 96.6706C254.093 95.2419 252.939 94.5276 250.631 94.5276C247.334 94.5276 242.718 97.0003 236.784 101.946C233.926 104.364 231.179 107.001 228.541 109.859C225.903 112.716 223.65 115.739 221.782 118.926C222.442 119.146 223.156 119.255 223.925 119.255Z" fill="#404040"/>
<path d="M186.971 142.17C183.784 142.17 180.817 141.401 178.069 139.862C175.322 138.214 173.948 135.521 173.948 131.784C173.948 126.619 175.761 120.464 179.388 113.321C183.125 106.177 187.356 98.7588 192.082 91.0656C204.94 70.1843 214.062 59.7437 219.447 59.7437C220.546 59.7437 221.645 60.1833 222.744 61.0625C223.953 61.8318 224.613 62.711 224.722 63.7001L213.183 79.1963C208.677 85.2409 204.61 90.8458 200.984 96.0112C197.357 101.067 194.225 105.628 191.587 109.694C190.268 111.782 188.785 114.145 187.136 116.783C185.488 119.42 184.004 122.168 182.685 125.025C181.476 127.773 180.872 130.575 180.872 133.433C180.872 134.752 181.256 135.961 182.026 137.06C182.795 138.049 184.169 138.543 186.147 138.543C189.664 138.543 194.28 136.675 199.995 132.938C205.709 129.092 211.369 123.816 216.974 117.112C217.524 116.453 218.128 115.848 218.788 115.299C219.447 114.749 219.997 114.475 220.436 114.475C220.986 114.475 221.261 114.804 221.261 115.464C221.261 115.794 220.876 116.453 220.107 117.442C219.447 118.321 218.898 119.036 218.458 119.585L214.502 124.036C212.304 126.454 209.666 129.092 206.589 131.949C203.621 134.807 200.434 137.224 197.027 139.203C193.73 141.181 190.378 142.17 186.971 142.17Z" fill="#404040"/>
<path d="M140.51 143.983C136.993 143.983 133.806 142.884 130.948 140.686C128.091 138.378 126.662 135.356 126.662 131.619C126.662 123.816 131.443 114.914 141.004 104.913C150.786 94.8023 159.523 89.7468 167.216 89.7468C169.744 89.7468 171.777 90.4612 173.315 91.8899C174.964 93.2087 175.788 94.8573 175.788 96.8355C175.788 102.99 170.898 109.035 161.116 114.969C152.434 120.245 145.126 122.882 139.191 122.882C138.312 122.882 137.542 122.772 136.883 122.552C135.235 125.52 134.41 128.652 134.41 131.949C134.41 137.664 137.103 140.521 142.488 140.521C147.983 140.521 155.072 136.84 163.754 129.476C170.458 124.091 176.173 118.376 180.899 112.332C181.888 111.013 182.767 110.353 183.536 110.353C184.196 110.353 184.525 110.683 184.525 111.343C184.525 112.002 184.086 112.936 183.207 114.145C180.129 118.211 176.832 121.948 173.315 125.355C169.799 128.762 166.007 131.894 161.941 134.752C153.478 140.906 146.335 143.983 140.51 143.983ZM141.499 119.255C145.675 119.255 151.115 117.167 157.819 112.991C160.017 111.452 162.16 109.749 164.249 107.881C166.447 105.902 168.205 103.924 169.524 101.946C170.953 99.9677 171.667 98.2093 171.667 96.6706C171.667 95.2419 170.513 94.5276 168.205 94.5276C164.908 94.5276 160.292 97.0003 154.357 101.946C151.5 104.364 148.752 107.001 146.115 109.859C143.477 112.716 141.224 115.739 139.356 118.926C140.015 119.146 140.73 119.255 141.499 119.255Z" fill="#404040"/>
<path d="M66.9302 149.588C49.5657 149.588 37.7513 143.654 31.4869 131.784C20.167 141.236 12.0892 145.961 7.25352 145.961C4.94558 145.961 3.1322 144.862 1.81338 142.664C0.60446 140.466 0 137.994 0 135.246C0 128.652 2.52774 120.959 7.58322 112.167C9.78126 108.32 12.1991 104.803 14.8367 101.616C17.4744 98.429 20.4417 96.8354 23.7388 96.8354C26.9259 96.8354 29.3438 99.473 30.9923 104.748L35.9379 120.574C37.6963 118.706 39.6196 116.453 41.7077 113.815C43.9058 111.068 46.3236 107.881 48.9612 104.254L63.6331 84.4715C81.657 61.0624 93.4714 48.2588 99.0764 46.0608C101.055 45.2915 103.033 44.9068 105.011 44.9068C107.209 44.9068 108.968 45.4014 110.286 46.3905C111.715 47.2697 112.429 48.3138 112.429 49.5227C112.429 51.5009 110.836 52.6549 107.649 52.9846C104.352 54.8529 97.9225 60.403 88.361 69.6347C83.9649 73.9209 80.3931 77.4927 77.6456 80.3501C75.0079 83.0977 73.1946 85.1858 72.2055 86.6145C59.8965 103.759 48.5216 116.947 38.081 126.179C44.785 139.477 54.841 146.126 68.249 146.126C73.3045 146.126 78.4149 145.027 83.5803 142.829C88.8556 140.741 93.6912 137.939 98.0873 134.422C102.593 130.905 106.22 127.003 108.968 122.717C111.715 118.321 113.089 113.98 113.089 109.694C113.089 105.188 111.495 101.122 108.308 97.4948C105.121 93.8681 101.22 91.2854 96.6036 89.7467C96.6036 89.7467 95.7794 89.6368 94.1309 89.417C92.4823 89.1972 89.9546 88.8675 86.5476 88.4279C81.3822 87.7685 78.7996 86.7244 78.7996 85.2957C78.7996 84.3066 79.404 83.4274 80.6129 82.6581C81.9318 81.8888 83.2506 81.5041 84.5694 81.5041C85.5585 81.5041 86.7125 81.7239 88.0313 82.1635C89.3501 82.6031 90.5041 83.0427 91.4932 83.4823C92.5922 83.812 93.1417 83.9769 93.1417 83.9769C94.021 84.0868 95.0101 84.1967 96.1091 84.3066C97.2081 84.3066 98.3071 84.3066 99.4061 84.3066C106.66 84.3066 113.254 83.1526 119.188 80.8447C124.903 78.5368 129.08 75.3496 131.717 71.2832C134.355 67.2169 135.674 62.4911 135.674 57.1059C135.674 51.6108 133.915 47.2697 130.398 44.0826C126.991 40.8954 122.431 38.6424 116.716 37.3236C111.111 35.8949 105.011 35.1805 98.417 35.1805C85.5585 35.1805 73.3045 37.0489 61.6549 40.7855C50.1152 44.5222 40.1141 50.7316 31.6517 59.4139C25.1675 66.1179 21.9254 71.7229 21.9254 76.2288C21.9254 79.416 22.7497 82.1086 24.3982 84.3066C24.8378 84.8561 25.3324 85.4056 25.8819 85.9551C26.4314 86.5046 27.0908 87.0542 27.8601 87.6037C28.4096 87.9334 28.0799 88.0982 26.871 88.0982C20.0571 86.5596 16.6501 81.9987 16.6501 74.4155C16.6501 66.8322 20.4967 59.6886 28.1898 52.9846C34.1245 47.8192 40.8835 43.643 48.4667 40.4558C56.1598 37.2687 64.2376 34.9607 72.7 33.532C81.2723 32.1033 89.7348 31.3889 98.0873 31.3889C104.022 31.3889 109.737 31.8285 115.232 32.7077C120.727 33.5869 125.673 35.0706 130.069 37.1588C134.465 39.137 137.927 41.7746 140.454 45.0717C143.092 48.3687 144.411 52.4351 144.411 57.2708C144.411 64.0847 142.598 69.5248 138.971 73.5912C135.344 77.6576 130.453 80.7898 124.299 82.9878C117.045 85.5155 109.242 86.8343 100.89 86.9443C105.506 87.1641 109.517 88.373 112.924 90.571C116.441 92.769 119.133 95.6265 121.002 99.1433C122.98 102.66 123.969 106.507 123.969 110.683C123.969 116.288 122.266 121.508 118.859 126.344C115.562 131.07 111.111 135.191 105.506 138.708C99.9007 142.115 93.7462 144.753 87.0422 146.621C80.3382 148.599 73.6342 149.588 66.9302 149.588ZM9.3966 142.17C12.9135 142.17 19.6724 137.169 29.6735 127.168L29.1789 126.509C24.7828 111.892 21.266 104.583 18.6283 104.583C18.5184 104.583 18.2437 104.693 17.8041 104.913C9.67135 116.673 5.60499 126.124 5.60499 133.268C5.60499 134.806 5.87974 136.675 6.42925 138.873C7.08866 141.071 8.07778 142.17 9.3966 142.17Z" fill="#404040"/>
<path d="M699.31 142.17C696.343 142.17 694.255 141.346 693.046 139.697C691.837 137.939 691.232 135.796 691.232 133.268C691.232 126.894 693.431 120.08 697.827 112.826L708.377 95.6814C700.904 101.177 693.485 108.045 686.122 116.288C684.144 118.486 681.891 121.069 679.363 124.036C676.945 127.003 674.253 130.41 671.285 134.257C667.329 139.422 664.966 142.005 664.197 142.005C662.658 142.005 661.394 141.346 660.405 140.027C659.416 138.598 658.921 137.334 658.921 136.235C658.921 135.356 659.196 133.762 659.746 131.454C660.295 129.037 660.955 126.948 661.724 125.19C662.493 123.322 663.262 121.508 664.032 119.75C664.911 117.882 665.735 116.068 666.505 114.31L656.613 124.695C656.394 124.915 655.734 125.575 654.635 126.674C653.536 127.773 652.657 128.322 651.998 128.322C651.448 128.322 651.173 127.938 651.173 127.168C651.173 126.948 651.283 126.674 651.503 126.344C651.613 125.904 651.943 125.41 652.492 124.86C654.141 123.212 655.844 121.453 657.603 119.585C659.361 117.717 661.174 115.574 663.043 113.156C664.032 111.947 665.515 110.133 667.494 107.716C669.472 105.188 671.615 102.495 673.923 99.6379C676.341 96.7804 678.594 94.1428 680.682 91.725C681.231 90.9556 681.836 90.4611 682.495 90.2413C683.155 89.9116 683.594 89.7467 683.814 89.7467C686.781 89.7467 688.265 90.9007 688.265 93.2086C688.265 93.868 688.1 94.5275 687.771 95.1869C677.879 108.815 671.945 119.2 669.966 126.344C682.715 113.595 692.936 104.034 700.629 97.6597C708.432 91.1754 713.982 87.9333 717.279 87.9333C719.038 87.9333 720.356 88.2081 721.236 88.7576C722.225 89.3071 722.719 90.3512 722.719 91.8898C722.719 92.4393 722.664 92.8789 722.554 93.2086C722.225 93.9779 719.972 97.0552 715.796 102.44C713.268 105.518 711.015 108.32 709.037 110.848C707.168 113.376 705.63 115.574 704.421 117.442C702.442 120.519 700.959 123.432 699.97 126.179C698.981 128.817 698.486 131.07 698.486 132.938C698.486 133.707 698.596 134.642 698.816 135.741C699.035 136.84 699.695 137.389 700.794 137.389C703.322 137.389 707.278 135.191 712.663 130.795C715.191 128.597 717.554 126.399 719.752 124.201C721.95 121.893 724.038 119.64 726.016 117.442C726.456 117.002 727.17 116.178 728.159 114.969C729.149 113.65 729.753 112.991 729.973 112.991C730.412 112.991 730.632 113.431 730.632 114.31C730.632 114.749 730.357 115.519 729.808 116.618C729.368 117.607 728.874 118.376 728.324 118.926C727.115 120.354 725.302 122.333 722.884 124.86C720.576 127.388 717.939 129.971 714.971 132.608C712.114 135.246 709.311 137.499 706.564 139.367C703.816 141.236 701.398 142.17 699.31 142.17Z" fill="#404040"/>
<path d="M600.381 142.664C597.743 142.664 595.105 141.73 592.468 139.862C589.83 137.994 588.346 135.796 588.017 133.268C586.918 124.805 592.248 114.749 604.007 103.1C615.657 91.4503 626.153 85.6255 635.494 85.6255C638.022 85.6255 640 86.2299 641.429 87.4389C642.198 88.2082 642.748 89.2522 643.078 90.5711C643.517 91.8899 643.847 92.5493 644.067 92.5493C644.506 92.5493 644.891 92.4943 645.221 92.3844C645.55 92.1646 645.935 92.0547 646.375 92.0547C647.693 92.0547 648.847 92.5493 649.836 93.5384C650.826 94.5275 651.375 95.4067 651.485 96.1761C651.595 96.3959 648.078 101.836 640.934 112.496C633.791 122.937 630.549 130.026 631.208 133.762C631.758 136.29 632.967 137.554 634.835 137.554C640.55 137.554 650.99 128.103 666.157 109.199C666.487 108.76 666.816 108.54 667.146 108.54C667.696 108.54 667.97 108.925 667.97 109.694C667.97 110.573 667.476 111.672 666.487 112.991C652.529 131.784 641.814 141.181 634.34 141.181C633.351 141.181 632.417 141.016 631.538 140.686C626.702 138.818 624.284 135.191 624.284 129.806C624.284 127.938 624.504 126.069 624.944 124.201L614.723 134.092C611.646 137.169 608.843 139.367 606.315 140.686C603.898 142.005 601.919 142.664 600.381 142.664ZM598.897 139.038C605.271 139.038 613.954 132.059 624.944 118.101L642.418 94.033C641.539 92.4943 640.11 91.725 638.132 91.725C631.428 91.725 622.361 97.1102 610.931 107.881C599.062 118.871 593.732 127.938 594.941 135.081C595.49 137.719 596.809 139.038 598.897 139.038Z" fill="#404040"/>
<path d="M527.053 143.654C522.108 143.654 519.635 140.521 519.635 134.257C519.635 131.839 520.349 128.982 521.778 125.685C523.317 122.278 525.46 118.706 528.207 114.969C528.207 114.969 527.218 115.903 525.24 117.772C523.262 119.64 521.009 122.003 518.481 124.86C518.041 125.3 517.492 125.52 516.833 125.52C516.393 125.52 516.173 125.245 516.173 124.696C516.173 124.146 516.668 123.212 517.657 121.893L540.406 95.187C543.264 91.8899 546.396 90.2414 549.803 90.2414C552.331 90.2414 553.595 91.2305 553.595 93.2087C553.595 93.978 553.265 94.6924 552.606 95.3518C550.517 97.33 547.935 100.133 544.858 103.759C541.89 107.386 538.978 111.288 536.12 115.464C533.263 119.64 530.845 123.652 528.867 127.498C526.998 131.235 526.064 134.257 526.064 136.565C526.064 138.543 526.724 139.532 528.043 139.532C528.812 139.532 530.021 139.258 531.669 138.708C533.318 138.049 535.516 136.785 538.263 134.916C541.011 132.938 544.308 129.916 548.155 125.85C548.814 125.19 550.572 123.212 553.43 119.915C556.287 116.618 560.134 111.892 564.97 105.738C573.542 95.0771 579.147 89.7468 581.785 89.7468C585.411 89.7468 587.389 91.2305 587.719 94.1978C587.939 95.187 585.631 98.4291 580.795 103.924C574.531 111.507 570.245 116.948 567.937 120.245C563.651 126.509 561.508 131.4 561.508 134.916C561.508 137.334 562.332 138.543 563.98 138.543C565.629 138.543 567.717 137.774 570.245 136.235C572.882 134.587 575.63 132.554 578.487 130.136C581.345 127.608 584.092 125.025 586.73 122.388C589.478 119.64 591.841 117.112 593.819 114.804C594.478 114.035 595.138 113.65 595.797 113.65C596.456 113.65 596.786 113.98 596.786 114.64C596.786 114.859 596.731 115.189 596.621 115.629C596.511 116.068 596.182 116.563 595.632 117.112C593.874 119.091 591.621 121.563 588.873 124.531C586.126 127.388 583.158 130.246 579.971 133.103C576.784 135.961 573.707 138.323 570.739 140.192C567.772 142.06 565.244 142.994 563.156 142.994C560.628 142.994 558.43 142.335 556.562 141.016C554.694 139.587 553.76 137.664 553.76 135.246C553.76 132.828 554.144 130.41 554.914 127.993C555.683 125.465 556.287 123.322 556.727 121.563C551.562 127.608 547.001 132.224 543.044 135.411C539.198 138.598 535.955 140.741 533.318 141.84C530.68 143.049 528.592 143.654 527.053 143.654Z" fill="#404040"/>
<path d="M420.35 163.271C411.228 163.271 403.92 160.908 398.425 156.182C392.93 151.566 390.182 145.192 390.182 137.059C390.182 131.564 391.391 126.564 393.809 122.058C396.886 116.013 401.062 110.518 406.338 105.573C411.613 100.517 417.328 96.4507 423.482 93.3735C429.747 90.2962 435.791 88.7576 441.616 88.7576C449.089 88.7576 454.914 90.516 459.09 94.0329C463.377 97.5497 465.52 102.166 465.52 107.881C465.52 110.958 464.86 113.925 463.541 116.783C462.333 119.64 460.794 122.058 458.926 124.036C456.178 127.113 453.98 128.652 452.331 128.652C451.892 128.652 451.672 128.432 451.672 127.993C451.672 127.663 451.837 127.168 452.167 126.509C456.123 120.684 458.101 115.079 458.101 109.694C458.101 104.858 456.563 100.847 453.485 97.6596C450.408 94.4725 446.287 92.8789 441.121 92.8789C436.176 92.8789 431.23 94.3626 426.285 97.3299C421.339 100.187 416.778 103.979 412.602 108.705C408.536 113.321 405.184 118.321 402.546 123.706C399.798 129.092 398.425 134.312 398.425 139.367C398.425 146.071 400.568 151.127 404.854 154.534C409.25 158.051 414.965 159.809 421.999 159.809C450.024 159.809 479.257 135.301 509.7 86.2848C527.944 57.0509 537.286 39.137 537.725 32.5428L527.999 32.0483C525.361 31.9384 522.229 32.2681 518.602 33.0374C514.975 33.6968 511.349 34.7409 507.722 36.1696C504.095 37.4884 500.798 39.082 497.831 40.9503C494.973 42.7088 492.94 44.687 491.731 46.885C490.742 48.5336 490.248 50.1271 490.248 51.6658C490.248 54.0836 491.292 56.5014 493.38 58.9193C495.468 61.3371 496.512 62.7658 496.512 63.2054C496.512 63.7549 495.853 64.1396 494.534 64.3594C494.204 64.4693 493.764 64.5243 493.215 64.5243C490.907 64.5243 488.709 63.4802 486.621 61.3921C484.203 58.9742 482.994 56.0618 482.994 52.6549C482.994 49.5776 483.983 46.7202 485.961 44.0825C488.709 40.3459 492.501 37.3785 497.336 35.1805C502.282 32.9825 507.557 31.4438 513.162 30.5646C518.877 29.5755 524.262 29.1359 529.318 29.2458C530.307 29.2458 532.999 29.4107 537.395 29.7404C537.176 28.3116 537.725 26.9928 539.044 25.7839C540.473 24.4651 542.066 23.8057 543.825 23.8057C547.122 23.8057 548.715 26.1686 548.605 30.8943C560.475 32.9825 566.739 36.1696 567.399 40.4558C567.508 40.8954 567.563 41.335 567.563 41.7746C567.563 42.2142 567.563 42.5989 567.563 42.9286C567.563 45.1266 566.959 46.2256 565.75 46.2256C564.761 46.2256 564.266 45.5113 564.266 44.0825C564.266 43.8627 564.266 43.588 564.266 43.2583C564.266 42.9286 564.321 42.5989 564.431 42.2692C561.684 38.2028 556.244 35.3453 548.111 33.6968C546.133 42.5989 535.802 61.9416 517.119 91.7249C511.404 100.847 504.81 109.694 497.336 118.266C489.863 126.729 481.895 134.367 473.433 141.181C464.97 147.995 456.233 153.38 447.221 157.336C438.209 161.293 429.252 163.271 420.35 163.271Z" fill="#404040"/>
</svg>
