<svg width="700" height="188" viewBox="0 0 700 188" fill="none" xmlns="http://www.w3.org/2000/svg">
<path d="M344.779 187.731C336.278 187.731 328.642 186.079 321.873 182.773C315.261 179.467 309.987 174.822 306.052 168.84C302.116 162.858 300.148 155.853 300.148 147.824C300.148 146.879 300.148 146.013 300.148 145.226C300.148 144.282 300.227 143.337 300.384 142.393C292.828 141.605 285.901 140.031 279.604 137.67C273.464 135.308 268.584 132.081 264.963 127.988C261.342 123.737 259.532 118.542 259.532 112.403C259.532 106.735 261.264 101.383 264.727 96.3452C268.19 91.1501 272.52 86.3486 277.715 81.9407C283.067 77.3753 288.656 73.4396 294.481 70.1337C305.343 63.5217 315.969 58.5628 326.36 55.2568C324.313 52.738 322.66 49.8256 321.401 46.5196C320.299 43.0562 319.748 39.7503 319.748 36.6017C319.748 30.9344 321.794 25.8967 325.887 21.4888C330.138 16.9234 335.569 13.0664 342.181 9.91789C348.793 6.76935 355.798 4.32923 363.198 2.59754C370.597 0.865847 377.445 0 383.742 0C400.429 0 408.773 5.11637 408.773 15.3491C408.773 20.0719 406.962 24.165 403.341 27.6284C399.721 31.0918 395.706 32.8235 391.298 32.8235C387.048 32.8235 384.922 31.7215 384.922 29.5175C384.922 27.9433 385.946 27.1561 387.992 27.1561C388.622 27.1561 389.409 27.3136 390.354 27.6284C390.669 27.7858 391.22 27.8645 392.007 27.8645C394.053 27.8645 396.021 26.6838 397.91 24.3224C400.429 21.3313 401.688 18.4976 401.688 15.8214C401.688 11.5709 399.248 8.50104 394.368 6.61193C391.22 5.50993 387.205 4.95894 382.325 4.95894C376.028 4.95894 369.731 6.06093 363.434 8.2649C357.294 10.3115 351.627 13.2238 346.432 17.0021C341.394 20.6229 337.301 24.7947 334.152 29.5175C331.004 34.2403 329.429 39.278 329.429 44.6305C329.429 48.4087 330.374 51.3999 332.263 53.6038C338.245 51.8721 343.519 51.0063 348.085 51.0063C357.215 51.0063 361.781 52.8167 361.781 56.4375C361.781 58.4841 360.443 60.2945 357.766 61.8687C355.09 63.2856 352.178 63.994 349.029 63.994C341.158 63.994 334.467 61.9475 328.957 57.8544C324.549 59.1138 319.905 61.0816 315.025 63.7579C310.145 66.4341 305.028 69.7401 299.676 73.6758C292.434 79.0283 286.137 85.0105 280.785 91.6224C275.432 98.0769 272.756 105.004 272.756 112.403C272.756 126.414 282.28 134.206 301.329 135.781C303.06 124.603 306.76 114.528 312.427 105.555C318.252 96.5814 325.887 89.1823 335.333 83.3575C340.686 80.0515 346.746 77.454 353.516 75.5649C360.443 73.5183 367.369 71.9441 374.296 70.8421C381.38 69.5827 387.835 68.4807 393.66 67.5361C401.374 66.2767 407.592 64.8599 412.315 63.2856C417.038 61.7113 420.58 60.0583 422.941 58.3266C424.673 57.0672 425.932 55.6504 426.719 54.0761C427.664 52.5018 428.136 51.085 428.136 49.8256C428.136 48.881 427.979 48.0152 427.664 47.228C427.349 46.2835 427.743 45.8112 428.845 45.8112C429.947 45.8112 430.812 46.5196 431.442 47.9365C432.072 49.3533 432.387 50.6914 432.387 51.9508C432.387 55.0994 430.812 58.4841 427.664 62.1049C424.2 65.5683 420.029 68.1658 415.148 69.8975C410.268 71.6292 405.152 72.9673 399.799 73.9119C394.447 74.8565 389.173 75.9584 383.978 77.2178C386.969 80.0515 388.465 84.3021 388.465 89.9694C388.465 101.619 381.853 112.796 368.629 123.501C359.498 130.743 349.738 135.781 339.347 138.614C329.115 141.291 318.095 142.629 306.288 142.629C306.13 143.573 305.973 144.597 305.815 145.699C305.815 146.643 305.815 147.588 305.815 148.532C305.815 159.08 309.358 167.66 316.442 174.271C323.683 180.883 333.129 184.189 344.779 184.189C348.714 184.189 352.099 182.851 354.933 180.175C357.766 177.656 359.183 174.744 359.183 171.438C359.183 170.336 358.947 169.234 358.475 168.132C358.317 167.817 358.239 167.423 358.239 166.951C358.239 166.007 358.868 165.534 360.128 165.534C361.859 165.534 362.725 167.581 362.725 171.674C362.725 175.924 360.915 179.624 357.294 182.773C353.673 186.079 349.501 187.731 344.779 187.731ZM347.848 60.2158C351.784 60.2158 354.067 59.2712 354.696 57.3821C354.854 55.8078 352.571 55.0207 347.848 55.0207C344.07 55.0207 339.82 55.493 335.097 56.4375C339.033 58.9563 343.283 60.2158 347.848 60.2158ZM306.996 136.017C317.229 136.017 327.698 134.364 338.403 131.058C349.265 127.752 358.396 122.714 365.795 115.945C375.713 106.972 380.672 97.7621 380.672 88.3165C380.672 81.3897 377.681 77.9263 371.699 77.9263C369.967 77.9263 366.11 78.6347 360.128 80.0515C329.744 91.3863 312.034 110.041 306.996 136.017Z" fill="#BEAA8E"/>
<path d="M668.278 142.17C665.31 142.17 663.222 141.346 662.013 139.697C660.804 137.939 660.2 135.796 660.2 133.268C660.2 126.894 662.398 120.08 666.794 112.826L677.344 95.6814C669.871 101.177 662.453 108.045 655.089 116.288C653.111 118.486 650.858 121.069 648.33 124.036C645.913 127.003 643.22 130.41 640.253 134.257C636.296 139.422 633.933 142.005 633.164 142.005C631.625 142.005 630.361 141.346 629.372 140.027C628.383 138.598 627.889 137.334 627.889 136.235C627.889 135.356 628.163 133.762 628.713 131.454C629.262 129.037 629.922 126.948 630.691 125.19C631.46 123.322 632.23 121.508 632.999 119.75C633.878 117.882 634.703 116.068 635.472 114.31L625.581 124.695C625.361 124.915 624.701 125.575 623.602 126.674C622.503 127.773 621.624 128.322 620.965 128.322C620.415 128.322 620.141 127.938 620.141 127.168C620.141 126.948 620.25 126.674 620.47 126.344C620.58 125.904 620.91 125.41 621.459 124.86C623.108 123.212 624.811 121.453 626.57 119.585C628.328 117.717 630.142 115.574 632.01 113.156C632.999 111.947 634.483 110.133 636.461 107.716C638.439 105.188 640.582 102.495 642.89 99.6379C645.308 96.7804 647.561 94.1428 649.649 91.725C650.199 90.9556 650.803 90.4611 651.463 90.2413C652.122 89.9116 652.562 89.7467 652.781 89.7467C655.749 89.7467 657.232 90.9007 657.232 93.2086C657.232 93.868 657.068 94.5275 656.738 95.1869C646.847 108.815 640.912 119.2 638.934 126.344C651.682 113.595 661.903 104.034 669.596 97.6597C677.399 91.1754 682.949 87.9333 686.246 87.9333C688.005 87.9333 689.324 88.2081 690.203 88.7576C691.192 89.3071 691.687 90.3512 691.687 91.8898C691.687 92.4393 691.632 92.8789 691.522 93.2086C691.192 93.9779 688.939 97.0552 684.763 102.44C682.235 105.518 679.982 108.32 678.004 110.848C676.136 113.376 674.597 115.574 673.388 117.442C671.41 120.519 669.926 123.432 668.937 126.179C667.948 128.817 667.453 131.07 667.453 132.938C667.453 133.707 667.563 134.642 667.783 135.741C668.003 136.84 668.662 137.389 669.761 137.389C672.289 137.389 676.245 135.191 681.631 130.795C684.158 128.597 686.521 126.399 688.719 124.201C690.917 121.893 693.005 119.64 694.984 117.442C695.423 117.002 696.138 116.178 697.127 114.969C698.116 113.65 698.72 112.991 698.94 112.991C699.38 112.991 699.6 113.431 699.6 114.31C699.6 114.749 699.325 115.519 698.775 116.618C698.336 117.607 697.841 118.376 697.292 118.926C696.083 120.354 694.269 122.333 691.851 124.86C689.544 127.388 686.906 129.971 683.939 132.608C681.081 135.246 678.279 137.499 675.531 139.367C672.783 141.236 670.366 142.17 668.278 142.17Z" fill="#404040"/>
<path d="M569.348 142.664C566.71 142.664 564.073 141.73 561.435 139.862C558.797 137.994 557.314 135.796 556.984 133.268C555.885 124.805 561.215 114.749 572.975 103.1C584.624 91.4503 595.12 85.6255 604.462 85.6255C606.989 85.6255 608.968 86.2299 610.396 87.4389C611.166 88.2082 611.715 89.2522 612.045 90.5711C612.484 91.8899 612.814 92.5493 613.034 92.5493C613.474 92.5493 613.858 92.4943 614.188 92.3844C614.518 92.1646 614.902 92.0547 615.342 92.0547C616.661 92.0547 617.815 92.5493 618.804 93.5384C619.793 94.5275 620.342 95.4067 620.452 96.1761C620.562 96.3959 617.045 101.836 609.902 112.496C602.758 122.937 599.516 130.026 600.175 133.762C600.725 136.29 601.934 137.554 603.802 137.554C609.517 137.554 619.958 128.103 635.124 109.199C635.454 108.76 635.784 108.54 636.113 108.54C636.663 108.54 636.938 108.925 636.938 109.694C636.938 110.573 636.443 111.672 635.454 112.991C621.496 131.784 610.781 141.181 603.308 141.181C602.319 141.181 601.384 141.016 600.505 140.686C595.669 138.818 593.252 135.191 593.252 129.806C593.252 127.938 593.471 126.069 593.911 124.201L583.69 134.092C580.613 137.169 577.81 139.367 575.283 140.686C572.865 142.005 570.887 142.664 569.348 142.664ZM567.864 139.038C574.239 139.038 582.921 132.059 593.911 118.101L611.385 94.033C610.506 92.4943 609.077 91.725 607.099 91.725C600.395 91.725 591.328 97.1102 579.899 107.881C568.029 118.871 562.699 127.938 563.908 135.081C564.457 137.719 565.776 139.038 567.864 139.038Z" fill="#404040"/>
<path d="M496.021 143.654C491.075 143.654 488.602 140.521 488.602 134.257C488.602 131.839 489.317 128.982 490.745 125.685C492.284 122.278 494.427 118.706 497.175 114.969C497.175 114.969 496.186 115.903 494.207 117.772C492.229 119.64 489.976 122.003 487.448 124.86C487.009 125.3 486.459 125.52 485.8 125.52C485.36 125.52 485.14 125.245 485.14 124.696C485.14 124.146 485.635 123.212 486.624 121.893L509.374 95.187C512.231 91.8899 515.363 90.2414 518.77 90.2414C521.298 90.2414 522.562 91.2305 522.562 93.2087C522.562 93.978 522.232 94.6924 521.573 95.3518C519.485 97.33 516.902 100.133 513.825 103.759C510.857 107.386 507.945 111.288 505.088 115.464C502.23 119.64 499.812 123.652 497.834 127.498C495.966 131.235 495.032 134.257 495.032 136.565C495.032 138.543 495.691 139.532 497.01 139.532C497.779 139.532 498.988 139.258 500.637 138.708C502.285 138.049 504.483 136.785 507.231 134.916C509.978 132.938 513.275 129.916 517.122 125.85C517.781 125.19 519.54 123.212 522.397 119.915C525.255 116.618 529.101 111.892 533.937 105.738C542.509 95.0771 548.114 89.7468 550.752 89.7468C554.379 89.7468 556.357 91.2305 556.686 94.1978C556.906 95.187 554.598 98.4291 549.763 103.924C543.498 111.507 539.212 116.948 536.904 120.245C532.618 126.509 530.475 131.4 530.475 134.916C530.475 137.334 531.299 138.543 532.948 138.543C534.596 138.543 536.684 137.774 539.212 136.235C541.85 134.587 544.597 132.554 547.455 130.136C550.312 127.608 553.06 125.025 555.697 122.388C558.445 119.64 560.808 117.112 562.786 114.804C563.445 114.035 564.105 113.65 564.764 113.65C565.424 113.65 565.753 113.98 565.753 114.64C565.753 114.859 565.698 115.189 565.589 115.629C565.479 116.068 565.149 116.563 564.599 117.112C562.841 119.091 560.588 121.563 557.84 124.531C555.093 127.388 552.126 130.246 548.938 133.103C545.751 135.961 542.674 138.323 539.707 140.192C536.739 142.06 534.212 142.994 532.123 142.994C529.596 142.994 527.398 142.335 525.529 141.016C523.661 139.587 522.727 137.664 522.727 135.246C522.727 132.828 523.111 130.41 523.881 127.993C524.65 125.465 525.255 123.322 525.694 121.563C520.529 127.608 515.968 132.224 512.011 135.411C508.165 138.598 504.923 140.741 502.285 141.84C499.647 143.049 497.559 143.654 496.021 143.654Z" fill="#404040"/>
<path d="M389.317 163.271C380.195 163.271 372.887 160.908 367.392 156.182C361.897 151.566 359.149 145.192 359.149 137.059C359.149 131.564 360.358 126.564 362.776 122.058C365.853 116.013 370.03 110.518 375.305 105.573C380.58 100.517 386.295 96.4507 392.45 93.3735C398.714 90.2962 404.759 88.7576 410.583 88.7576C418.057 88.7576 423.881 90.516 428.058 94.0329C432.344 97.5497 434.487 102.166 434.487 107.881C434.487 110.958 433.828 113.925 432.509 116.783C431.3 119.64 429.761 122.058 427.893 124.036C425.145 127.113 422.947 128.652 421.299 128.652C420.859 128.652 420.639 128.432 420.639 127.993C420.639 127.663 420.804 127.168 421.134 126.509C425.09 120.684 427.069 115.079 427.069 109.694C427.069 104.858 425.53 100.847 422.453 97.6596C419.375 94.4725 415.254 92.8789 410.089 92.8789C405.143 92.8789 400.198 94.3626 395.252 97.3299C390.306 100.187 385.746 103.979 381.569 108.705C377.503 113.321 374.151 118.321 371.513 123.706C368.766 129.092 367.392 134.312 367.392 139.367C367.392 146.071 369.535 151.127 373.821 154.534C378.217 158.051 383.932 159.809 390.966 159.809C418.991 159.809 448.225 135.301 478.667 86.2848C496.911 57.0509 506.253 39.137 506.692 32.5428L496.966 32.0483C494.328 31.9384 491.196 32.2681 487.569 33.0374C483.943 33.6968 480.316 34.7409 476.689 36.1696C473.062 37.4884 469.765 39.082 466.798 40.9503C463.941 42.7088 461.907 44.687 460.699 46.885C459.709 48.5336 459.215 50.1271 459.215 51.6658C459.215 54.0836 460.259 56.5014 462.347 58.9193C464.435 61.3371 465.479 62.7658 465.479 63.2054C465.479 63.7549 464.82 64.1396 463.501 64.3594C463.171 64.4693 462.732 64.5243 462.182 64.5243C459.874 64.5243 457.676 63.4802 455.588 61.3921C453.17 58.9742 451.961 56.0618 451.961 52.6549C451.961 49.5776 452.95 46.7202 454.929 44.0825C457.676 40.3459 461.468 37.3785 466.303 35.1805C471.249 32.9825 476.524 31.4438 482.129 30.5646C487.844 29.5755 493.229 29.1359 498.285 29.2458C499.274 29.2458 501.967 29.4107 506.363 29.7404C506.143 28.3116 506.692 26.9928 508.011 25.7839C509.44 24.4651 511.034 23.8057 512.792 23.8057C516.089 23.8057 517.683 26.1686 517.573 30.8943C529.442 32.9825 535.706 36.1696 536.366 40.4558C536.476 40.8954 536.531 41.335 536.531 41.7746C536.531 42.2142 536.531 42.5989 536.531 42.9286C536.531 45.1266 535.926 46.2256 534.717 46.2256C533.728 46.2256 533.234 45.5113 533.234 44.0825C533.234 43.8627 533.234 43.588 533.234 43.2583C533.234 42.9286 533.289 42.5989 533.399 42.2692C530.651 38.2028 525.211 35.3453 517.078 33.6968C515.1 42.5989 504.769 61.9416 486.086 91.7249C480.371 100.847 473.777 109.694 466.303 118.266C458.83 126.729 450.862 134.367 442.4 141.181C433.937 147.995 425.2 153.38 416.188 157.336C407.176 161.293 398.219 163.271 389.317 163.271Z" fill="#404040"/>
<path d="M265.667 144.162C265.107 144.274 263.875 144.33 261.971 144.33C260.18 144.33 258.332 143.602 256.428 142.146C254.636 140.69 253.74 138.842 253.74 136.602C253.74 134.251 254.132 131.675 254.916 128.875C255.812 126.075 256.428 123.947 256.764 122.491C243.885 137.498 233.806 145.002 226.526 145.002C221.935 145.002 219.415 142.146 218.967 136.434C218.967 135.986 218.967 135.594 218.967 135.258C218.967 130.443 221.879 123.947 227.702 115.772C224.454 118.684 221.151 122.044 217.791 125.851C217.343 126.299 216.783 126.523 216.111 126.523C215.663 126.523 215.439 126.243 215.439 125.683C215.439 125.123 215.943 124.171 216.951 122.827L240.133 95.6136C243.045 92.2539 246.013 90.574 249.036 90.574C252.06 90.574 253.572 91.5819 253.572 93.5978C253.572 94.3817 253.236 95.1097 252.564 95.7816C248.085 99.9253 242.429 106.813 235.598 116.444C228.878 126.075 225.518 133.187 225.518 137.778C225.518 139.794 226.19 140.802 227.534 140.802C232.238 140.802 239.069 136.154 248.029 126.859C251.164 123.723 256.988 116.836 265.499 106.197C274.01 95.4456 279.61 90.0701 282.298 90.0701C286.329 90.0701 288.345 91.6379 288.345 94.7737C288.345 95.8936 285.994 99.1413 281.29 104.517C274.906 112.244 270.035 118.572 266.675 123.499C263.315 128.315 261.635 132.235 261.635 135.258C261.635 138.282 262.475 139.794 264.155 139.794C264.939 139.794 265.835 139.57 266.843 139.122C274.57 135.762 283.81 127.923 294.561 115.604C295.233 114.82 295.905 114.428 296.577 114.428C297.249 114.428 297.585 114.82 297.585 115.604C297.585 116.276 297.193 117.06 296.409 117.956C291.593 123.555 285.938 129.211 279.442 134.923C272.947 140.522 268.355 143.602 265.667 144.162Z" fill="#404040"/>
<path d="M184.334 134.755C184.334 138.114 186.182 139.794 189.878 139.794C193.573 139.794 198.333 137.834 204.156 133.915C209.98 129.995 215.636 124.675 221.123 117.956C222.467 116.164 223.531 115.268 224.315 115.268C225.099 115.268 225.491 115.604 225.491 116.276C225.491 116.948 223.195 119.86 218.603 125.011C207.404 137.33 198.053 143.49 190.55 143.49C186.854 143.49 183.718 142.65 181.142 140.97C178.566 139.178 177.279 136.49 177.279 132.907C177.279 129.211 178.231 124.955 180.134 120.14C183.382 112.524 188.59 102.949 195.757 91.414C208.86 70.1357 218.155 59.4966 223.643 59.4966C224.763 59.4966 225.883 59.9446 227.003 60.8405C228.235 61.6244 228.907 62.5203 229.018 63.5283C226.443 67 221.459 73.6635 214.068 83.5187C206.788 93.3739 201.749 100.485 198.949 104.853C196.149 109.109 194.021 112.3 192.565 114.428C191.221 116.556 190.214 118.236 189.542 119.468C188.87 120.588 188.086 122.1 187.19 124.003C185.286 127.811 184.334 131.395 184.334 134.755Z" fill="#404040"/>
<path d="M143.205 145.338C141.973 145.338 140.853 145.17 139.845 144.834C132.678 142.818 129.094 138.786 129.094 132.739C129.094 124.899 134.022 115.828 143.877 105.525C153.732 95.2217 162.579 90.0701 170.419 90.0701C172.994 90.0701 175.066 90.798 176.634 92.2539C178.314 93.5978 179.154 95.2777 179.154 97.2935C179.154 103.565 174.394 109.557 164.875 115.268C155.468 120.98 147.796 123.835 141.861 123.835C140.965 123.835 140.181 123.723 139.509 123.499C137.829 126.523 136.989 129.715 136.989 133.075C136.989 138.898 139.733 141.81 145.221 141.81C150.82 141.81 158.044 138.058 166.891 130.555C173.722 125.067 179.546 119.244 184.362 113.084C185.37 111.74 186.209 111.068 186.881 111.068C187.665 111.068 188.057 111.404 188.057 112.076C188.057 112.748 187.609 113.7 186.713 114.932C180.666 122.883 173.386 129.939 164.875 136.098C156.364 142.258 149.14 145.338 143.205 145.338ZM174.954 96.9575C174.954 95.6136 173.498 94.9417 170.587 94.9417C167.787 94.9417 163.755 97.1255 158.492 101.493C151.436 107.317 145.949 113.42 142.029 119.804C142.701 120.028 143.429 120.14 144.213 120.14C148.468 120.14 154.124 117.9 161.179 113.42C168.347 108.829 172.826 103.845 174.618 98.4694C174.842 97.9094 174.954 97.4055 174.954 96.9575Z" fill="#404040"/>
<path d="M126.35 111.404C126.35 115.436 125.454 119.244 123.662 122.827C119.854 130.891 112.575 137.61 101.824 142.986C91.0726 148.361 79.8735 151.049 68.2264 151.049C50.5318 151.049 38.4927 145.002 32.1093 132.907C20.5742 142.538 12.3428 147.354 7.41522 147.354C6.51929 147.354 5.73535 147.186 5.0634 146.85C1.70367 145.058 0.0238037 141.194 0.0238037 135.258C0.0238037 129.323 2.48761 122.044 7.41522 113.42C12.3428 104.797 16.6545 99.7013 20.3502 98.1334C22.0301 97.5735 23.318 97.2935 24.2139 97.2935C27.4616 97.2935 29.9254 99.9813 31.6053 105.357L36.6449 121.484C39.8926 118.012 44.3163 112.468 49.9158 104.853L64.8667 84.6945C83.2332 60.8404 95.2722 47.7934 100.984 45.5536C103 44.7697 105.071 44.3777 107.199 44.3777C109.327 44.3777 111.063 44.8257 112.407 45.7216C113.863 46.6175 114.591 47.7374 114.591 49.0813C114.591 51.0972 112.967 52.2731 109.719 52.609C106.359 54.5129 99.9199 60.1124 90.4006 69.4077C80.9934 78.591 75.3938 84.4145 73.602 86.8783C61.059 104.349 49.4679 117.788 38.8287 127.195C45.6602 140.746 55.9074 147.522 69.5703 147.522C77.8576 147.522 86.089 144.946 94.2643 139.794C102.44 134.531 108.543 128.091 112.575 120.476C114.367 117.228 115.263 113.588 115.263 109.557C115.263 105.525 113.639 101.717 110.391 98.1334C107.255 94.4377 103.28 91.7499 98.464 90.0701C96.2242 89.7341 92.6405 89.2861 87.7128 88.7262C82.7852 88.0542 80.3214 86.9903 80.3214 85.5344C80.3214 84.9745 80.5454 84.4705 80.9934 84.0225C82.3373 82.4547 84.0731 81.6707 86.201 81.6707C87.4329 81.6707 88.6088 81.8947 89.7287 82.3427C90.9606 82.7906 91.9125 83.1266 92.5845 83.3506C93.2564 83.5746 94.0403 83.8546 94.9363 84.1905C97.4001 84.4145 99.5279 84.5265 101.32 84.5265C108.711 84.5265 115.431 83.3506 121.478 80.9988C129.206 77.975 134.133 73.4394 136.261 67.3919C137.605 63.4722 138.277 59.9445 138.277 56.8087C138.277 49.0813 134.525 43.3138 127.022 39.5061C120.526 36.1463 111.623 34.4665 100.312 34.4665C82.5053 34.4665 66.5465 37.8262 52.4356 44.5457C45.2682 47.9054 38.4368 52.889 31.9413 59.4965C25.5578 66.104 22.366 71.7595 22.366 76.4631C22.366 79.7109 23.206 82.3987 24.8858 84.5265C25.5578 85.4224 26.7337 86.5423 28.4136 87.8862C28.9735 88.2222 28.6375 88.3902 27.4056 88.3902C20.4622 86.8223 16.9905 82.1747 16.9905 74.4473C16.9905 66.7199 20.9101 59.4405 28.7495 52.609C34.5731 47.5694 41.1245 43.4818 48.404 40.346C63.5228 33.8505 80.7134 30.6028 99.9759 30.6028C113.751 30.6028 124.726 32.6186 132.901 36.6503C142.421 41.1299 147.18 47.9054 147.18 56.9767C147.18 60.5604 146.452 64.2001 144.996 67.8958C142.644 74.6153 136.541 79.7109 126.686 83.1826C119.294 85.7584 111.343 87.1023 102.832 87.2143C109.439 87.5503 114.983 90.0141 119.462 94.6057C124.054 99.0853 126.35 104.685 126.35 111.404ZM19.0063 105.189C18.8943 105.189 18.6143 105.301 18.1664 105.525C9.87902 117.508 5.73535 127.139 5.73535 134.419C5.73535 137.442 6.46329 140.186 7.91918 142.65C8.25515 143.21 8.81511 143.49 9.59904 143.49C13.1828 143.49 20.0702 138.394 30.2614 128.203L29.7574 127.531C25.2778 112.636 21.6941 105.189 19.0063 105.189Z" fill="#404040"/>
</svg>
